<?xml version="1.0" encoding="UTF-8" standalone="no"?>
<!DOCTYPE svg PUBLIC "-//W3C//DTD SVG 1.1//EN" "http://www.w3.org/Graphics/SVG/1.1/DTD/svg11.dtd">
<svg width="100%" height="100%" viewBox="0 0 54 54" version="1.1" xmlns="http://www.w3.org/2000/svg" xmlns:xlink="http://www.w3.org/1999/xlink" xml:space="preserve" xmlns:serif="http://www.serif.com/" style="fill-rule:evenodd;clip-rule:evenodd;stroke-linejoin:round;stroke-miterlimit:2;">
    <g transform="matrix(1,0,0,1,-492,-2203)">
        <g id="validé-TL">
            <g id="Groupe_1275">
                <g id="Tracé_588" transform="matrix(1,0,0,1,492,2203)">
                    <path d="M27,0C41.812,-0 54,12.188 54,27C54,41.812 41.812,54 27,54C12.188,54 0,41.812 0,27C-0,12.188 12.188,0 27,0Z" style="fill:rgb(103,194,58);fill-rule:nonzero;"/>
                </g>
                <g transform="matrix(1,0,0,1,-6420,-4427)">
                    <path d="M6926.74,6656.58L6935.52,6665.36C6936.11,6665.95 6937.06,6665.95 6937.65,6665.36L6952.61,6650.4C6953.2,6649.81 6953.2,6648.86 6952.61,6648.27C6952.03,6647.69 6951.08,6647.69 6950.49,6648.27L6936.59,6662.18C6936.59,6662.18 6928.86,6654.45 6928.86,6654.45C6928.28,6653.87 6927.32,6653.87 6926.74,6654.45C6926.15,6655.04 6926.15,6655.99 6926.74,6656.58Z" style="fill:white;"/>
                </g>
            </g>
        </g>
    </g>
</svg>
