<svg width="164" height="135" viewBox="0 0 164 135" fill="none" xmlns="http://www.w3.org/2000/svg">
<path d="M93.8133 25.892C86 28.6667 79.4266 34.128 75.2519 41.3C48.8933 41.7667 27.1854 59.6747 24.2134 82.5427C17.852 83.3733 12 86.4214 7.66667 91.1481C3.33333 95.8747 0.813335 101.979 0.534668 108.384C0.946668 115.725 4.24004 122.607 9.70671 127.525C15.1734 132.444 22.36 135 29.6934 134.633H88.0254C89.5854 134.633 91.0667 134.019 92.16 132.925C93.252 131.832 93.868 130.348 93.868 128.8C93.868 127.253 93.252 125.771 92.16 124.676C91.0667 123.581 89.5854 122.967 88.0254 122.967H29.6934C25.4534 123.309 21.24 121.975 17.9733 119.248C14.7066 116.521 12.6267 112.621 12.2 108.384C12.6267 104.145 14.7066 100.247 17.9733 97.52C21.24 94.7934 25.4534 93.4587 29.6934 93.8C31.2534 93.8 32.7333 93.1853 33.8267 92.092C34.9187 90.9987 35.5347 89.5147 35.5347 87.9667C35.5347 68.6587 53.852 52.9667 76.36 52.9667C84.72 52.6693 92.9586 54.9441 99.9866 59.4814C107.012 64.0187 112.467 70.6027 115.625 78.3427C115.973 79.3947 116.613 80.328 117.465 81.0293C118.32 81.7307 119.359 82.1747 120.465 82.3094C122.6 82.592 124.693 83.1201 126.707 83.8841C130.625 85.2427 134.04 87.7507 136.507 91.0813C138.975 94.412 140.373 98.4094 140.535 102.551C140.119 108.34 137.428 113.731 133.067 117.552C128.693 121.375 123 123.321 117.2 122.967H111.359C109.813 122.967 108.333 123.581 107.239 124.676C106.147 125.771 105.535 127.253 105.535 128.8C105.535 130.348 106.147 131.832 107.239 132.925C108.333 134.019 109.813 134.633 111.359 134.633H117.2C126.093 134.997 134.76 131.827 141.32 125.815C147.88 119.803 151.787 111.439 152.201 102.551C152.107 97.0481 150.585 91.6654 147.773 86.9374C144.96 82.2107 140.945 78.3 136.16 75.6C137.88 72.5414 139.12 69.236 139.827 65.8C141.48 57.6693 140.173 49.22 136.16 41.9587C132.16 34.6974 125.693 29.096 117.947 26.1534C113.947 24.636 109.737 23.8774 105.525 23.8774C101.567 23.8774 97.6053 24.548 93.8133 25.892ZM110.428 52.4107C104.081 47.488 96.6414 44.1587 88.7334 42.7001C91.9601 39.3574 96.1066 37.0507 100.64 36.0773C105.187 35.1053 109.907 35.5067 114.227 37.2373C118.533 38.9667 122.225 41.9413 124.84 45.7827C127.44 49.624 128.852 54.1573 128.867 58.8C128.852 60.3667 128.707 61.9293 128.4 63.4667C127.813 66.1467 126.748 68.6974 125.252 70.9921C121.867 63.7041 116.787 57.332 110.428 52.4107Z" fill="url(#paint0_linear_1_105)"/>
<path d="M93.8133 25.892C86 28.6667 79.4266 34.128 75.252 41.3C77.5733 41.212 83.5067 41.3681 88.7334 42.7001C91.9601 39.3574 96.1066 37.0507 100.64 36.0773C105.187 35.1053 109.907 35.5067 114.227 37.2373C118.533 38.9667 122.225 41.9413 124.84 45.7827C127.44 49.624 128.852 54.1573 128.867 58.8C128.852 60.3667 128.707 61.9293 128.4 63.4667C127.813 66.1467 126.748 68.6974 125.252 70.992C127.667 71.7507 133.213 73.7334 136.16 75.6C137.88 72.5414 139.12 69.236 139.84 65.8C141.48 57.6693 140.173 49.22 136.16 41.9587C132.16 34.6973 125.693 29.096 117.947 26.1533C113.947 24.636 109.737 23.8774 105.525 23.8774C101.567 23.8774 97.6053 24.548 93.8133 25.892Z" fill="url(#paint1_linear_1_105)"/>
<path d="M152.201 52.9666C150.653 52.9666 149.173 53.5814 148.081 54.676C146.987 55.7694 146.359 57.2533 146.359 58.8C146.359 60.3466 146.987 61.8306 148.081 62.9253C149.173 64.0186 150.653 64.6333 152.201 64.6333H158.025C159.585 64.6333 161.067 64.0186 162.16 62.9253C163.253 61.8306 163.867 60.3466 163.867 58.8C163.867 57.2533 163.253 55.7694 162.16 54.676C161.067 53.5814 159.585 52.9666 158.025 52.9666H152.201Z" fill="url(#paint2_linear_1_105)"/>
<path d="M101.415 2.17607C100.32 3.2694 99.692 4.75334 99.692 6.30001V12.1333C99.692 13.6787 100.32 15.164 101.415 16.2574C102.507 17.352 103.987 17.9667 105.535 17.9667C107.081 17.9667 108.56 17.352 109.653 16.2574C110.747 15.164 111.359 13.6787 111.359 12.1333V6.30001C111.359 4.75334 110.747 3.2694 109.653 2.17607C108.56 1.0814 107.081 0.466674 105.535 0.466674C103.987 0.466674 102.507 1.0814 101.415 2.17607Z" fill="url(#paint3_linear_1_105)"/>
<path d="M137.852 17.6174L133.76 21.8173C132.974 22.6427 132.453 23.6801 132.252 24.8014C132.041 25.9227 132.173 27.0801 132.626 28.1281C133.066 29.1774 133.813 30.072 134.76 30.7027C135.706 31.3333 136.827 31.6707 137.959 31.6747C138.733 31.672 139.507 31.516 140.215 31.216C140.92 30.9147 141.572 30.476 142.106 29.9253L146.187 25.7254C147.133 24.596 147.613 23.1534 147.535 21.684C147.465 20.216 146.826 18.8307 145.773 17.8054C144.72 16.78 143.321 16.192 141.853 16.156C141.807 16.1547 141.761 16.1547 141.715 16.1547C140.296 16.1547 138.912 16.6721 137.852 17.6174Z" fill="url(#paint4_linear_1_105)"/>
<path d="M66.8534 17.6294C65.7201 18.6214 65.0121 20.0121 64.8934 21.5107C64.7601 23.0081 65.2147 24.4974 66.16 25.668L70.0668 29.6348C70.6014 30.2494 71.2667 30.7441 72.0134 31.0854C72.7614 31.4268 73.5601 31.6081 74.3868 31.6174C75.8268 31.6308 77.2147 31.1108 78.2933 30.1588C78.868 29.6481 79.3467 29.0281 79.68 28.3334C80.012 27.6401 80.2147 26.8854 80.252 26.1147C80.2933 25.3427 80.1866 24.5734 79.9333 23.8441C79.68 23.1174 79.2801 22.4481 78.7614 21.8761L74.9068 17.9681C73.8668 16.8841 72.4533 16.2428 70.9466 16.1801C70.8653 16.1774 70.784 16.1747 70.7027 16.1747C69.2827 16.1747 67.9134 16.6894 66.8534 17.6294Z" fill="url(#paint5_linear_1_105)"/>
<defs>
<linearGradient id="paint0_linear_1_105" x1="76.3667" y1="23.8771" x2="76.3667" y2="134.668" gradientUnits="userSpaceOnUse">
<stop stop-color="#A1D2FA"/>
<stop offset="1" stop-color="#DCE2F6"/>
</linearGradient>
<linearGradient id="paint1_linear_1_105" x1="107.892" y1="23.8771" x2="107.892" y2="75.6" gradientUnits="userSpaceOnUse">
<stop stop-color="#FAC86A"/>
<stop offset="1" stop-color="#F1674C"/>
</linearGradient>
<linearGradient id="paint2_linear_1_105" x1="155.113" y1="52.9665" x2="155.113" y2="64.6332" gradientUnits="userSpaceOnUse">
<stop stop-color="#FAC86A"/>
<stop offset="1" stop-color="#F1674C"/>
</linearGradient>
<linearGradient id="paint3_linear_1_105" x1="105.527" y1="0.466554" x2="105.527" y2="17.9666" gradientUnits="userSpaceOnUse">
<stop stop-color="#FAC86A"/>
<stop offset="1" stop-color="#F1674C"/>
</linearGradient>
<linearGradient id="paint4_linear_1_105" x1="139.848" y1="16.1544" x2="139.848" y2="31.6746" gradientUnits="userSpaceOnUse">
<stop stop-color="#FAC86A"/>
<stop offset="1" stop-color="#F1674C"/>
</linearGradient>
<linearGradient id="paint5_linear_1_105" x1="72.5659" y1="16.1749" x2="72.5659" y2="31.6175" gradientUnits="userSpaceOnUse">
<stop stop-color="#FAC86A"/>
<stop offset="1" stop-color="#F1674C"/>
</linearGradient>
</defs>
</svg>
