<svg width="183" height="119" viewBox="0 0 183 119" fill="none" xmlns="http://www.w3.org/2000/svg">
<path d="M39.64 36.4267C30.4533 44.14 24.4133 54.9586 22.68 66.8279C16.5067 67.7173 10.84 70.7626 6.69336 75.4253C2.53336 80.0879 0.173333 86.068 0 92.3093C0.24 99.3973 3.27995 106.101 8.45329 110.955C13.6266 115.807 20.52 118.413 27.5986 118.204H51.7866C53.1586 118.204 54.4786 117.657 55.4533 116.685C56.4266 115.716 56.9733 114.399 56.9733 113.025C56.9733 111.652 56.4266 110.335 55.4533 109.363C54.4786 108.393 53.1586 107.845 51.7866 107.845H27.5986C23.2653 108.044 19.0266 106.523 15.7866 103.617C12.5613 100.708 10.6134 96.6453 10.36 92.3093C10.6134 87.972 12.5613 83.9093 15.7866 81.0013C19.0266 78.0933 23.2653 76.5733 27.5986 76.772C28.9733 76.772 30.2933 76.2253 31.2666 75.2546C32.2399 74.2826 32.7866 72.9653 32.7866 71.5919C32.7866 51.6013 50.6 35.3386 72.5067 35.3386C80.8133 35.1453 88.9733 37.5719 95.8267 42.2759C102.68 46.9799 107.865 53.7213 110.68 61.5453C110.973 62.4826 111.533 63.316 112.281 63.948C113.039 64.58 113.948 64.9866 114.92 65.1186C120.227 65.68 125.159 68.1453 128.787 72.06C132.413 75.9733 134.493 81.0706 134.652 86.404C134.453 92.28 131.933 97.836 127.64 101.853C123.347 105.872 117.64 108.028 111.76 107.845H72.5067C71.1333 107.845 69.8133 108.393 68.8413 109.363C67.8813 110.335 67.3333 111.652 67.3333 113.025C67.3333 114.399 67.8813 115.716 68.8413 116.685C69.8133 117.657 71.1333 118.204 72.5067 118.204H111.76C120.385 118.371 128.72 115.12 134.948 109.161C141.173 103.204 144.8 95.0226 145.013 86.404C144.881 79.1173 142.281 72.0893 137.652 66.4653C133.013 60.8413 126.613 56.9533 119.48 55.4333C115.533 46.2813 108.973 38.504 100.613 33.084C92.2533 27.664 82.4667 24.844 72.5067 24.98C72.0427 24.9666 71.5772 24.9599 71.1146 24.9599C59.6159 24.9586 48.4573 29.0107 39.64 36.4267Z" fill="url(#paint0_linear_1_10)"/>
<path d="M120.573 0.0173286C112 -0.100005 103.587 2.32398 96.4 6.98665C89.2146 11.648 83.5601 18.336 80.1734 26.2066C74.0388 27.5133 65.8801 31.4613 65.8801 31.4613L86.3601 33.5293C86.3601 33.5293 87.492 32.2693 87.7467 31.4613C90.1587 24.7347 94.6268 18.9373 100.52 14.892C106.413 10.8467 113.427 8.75862 120.573 8.92529C139.413 8.92529 154.733 22.9107 154.733 40.104C154.733 41.2853 155.2 42.4173 156.04 43.2533C156.867 44.088 158.001 44.5573 159.187 44.5573C162.92 44.3866 166.573 45.6933 169.347 48.1947C172.12 50.6973 173.8 54.188 174.013 57.9213C173.8 61.6493 172.12 65.1453 169.347 67.644C166.573 70.1453 162.92 71.452 159.187 71.2813H138.385C137.2 71.2813 136.067 71.7507 135.24 72.5867C134.4 73.4213 133.932 74.5547 133.932 75.736C133.932 76.9173 134.4 78.0493 135.24 78.8853C136.067 79.72 137.2 80.1893 138.385 80.1893H159.187C165.28 80.3693 171.2 78.128 175.653 73.9547C180.107 69.7813 182.72 64.016 182.92 57.9213C182.787 52.5533 180.747 47.4093 177.173 43.4C173.6 39.3893 168.733 36.7706 163.413 36.0053C161.92 25.7973 156.733 16.4947 148.84 9.86132C141.253 3.48399 131.656 -5.39227e-06 121.768 -5.39227e-06C121.369 -5.39227e-06 120.972 0.00532859 120.573 0.0173286Z" fill="url(#paint1_linear_1_10)"/>
<defs>
<linearGradient id="paint0_linear_1_10" x1="72.5067" y1="24.96" x2="72.5067" y2="118.216" gradientUnits="userSpaceOnUse">
<stop stop-color="#A1D2FA"/>
<stop offset="1" stop-color="#DCE2F6"/>
</linearGradient>
<linearGradient id="paint1_linear_1_10" x1="124.4" y1="0.000164459" x2="124.4" y2="80.1992" gradientUnits="userSpaceOnUse">
<stop stop-color="#9EA8E1"/>
<stop offset="1" stop-color="#D0D7F1"/>
</linearGradient>
</defs>
</svg>
