<svg width="165" height="123" viewBox="0 0 165 123" fill="none" xmlns="http://www.w3.org/2000/svg">
<path d="M124.492 0.249407C116.797 1.82941 109.776 5.74006 104.381 11.4481C98.9853 17.1561 95.4773 24.3867 94.3333 32.1587C88.524 30.3094 82.4613 29.3854 76.3667 29.4161C49.4747 29.4161 27.1919 47.5 24.2159 70.716C17.8679 71.5454 12.0173 74.5853 7.68526 79.3C3.3546 84.0147 0.822659 90.104 0.533325 96.5C0.939992 103.84 4.23596 110.723 9.70129 115.641C15.1666 120.56 22.356 123.115 29.7 122.749H53.0333C54.58 122.749 56.0639 122.135 57.1573 121.041C58.2519 119.947 58.8653 118.463 58.8653 116.916C58.8653 115.369 58.2519 113.885 57.1573 112.791C56.0639 111.697 54.58 111.083 53.0333 111.083H29.7C25.4547 111.425 21.2466 110.089 17.9733 107.361C14.7013 104.637 12.6293 100.736 12.2 96.5C12.6293 92.2627 14.7013 88.3627 17.9733 85.636C21.2466 82.9094 25.4547 81.5747 29.7 81.9161C31.2467 81.9161 32.7293 81.3014 33.8239 80.2081C34.9186 79.1134 35.5333 77.6294 35.5333 76.0827C35.5333 56.7747 53.8507 41.0827 76.3667 41.0827C84.728 40.7894 92.9787 43.0721 99.9987 47.6214C107.02 52.1694 112.475 58.7654 115.625 66.5161C115.981 67.5587 116.623 68.4787 117.481 69.1694C118.337 69.8614 119.373 70.296 120.465 70.424C125.7 70.784 130.623 73.036 134.316 76.7614C138.009 80.4867 140.22 85.428 140.535 90.6667C140.113 96.4547 137.431 101.844 133.061 105.668C128.692 109.491 122.993 111.436 117.2 111.083H76.3667C74.82 111.083 73.336 111.697 72.2413 112.791C71.148 113.885 70.5333 115.369 70.5333 116.916C70.5333 118.463 71.148 119.947 72.2413 121.041C73.336 122.135 74.82 122.749 76.3667 122.749H117.2C126.091 123.113 134.763 119.943 141.321 113.931C147.88 107.919 151.791 99.5534 152.201 90.6667C152.171 84.36 150.125 78.228 146.368 73.1667C152.821 70.556 158.461 66.2654 162.701 60.7427C163.312 60.0174 163.735 59.156 163.939 58.2307C164.143 57.3067 164.117 56.3454 163.867 55.4334C163.564 54.5414 163.052 53.7347 162.371 53.0867C161.691 52.4361 160.863 51.9601 159.959 51.7001C150.593 49.0001 142.543 42.9627 137.329 34.7294C132.116 26.4947 130.101 16.6347 131.667 7.01739C131.853 6.04939 131.796 5.05206 131.495 4.11472C131.192 3.17739 130.66 2.33206 129.943 1.65606C129.227 0.980064 128.352 0.497426 127.397 0.252093C126.92 0.128093 126.429 0.0667086 125.94 0.0667086C125.453 0.0667086 124.967 0.128074 124.492 0.249407ZM125.775 59.4574C121.592 50.0667 114.493 42.2734 105.535 37.2334C105.627 32.5947 106.937 28.064 109.333 24.092C111.728 20.12 115.124 16.8467 119.183 14.6014C119.364 23.9507 122.109 33.0747 127.119 40.9747C132.127 48.8747 139.209 55.2467 147.593 59.3987C145 61.2627 142.097 62.6454 139.015 63.4827H139.308C138.643 63.6987 138.013 64.0134 137.441 64.4161C133.863 62.1147 129.917 60.4387 125.775 59.4574Z" fill="url(#paint0_linear_1_25)"/>
<path d="M124.492 0.249374C116.797 1.82937 109.776 5.74002 104.381 11.448C98.9853 17.156 95.4773 24.3867 94.3333 32.1587C96.5106 32.8787 101.8 34.9 105.535 37.2333C105.627 32.5947 106.937 28.064 109.333 24.092C111.728 20.12 115.124 16.8467 119.184 14.6013C119.364 23.9507 122.109 33.0747 127.119 40.9747C132.127 48.8747 139.209 55.2467 147.593 59.3987C145.001 61.2627 142.097 62.6454 139.016 63.4827H139.308C138.643 63.6987 138.013 64.0134 137.441 64.416C139.405 65.8947 143.94 69.7134 146.368 73.1667C152.823 70.556 158.461 66.2654 162.701 60.7427C163.312 60.0174 163.735 59.156 163.94 58.2307C164.143 57.3067 164.117 56.3454 163.867 55.4334C163.565 54.5414 163.052 53.7347 162.371 53.0867C161.691 52.436 160.863 51.9601 159.959 51.7001C150.593 49.0001 142.543 42.9627 137.329 34.7294C132.116 26.4947 130.101 16.6347 131.667 7.01736C131.853 6.04936 131.796 5.05202 131.495 4.11469C131.192 3.17736 130.66 2.33203 129.944 1.65603C129.227 0.98003 128.352 0.497393 127.397 0.252059C126.92 0.128059 126.429 0.0666751 125.94 0.0666751C125.453 0.0666751 124.967 0.12804 124.492 0.249374Z" fill="url(#paint1_linear_1_25)"/>
<defs>
<linearGradient id="paint0_linear_1_25" x1="82.3042" y1="0.066616" x2="82.3042" y2="122.784" gradientUnits="userSpaceOnUse">
<stop stop-color="#A1D2FA"/>
<stop offset="1" stop-color="#DCE2F6"/>
</linearGradient>
<linearGradient id="paint1_linear_1_25" x1="129.204" y1="0.0665774" x2="129.204" y2="73.1666" gradientUnits="userSpaceOnUse">
<stop stop-color="#FAFAFC"/>
<stop offset="1" stop-color="#CBD2E7"/>
</linearGradient>
</defs>
</svg>
