<?xml version="1.0" encoding="UTF-8" standalone="no"?>
<!-- Created with Inkscape (http://www.inkscape.org/) -->

<svg
   version="1.1"
   id="svg2"
   width="2133.3333"
   height="1600"
   viewBox="0 0 2133.3333 1600"
   sodipodi:docname="Icons Weather.ai"
   xmlns:inkscape="http://www.inkscape.org/namespaces/inkscape"
   xmlns:sodipodi="http://sodipodi.sourceforge.net/DTD/sodipodi-0.dtd"
   xmlns="http://www.w3.org/2000/svg"
   xmlns:svg="http://www.w3.org/2000/svg">
  <defs
     id="defs6">
    <linearGradient
       x1="0"
       y1="0"
       x2="1"
       y2="0"
       gradientUnits="userSpaceOnUse"
       gradientTransform="matrix(0,-60.149323,60.149323,0,1364.7001,804.79987)"
       spreadMethod="pad"
       id="linearGradient28">
      <stop
         style="stop-opacity:1;stop-color:#9ea8e1"
         offset="0"
         id="stop24" />
      <stop
         style="stop-opacity:1;stop-color:#d0d7f1"
         offset="1"
         id="stop26" />
    </linearGradient>
    <linearGradient
       x1="0"
       y1="0"
       x2="1"
       y2="0"
       gradientUnits="userSpaceOnUse"
       gradientTransform="matrix(0,-69.941658,69.941658,0,1325.78,786.07996)"
       spreadMethod="pad"
       id="linearGradient48">
      <stop
         style="stop-opacity:1;stop-color:#a1d2fa"
         offset="0"
         id="stop44" />
      <stop
         style="stop-opacity:1;stop-color:#dce2f6"
         offset="1"
         id="stop46" />
    </linearGradient>
    <linearGradient
       x1="0"
       y1="0"
       x2="1"
       y2="0"
       gradientUnits="userSpaceOnUse"
       gradientTransform="matrix(0,-122.51854,122.51854,0,799.47498,501.60025)"
       spreadMethod="pad"
       id="linearGradient68">
      <stop
         style="stop-opacity:1;stop-color:#9ea8e1"
         offset="0"
         id="stop64" />
      <stop
         style="stop-opacity:1;stop-color:#d0d7f1"
         offset="1"
         id="stop66" />
    </linearGradient>
    <linearGradient
       x1="0"
       y1="0"
       x2="1"
       y2="0"
       gradientUnits="userSpaceOnUse"
       gradientTransform="matrix(0,-78.751572,78.751572,0,792.84595,457.83328)"
       spreadMethod="pad"
       id="linearGradient88">
      <stop
         style="stop-opacity:1;stop-color:#ffb831"
         offset="0"
         id="stop84" />
      <stop
         style="stop-opacity:1;stop-color:#fada69"
         offset="1"
         id="stop86" />
    </linearGradient>
    <linearGradient
       x1="0"
       y1="0"
       x2="1"
       y2="0"
       gradientUnits="userSpaceOnUse"
       gradientTransform="matrix(0,-92.037827,92.037827,0,799.72821,806.20007)"
       spreadMethod="pad"
       id="linearGradient108">
      <stop
         style="stop-opacity:1;stop-color:#a1d2fa"
         offset="0"
         id="stop104" />
      <stop
         style="stop-opacity:1;stop-color:#dce2f6"
         offset="1"
         id="stop106" />
    </linearGradient>
    <linearGradient
       x1="0"
       y1="0"
       x2="1"
       y2="0"
       gradientUnits="userSpaceOnUse"
       gradientTransform="matrix(0,-54.825001,54.825001,0,834.90326,806.20007)"
       spreadMethod="pad"
       id="linearGradient128">
      <stop
         style="stop-opacity:1;stop-color:#fafafc"
         offset="0"
         id="stop124" />
      <stop
         style="stop-opacity:1;stop-color:#cbd2e7"
         offset="1"
         id="stop126" />
    </linearGradient>
    <linearGradient
       x1="0"
       y1="0"
       x2="1"
       y2="0"
       gradientUnits="userSpaceOnUse"
       gradientTransform="matrix(0,-106.40018,106.40018,0,1069.9351,493.20056)"
       spreadMethod="pad"
       id="linearGradient148">
      <stop
         style="stop-opacity:1;stop-color:#d5dbf3"
         offset="0"
         id="stop144" />
      <stop
         style="stop-opacity:1;stop-color:#a0cff6"
         offset="1"
         id="stop146" />
    </linearGradient>
    <linearGradient
       x1="0"
       y1="0"
       x2="1"
       y2="0"
       gradientUnits="userSpaceOnUse"
       gradientTransform="matrix(0,-17.5,17.5,0,259.64999,821.6001)"
       spreadMethod="pad"
       id="linearGradient168">
      <stop
         style="stop-opacity:1;stop-color:#fac86a"
         offset="0"
         id="stop164" />
      <stop
         style="stop-opacity:1;stop-color:#f1674c"
         offset="1"
         id="stop166" />
    </linearGradient>
    <linearGradient
       x1="0"
       y1="0"
       x2="1"
       y2="0"
       gradientUnits="userSpaceOnUse"
       gradientTransform="matrix(0,-17.5,17.5,0,259.64999,716.6001)"
       spreadMethod="pad"
       id="linearGradient188">
      <stop
         style="stop-opacity:1;stop-color:#fac86a"
         offset="0"
         id="stop184" />
      <stop
         style="stop-opacity:1;stop-color:#f1674c"
         offset="1"
         id="stop186" />
    </linearGradient>
    <linearGradient
       x1="0"
       y1="0"
       x2="1"
       y2="0"
       gradientUnits="userSpaceOnUse"
       gradientTransform="matrix(0,-8.75,8.75,0,207.14999,764.7251)"
       spreadMethod="pad"
       id="linearGradient208">
      <stop
         style="stop-opacity:1;stop-color:#fac86a"
         offset="0"
         id="stop204" />
      <stop
         style="stop-opacity:1;stop-color:#f1674c"
         offset="1"
         id="stop206" />
    </linearGradient>
    <linearGradient
       x1="0"
       y1="0"
       x2="1"
       y2="0"
       gradientUnits="userSpaceOnUse"
       gradientTransform="matrix(0,-8.75,8.75,0,312.14999,764.7251)"
       spreadMethod="pad"
       id="linearGradient228">
      <stop
         style="stop-opacity:1;stop-color:#fac86a"
         offset="0"
         id="stop224" />
      <stop
         style="stop-opacity:1;stop-color:#f1674c"
         offset="1"
         id="stop226" />
    </linearGradient>
    <linearGradient
       x1="0"
       y1="0"
       x2="1"
       y2="0"
       gradientUnits="userSpaceOnUse"
       gradientTransform="matrix(0,-78.750046,78.750046,0,259.76968,799.48816)"
       spreadMethod="pad"
       id="linearGradient248">
      <stop
         style="stop-opacity:1;stop-color:#fac86a"
         offset="0"
         id="stop244" />
      <stop
         style="stop-opacity:1;stop-color:#f1674c"
         offset="1"
         id="stop246" />
    </linearGradient>
    <linearGradient
       x1="0"
       y1="0"
       x2="1"
       y2="0"
       gradientUnits="userSpaceOnUse"
       gradientTransform="matrix(0,-15.17928,15.17928,0,296.88922,805.19226)"
       spreadMethod="pad"
       id="linearGradient268">
      <stop
         style="stop-opacity:1;stop-color:#fac86a"
         offset="0"
         id="stop264" />
      <stop
         style="stop-opacity:1;stop-color:#f1674c"
         offset="1"
         id="stop266" />
    </linearGradient>
    <linearGradient
       x1="0"
       y1="0"
       x2="1"
       y2="0"
       gradientUnits="userSpaceOnUse"
       gradientTransform="matrix(0,-14.937042,14.937042,0,222.53549,730.70605)"
       spreadMethod="pad"
       id="linearGradient288">
      <stop
         style="stop-opacity:1;stop-color:#fac86a"
         offset="0"
         id="stop284" />
      <stop
         style="stop-opacity:1;stop-color:#f1674c"
         offset="1"
         id="stop286" />
    </linearGradient>
    <linearGradient
       x1="0"
       y1="0"
       x2="1"
       y2="0"
       gradientUnits="userSpaceOnUse"
       gradientTransform="matrix(0,-14.702393,14.702393,0,222.64934,804.71539)"
       spreadMethod="pad"
       id="linearGradient308">
      <stop
         style="stop-opacity:1;stop-color:#fac86a"
         offset="0"
         id="stop304" />
      <stop
         style="stop-opacity:1;stop-color:#f1674c"
         offset="1"
         id="stop306" />
    </linearGradient>
    <linearGradient
       x1="0"
       y1="0"
       x2="1"
       y2="0"
       gradientUnits="userSpaceOnUse"
       gradientTransform="matrix(0,-14.937042,14.937042,0,296.7645,730.70605)"
       spreadMethod="pad"
       id="linearGradient328">
      <stop
         style="stop-opacity:1;stop-color:#fac86a"
         offset="0"
         id="stop324" />
      <stop
         style="stop-opacity:1;stop-color:#f1674c"
         offset="1"
         id="stop326" />
    </linearGradient>
    <linearGradient
       x1="0"
       y1="0"
       x2="1"
       y2="0"
       gradientUnits="userSpaceOnUse"
       gradientTransform="matrix(0,-83.093155,83.093155,0,1065.275,792.84222)"
       spreadMethod="pad"
       id="linearGradient348">
      <stop
         style="stop-opacity:1;stop-color:#a1d2fa"
         offset="0"
         id="stop344" />
      <stop
         style="stop-opacity:1;stop-color:#dce2f6"
         offset="1"
         id="stop346" />
    </linearGradient>
    <linearGradient
       x1="0"
       y1="0"
       x2="1"
       y2="0"
       gradientUnits="userSpaceOnUse"
       gradientTransform="matrix(0,-38.792183,38.792183,0,1088.9187,792.84222)"
       spreadMethod="pad"
       id="linearGradient368">
      <stop
         style="stop-opacity:1;stop-color:#fac86a"
         offset="0"
         id="stop364" />
      <stop
         style="stop-opacity:1;stop-color:#f1674c"
         offset="1"
         id="stop366" />
    </linearGradient>
    <linearGradient
       x1="0"
       y1="0"
       x2="1"
       y2="0"
       gradientUnits="userSpaceOnUse"
       gradientTransform="matrix(0,-8.75,8.75,0,1124.3351,771.02509)"
       spreadMethod="pad"
       id="linearGradient388">
      <stop
         style="stop-opacity:1;stop-color:#fac86a"
         offset="0"
         id="stop384" />
      <stop
         style="stop-opacity:1;stop-color:#f1674c"
         offset="1"
         id="stop386" />
    </linearGradient>
    <linearGradient
       x1="0"
       y1="0"
       x2="1"
       y2="0"
       gradientUnits="userSpaceOnUse"
       gradientTransform="matrix(0,-13.125,13.125,0,1087.145,810.40009)"
       spreadMethod="pad"
       id="linearGradient408">
      <stop
         style="stop-opacity:1;stop-color:#fac86a"
         offset="0"
         id="stop404" />
      <stop
         style="stop-opacity:1;stop-color:#f1674c"
         offset="1"
         id="stop406" />
    </linearGradient>
    <linearGradient
       x1="0"
       y1="0"
       x2="1"
       y2="0"
       gradientUnits="userSpaceOnUse"
       gradientTransform="matrix(0,-11.640225,11.640225,0,1112.886,798.63428)"
       spreadMethod="pad"
       id="linearGradient428">
      <stop
         style="stop-opacity:1;stop-color:#fac86a"
         offset="0"
         id="stop424" />
      <stop
         style="stop-opacity:1;stop-color:#f1674c"
         offset="1"
         id="stop426" />
    </linearGradient>
    <linearGradient
       x1="0"
       y1="0"
       x2="1"
       y2="0"
       gradientUnits="userSpaceOnUse"
       gradientTransform="matrix(0,-11.581967,11.581967,0,1062.4244,798.6189)"
       spreadMethod="pad"
       id="linearGradient448">
      <stop
         style="stop-opacity:1;stop-color:#fac86a"
         offset="0"
         id="stop444" />
      <stop
         style="stop-opacity:1;stop-color:#f1674c"
         offset="1"
         id="stop446" />
    </linearGradient>
    <linearGradient
       x1="0"
       y1="0"
       x2="1"
       y2="0"
       gradientUnits="userSpaceOnUse"
       gradientTransform="matrix(0,-61.229981,61.229981,0,551.60358,501.60007)"
       spreadMethod="pad"
       id="linearGradient468">
      <stop
         style="stop-opacity:1;stop-color:#7cb1f8"
         offset="0"
         id="stop464" />
      <stop
         style="stop-opacity:1;stop-color:#3495e3"
         offset="1"
         id="stop466" />
    </linearGradient>
    <linearGradient
       x1="0"
       y1="0"
       x2="1"
       y2="0"
       gradientUnits="userSpaceOnUse"
       gradientTransform="matrix(0,-74.454041,74.454041,0,514.44513,453.5751)"
       spreadMethod="pad"
       id="linearGradient488">
      <stop
         style="stop-opacity:1;stop-color:#7cb1f8"
         offset="0"
         id="stop484" />
      <stop
         style="stop-opacity:1;stop-color:#3495e3"
         offset="1"
         id="stop486" />
    </linearGradient>
    <linearGradient
       x1="0"
       y1="0"
       x2="1"
       y2="0"
       gradientUnits="userSpaceOnUse"
       gradientTransform="matrix(0,-26.287168,26.287168,0,507.97824,418.51999)"
       spreadMethod="pad"
       id="linearGradient508">
      <stop
         style="stop-opacity:1;stop-color:#7cb1f8"
         offset="0"
         id="stop504" />
      <stop
         style="stop-opacity:1;stop-color:#3495e3"
         offset="1"
         id="stop506" />
    </linearGradient>
    <linearGradient
       x1="0"
       y1="0"
       x2="1"
       y2="0"
       gradientUnits="userSpaceOnUse"
       gradientTransform="matrix(0,-30.625,30.625,0,1315.36,482.00009)"
       spreadMethod="pad"
       id="linearGradient528">
      <stop
         style="stop-opacity:1;stop-color:#9ea8e1"
         offset="0"
         id="stop524" />
      <stop
         style="stop-opacity:1;stop-color:#d0d7f1"
         offset="1"
         id="stop526" />
    </linearGradient>
    <linearGradient
       x1="0"
       y1="0"
       x2="1"
       y2="0"
       gradientUnits="userSpaceOnUse"
       gradientTransform="matrix(0,-30.625,30.625,0,1366.545,464.50009)"
       spreadMethod="pad"
       id="linearGradient548">
      <stop
         style="stop-opacity:1;stop-color:#9ea8e1"
         offset="0"
         id="stop544" />
      <stop
         style="stop-opacity:1;stop-color:#d0d7f1"
         offset="1"
         id="stop546" />
    </linearGradient>
    <linearGradient
       x1="0"
       y1="0"
       x2="1"
       y2="0"
       gradientUnits="userSpaceOnUse"
       gradientTransform="matrix(0,-8.75,8.75,0,1315.365,442.62509)"
       spreadMethod="pad"
       id="linearGradient568">
      <stop
         style="stop-opacity:1;stop-color:#9ea8e1"
         offset="0"
         id="stop564" />
      <stop
         style="stop-opacity:1;stop-color:#d0d7f1"
         offset="1"
         id="stop566" />
    </linearGradient>
    <linearGradient
       x1="0"
       y1="0"
       x2="1"
       y2="0"
       gradientUnits="userSpaceOnUse"
       gradientTransform="matrix(0,-30.625,30.625,0,1376.785,429.50009)"
       spreadMethod="pad"
       id="linearGradient588">
      <stop
         style="stop-opacity:1;stop-color:#9ea8e1"
         offset="0"
         id="stop584" />
      <stop
         style="stop-opacity:1;stop-color:#d0d7f1"
         offset="1"
         id="stop586" />
    </linearGradient>
    <linearGradient
       x1="0"
       y1="0"
       x2="1"
       y2="0"
       gradientUnits="userSpaceOnUse"
       gradientTransform="matrix(0,-8.75,8.75,0,1315.36,429.50009)"
       spreadMethod="pad"
       id="linearGradient608">
      <stop
         style="stop-opacity:1;stop-color:#9ea8e1"
         offset="0"
         id="stop604" />
      <stop
         style="stop-opacity:1;stop-color:#d0d7f1"
         offset="1"
         id="stop606" />
    </linearGradient>
    <linearGradient
       x1="0"
       y1="0"
       x2="1"
       y2="0"
       gradientUnits="userSpaceOnUse"
       gradientTransform="matrix(0,-8.75,8.75,0,1323.55,412.00009)"
       spreadMethod="pad"
       id="linearGradient628">
      <stop
         style="stop-opacity:1;stop-color:#9ea8e1"
         offset="0"
         id="stop624" />
      <stop
         style="stop-opacity:1;stop-color:#d0d7f1"
         offset="1"
         id="stop626" />
    </linearGradient>
    <linearGradient
       x1="0"
       y1="0"
       x2="1"
       y2="0"
       gradientUnits="userSpaceOnUse"
       gradientTransform="matrix(0,-8.75,8.75,0,1290.79,412.00009)"
       spreadMethod="pad"
       id="linearGradient648">
      <stop
         style="stop-opacity:1;stop-color:#9ea8e1"
         offset="0"
         id="stop644" />
      <stop
         style="stop-opacity:1;stop-color:#d0d7f1"
         offset="1"
         id="stop646" />
    </linearGradient>
    <linearGradient
       x1="0"
       y1="0"
       x2="1"
       y2="0"
       gradientUnits="userSpaceOnUse"
       gradientTransform="matrix(0,-70.60437,70.60437,0,259.92999,501.60028)"
       spreadMethod="pad"
       id="linearGradient668">
      <stop
         style="stop-opacity:1;stop-color:#9ea8e1"
         offset="0"
         id="stop664" />
      <stop
         style="stop-opacity:1;stop-color:#d0d7f1"
         offset="1"
         id="stop666" />
    </linearGradient>
    <linearGradient
       x1="0"
       y1="0"
       x2="1"
       y2="0"
       gradientUnits="userSpaceOnUse"
       gradientTransform="matrix(0,-35.282043,35.282043,0,224.65031,413.38211)"
       spreadMethod="pad"
       id="linearGradient688">
      <stop
         style="stop-opacity:1;stop-color:#7cb1f8"
         offset="0"
         id="stop684" />
      <stop
         style="stop-opacity:1;stop-color:#3495e3"
         offset="1"
         id="stop686" />
    </linearGradient>
    <linearGradient
       x1="0"
       y1="0"
       x2="1"
       y2="0"
       gradientUnits="userSpaceOnUse"
       gradientTransform="matrix(0,-35.282043,35.282043,0,295.12781,413.38211)"
       spreadMethod="pad"
       id="linearGradient708">
      <stop
         style="stop-opacity:1;stop-color:#7cb1f8"
         offset="0"
         id="stop704" />
      <stop
         style="stop-opacity:1;stop-color:#3495e3"
         offset="1"
         id="stop706" />
    </linearGradient>
    <linearGradient
       x1="0"
       y1="0"
       x2="1"
       y2="0"
       gradientUnits="userSpaceOnUse"
       gradientTransform="matrix(0,-35.281982,35.281982,0,259.93008,422.20309)"
       spreadMethod="pad"
       id="linearGradient728">
      <stop
         style="stop-opacity:1;stop-color:#7cb1f8"
         offset="0"
         id="stop724" />
      <stop
         style="stop-opacity:1;stop-color:#3495e3"
         offset="1"
         id="stop726" />
    </linearGradient>
    <linearGradient
       x1="0"
       y1="0"
       x2="1"
       y2="0"
       gradientUnits="userSpaceOnUse"
       gradientTransform="matrix(0,-96.185936,96.185936,0,530.47528,807.59985)"
       spreadMethod="pad"
       id="linearGradient748">
      <stop
         style="stop-opacity:1;stop-color:#fafafc"
         offset="0"
         id="stop744" />
      <stop
         style="stop-opacity:1;stop-color:#cbd2e7"
         offset="1"
         id="stop746" />
    </linearGradient>
  </defs>
  <sodipodi:namedview
     id="namedview4"
     pagecolor="#ffffff"
     bordercolor="#000000"
     borderopacity="0.25"
     inkscape:showpageshadow="2"
     inkscape:pageopacity="0.0"
     inkscape:pagecheckerboard="0"
     inkscape:deskcolor="#d1d1d1" />
  <g
     id="g8"
     inkscape:groupmode="layer"
     inkscape:label="Icons Weather"
     transform="matrix(1.3333333,0,0,-1.3333333,0,1600)">
    <path
       d="M 0,0 H 1600 V 1200 H 0 Z"
       style="fill:#171717;fill-opacity:1;fill-rule:nonzero;stroke:none"
       id="path10" />
    <g
       id="g12">
      <g
         id="g14">
        <g
           id="g20">
          <g
             id="g22">
            <path
               d="m 1361.83,804.787 c -6.43,0.088 -12.74,-1.73 -18.13,-5.227 v 0 c -5.389,-3.496 -9.63,-8.512 -12.17,-14.415 v 0 c -4.601,-0.98 -10.72,-3.941 -10.72,-3.941 v 0 l 15.36,-1.551 c 0,0 0.849,0.945 1.04,1.551 v 0 c 1.809,5.045 5.16,9.393 9.58,12.427 v 0 c 4.42,3.034 9.68,4.6 15.04,4.475 v 0 c 14.13,0 25.62,-10.489 25.62,-23.384 v 0 c 0,-0.886 0.35,-1.735 0.98,-2.362 v 0 c 0.62,-0.626 1.471,-0.978 2.36,-0.978 v 0 c 2.8,0.128 5.54,-0.852 7.62,-2.728 v 0 c 2.08,-1.877 3.34,-4.495 3.5,-7.295 v 0 c -0.16,-2.796 -1.42,-5.418 -3.5,-7.292 v 0 c -2.08,-1.876 -4.82,-2.856 -7.62,-2.728 v 0 h -15.601 c -0.889,0 -1.739,-0.352 -2.359,-0.979 v 0 c -0.63,-0.626 -0.981,-1.476 -0.981,-2.362 v 0 c 0,-0.886 0.351,-1.735 0.981,-2.362 v 0 c 0.62,-0.626 1.47,-0.978 2.359,-0.978 v 0 h 15.601 c 4.57,-0.135 9.01,1.546 12.35,4.676 v 0 c 3.34,3.13 5.3,7.454 5.45,12.025 v 0 c -0.1,4.026 -1.63,7.884 -4.31,10.891 v 0 c -2.68,3.008 -6.33,4.972 -10.32,5.546 v 0 c -1.12,7.656 -5.01,14.633 -10.93,19.608 v 0 c -5.69,4.783 -12.888,7.396 -20.304,7.396 v 0 c -0.299,0 -0.597,-0.004 -0.896,-0.013"
               style="fill:url(#linearGradient28);stroke:none"
               id="path30" />
          </g>
        </g>
      </g>
    </g>
    <g
       id="g32">
      <g
         id="g34">
        <g
           id="g40">
          <g
             id="g42">
            <path
               d="m 1301.13,777.48 c -6.89,-5.785 -11.42,-13.899 -12.72,-22.801 v 0 c -4.63,-0.667 -8.88,-2.951 -11.99,-6.448 v 0 c -3.12,-3.497 -4.89,-7.982 -5.02,-12.663 v 0 c 0.18,-5.316 2.46,-10.344 6.34,-13.984 v 0 c 3.88,-3.639 9.05,-5.594 14.359,-5.437 v 0 h 18.141 c 1.029,0 2.019,0.41 2.75,1.139 v 0 c 0.73,0.727 1.14,1.715 1.14,2.745 v 0 c 0,1.03 -0.41,2.018 -1.14,2.747 v 0 c -0.731,0.727 -1.721,1.138 -2.75,1.138 v 0 h -18.141 c -3.25,-0.149 -6.429,0.992 -8.859,3.171 v 0 c -2.419,2.182 -3.88,5.229 -4.07,8.481 v 0 c 0.19,3.253 1.651,6.3 4.07,8.481 v 0 c 2.43,2.181 5.609,3.321 8.859,3.172 v 0 c 1.031,0 2.021,0.41 2.751,1.138 v 0 c 0.73,0.729 1.14,1.717 1.14,2.747 v 0 c 0,14.993 13.36,27.19 29.79,27.19 v 0 c 6.23,0.145 12.35,-1.675 17.49,-5.203 v 0 c 5.14,-3.528 9.029,-8.584 11.14,-14.452 v 0 c 0.22,-0.703 0.64,-1.328 1.201,-1.802 v 0 c 0.568,-0.474 1.25,-0.779 1.979,-0.878 v 0 c 3.98,-0.421 7.679,-2.27 10.4,-5.206 v 0 c 2.72,-2.935 4.28,-6.758 4.399,-10.758 v 0 c -0.149,-4.407 -2.039,-8.574 -5.259,-11.587 v 0 c -3.22,-3.014 -7.5,-4.631 -11.91,-4.494 v 0 h -29.44 c -1.03,0 -2.02,-0.411 -2.749,-1.138 v 0 c -0.72,-0.729 -1.131,-1.717 -1.131,-2.747 v 0 c 0,-1.03 0.411,-2.018 1.131,-2.745 v 0 c 0.729,-0.729 1.719,-1.139 2.749,-1.139 v 0 h 29.44 c 6.469,-0.125 12.72,2.313 17.391,6.782 v 0 c 4.669,4.468 7.389,10.604 7.549,17.068 v 0 c -0.099,5.465 -2.049,10.736 -5.521,14.954 v 0 c -3.479,4.218 -8.279,7.134 -13.629,8.274 v 0 c -2.96,6.864 -7.88,12.697 -14.15,16.762 v 0 c -6.27,4.065 -13.61,6.18 -21.08,6.078 v 0 c -0.348,0.01 -0.697,0.015 -1.044,0.015 v 0 c -8.624,10e-4 -16.993,-3.038 -23.606,-8.6"
               style="fill:url(#linearGradient48);stroke:none"
               id="path50" />
          </g>
        </g>
      </g>
    </g>
    <g
       id="g52">
      <g
         id="g54">
        <g
           id="g60">
          <g
             id="g62">
            <path
               d="m 799.475,501.582 c -20.169,0 -36.882,-13.563 -39.112,-30.975 v 0 c -4.761,-0.622 -9.151,-2.902 -12.399,-6.438 v 0 c -3.248,-3.536 -5.147,-8.102 -5.364,-12.9 v 0 c 0.305,-5.505 2.778,-10.668 6.876,-14.356 v 0 c 4.099,-3.689 9.492,-5.605 14.999,-5.331 v 0 h 8.181 l -3.806,-16.8 c -0.139,-0.646 -0.13,-1.315 0.027,-1.956 v 0 c 0.157,-0.643 0.457,-1.242 0.878,-1.751 v 0 c 0.421,-0.509 0.952,-0.917 1.553,-1.192 v 0 c 0.601,-0.273 1.256,-0.41 1.917,-0.395 v 0 h 7.963 L 777.6,384.07 c -0.138,-0.972 0.054,-1.962 0.546,-2.811 v 0 c 0.493,-0.849 1.255,-1.508 2.167,-1.871 v 0 c 0.529,-0.209 1.093,-0.312 1.662,-0.306 v 0 c 0.705,0.001 1.4,0.173 2.025,0.5 v 0 c 0.624,0.328 1.161,0.802 1.563,1.381 v 0 l 30.624,43.75 c 0.433,0.638 0.688,1.378 0.742,2.147 v 0 c 0.053,0.768 -0.097,1.537 -0.435,2.228 v 0 c -0.351,0.739 -0.902,1.363 -1.591,1.804 v 0 c -0.688,0.44 -1.486,0.68 -2.304,0.69 v 0 h -11.461 l 6.693,20.519 c 0.211,0.642 0.268,1.325 0.171,1.994 v 0 c -0.098,0.669 -0.35,1.307 -0.736,1.862 v 0 c -0.386,0.555 -0.895,1.013 -1.488,1.339 v 0 c -0.592,0.325 -1.252,0.509 -1.929,0.536 v 0 h -21.874 c -1.011,0.026 -2,-0.302 -2.798,-0.924 v 0 c -0.797,-0.622 -1.355,-1.502 -1.577,-2.489 v 0 l -3.019,-14.087 h -10.106 c -3.184,-0.256 -6.341,0.745 -8.795,2.79 v 0 c -2.454,2.044 -4.008,4.97 -4.33,8.147 v 0 c 0.322,3.178 1.876,6.103 4.33,8.148 v 0 c 2.454,2.045 5.611,3.047 8.795,2.79 v 0 c 1.159,0 2.273,0.461 3.094,1.281 v 0 c 0.82,0.821 1.281,1.934 1.281,3.094 v 0 c 0,14.482 13.738,26.25 30.625,26.25 v 0 c 6.271,0.219 12.457,-1.492 17.724,-4.904 v 0 c 5.266,-3.411 9.356,-8.358 11.72,-14.171 v 0 c 0.266,-0.783 0.749,-1.472 1.391,-1.99 v 0 c 0.644,-0.519 1.42,-0.845 2.239,-0.941 v 0 c 3.925,-0.27 7.619,-1.958 10.388,-4.753 v 0 c 2.77,-2.793 4.428,-6.501 4.662,-10.429 v 0 c -0.313,-4.341 -2.327,-8.385 -5.603,-11.251 v 0 c -3.276,-2.867 -7.551,-4.325 -11.896,-4.061 v 0 h -4.375 c -1.159,0 -2.273,-0.461 -3.094,-1.281 v 0 c -0.82,-0.821 -1.281,-1.934 -1.281,-3.094 v 0 c 0,-1.16 0.461,-2.273 1.281,-3.094 v 0 c 0.821,-0.82 1.935,-1.281 3.094,-1.281 v 0 h 4.375 c 6.668,-0.273 13.171,2.105 18.091,6.615 v 0 c 4.919,4.509 7.852,10.782 8.159,17.447 v 0 c -0.191,5.603 -2.282,10.974 -5.933,15.227 v 0 c -3.65,4.255 -8.64,7.139 -14.149,8.18 v 0 c -3.274,6.928 -8.5,12.75 -15.034,16.753 v 0 c -6.195,3.793 -13.311,5.796 -20.557,5.796 v 0 c -0.401,0 -0.801,-0.006 -1.202,-0.018 m -14,-52.5 h 12.163 l -6.695,-20.518 c -0.213,-0.656 -0.27,-1.355 -0.161,-2.037 v 0 c 0.107,-0.682 0.374,-1.328 0.78,-1.888 v 0 c 0.405,-0.559 0.937,-1.015 1.552,-1.329 v 0 c 0.615,-0.314 1.296,-0.478 1.986,-0.478 v 0 h 9.1 l -15.312,-21.875 1.837,12.512 c 0.088,0.625 0.039,1.261 -0.142,1.865 v 0 c -0.181,0.605 -0.491,1.163 -0.909,1.635 v 0 c -0.415,0.474 -0.925,0.851 -1.499,1.107 v 0 c -0.574,0.256 -1.196,0.386 -1.825,0.381 v 0 h -7.569 z"
               style="fill:url(#linearGradient68);stroke:none"
               id="path70" />
          </g>
        </g>
      </g>
    </g>
    <g
       id="g72">
      <g
         id="g74">
        <g
           id="g80">
          <g
             id="g82">
            <path
               d="m 779.178,456.908 c -0.798,-0.622 -1.356,-1.502 -1.578,-2.489 v 0 l -4.944,-22.837 -3.806,-16.8 c -0.139,-0.646 -0.129,-1.316 0.027,-1.957 v 0 c 0.157,-0.643 0.457,-1.241 0.878,-1.75 v 0 c 0.421,-0.509 0.952,-0.917 1.553,-1.192 v 0 c 0.601,-0.274 1.257,-0.41 1.917,-0.395 v 0 h 7.963 L 777.6,384.07 c -0.138,-0.972 0.054,-1.962 0.546,-2.811 v 0 c 0.493,-0.849 1.255,-1.508 2.167,-1.871 v 0 c 0.529,-0.209 1.093,-0.312 1.662,-0.306 v 0 c 0.706,0.001 1.4,0.173 2.025,0.5 v 0 c 0.624,0.328 1.161,0.801 1.563,1.381 v 0 l 30.624,43.75 c 0.433,0.638 0.688,1.378 0.742,2.146 v 0 c 0.053,0.768 -0.097,1.537 -0.435,2.229 v 0 c -0.351,0.739 -0.902,1.363 -1.591,1.802 v 0 c -0.688,0.442 -1.486,0.682 -2.304,0.692 v 0 h -11.461 l 6.693,20.518 c 0.211,0.643 0.268,1.326 0.171,1.995 v 0 c -0.098,0.669 -0.35,1.307 -0.736,1.861 v 0 c -0.385,0.556 -0.895,1.014 -1.487,1.339 v 0 c -0.593,0.326 -1.253,0.509 -1.93,0.537 v 0 h -21.874 c -0.035,0.001 -0.07,0.001 -0.106,0.001 v 0 c -0.973,0 -1.922,-0.324 -2.691,-0.925 m 18.46,-7.826 -6.695,-20.518 c -0.213,-0.658 -0.27,-1.355 -0.161,-2.038 v 0 c 0.107,-0.682 0.374,-1.329 0.78,-1.888 v 0 c 0.405,-0.559 0.937,-1.014 1.552,-1.328 v 0 c 0.615,-0.314 1.296,-0.478 1.986,-0.478 v 0 h 9.1 l -15.312,-21.875 1.837,12.512 c 0.088,0.625 0.039,1.261 -0.142,1.865 v 0 c -0.181,0.605 -0.491,1.163 -0.909,1.635 v 0 c -0.415,0.473 -0.925,0.851 -1.499,1.106 v 0 c -0.574,0.257 -1.196,0.387 -1.825,0.382 v 0 h -7.569 l 6.694,30.625 z"
               style="fill:url(#linearGradient88);stroke:none"
               id="path90" />
          </g>
        </g>
      </g>
    </g>
    <g
       id="g92">
      <g
         id="g94">
        <g
           id="g100">
          <g
             id="g102">
            <path
               d="m 831.369,806.063 c -5.771,-1.185 -11.037,-4.118 -15.083,-8.399 v 0 c -4.047,-4.281 -6.678,-9.704 -7.536,-15.533 v 0 c -4.357,1.387 -8.904,2.08 -13.475,2.057 v 0 c -20.169,0 -36.881,-13.563 -39.113,-30.975 v 0 c -4.761,-0.622 -9.149,-2.902 -12.398,-6.438 v 0 c -3.248,-3.536 -5.147,-8.103 -5.364,-12.9 v 0 c 0.305,-5.505 2.777,-10.667 6.876,-14.356 v 0 c 4.099,-3.689 9.491,-5.605 14.999,-5.331 v 0 h 17.5 c 1.16,0 2.273,0.461 3.093,1.281 v 0 c 0.821,0.821 1.281,1.934 1.281,3.094 v 0 c 0,1.16 -0.46,2.273 -1.281,3.094 v 0 c -0.82,0.82 -1.933,1.281 -3.093,1.281 v 0 h -17.5 c -3.184,-0.257 -6.34,0.745 -8.795,2.791 v 0 c -2.454,2.043 -4.008,4.969 -4.33,8.146 v 0 c 0.322,3.178 1.876,6.103 4.33,8.148 v 0 c 2.455,2.045 5.611,3.046 8.795,2.79 v 0 c 1.16,0 2.272,0.461 3.093,1.281 v 0 c 0.821,0.821 1.282,1.934 1.282,3.094 v 0 c 0,14.481 13.738,26.25 30.625,26.25 v 0 c 6.271,0.22 12.459,-1.492 17.724,-4.904 v 0 c 5.266,-3.411 9.357,-8.358 11.72,-14.171 v 0 c 0.267,-0.782 0.748,-1.472 1.392,-1.99 v 0 c 0.642,-0.519 1.419,-0.845 2.238,-0.941 v 0 c 3.926,-0.27 7.618,-1.959 10.388,-4.753 v 0 c 2.77,-2.794 4.428,-6.5 4.664,-10.429 v 0 c -0.316,-4.341 -2.328,-8.383 -5.605,-11.251 v 0 c -3.277,-2.867 -7.551,-4.326 -11.896,-4.061 v 0 h -30.625 c -1.16,0 -2.273,-0.461 -3.094,-1.281 v 0 c -0.82,-0.821 -1.281,-1.934 -1.281,-3.094 v 0 c 0,-1.16 0.461,-2.273 1.281,-3.094 v 0 c 0.821,-0.82 1.934,-1.281 3.094,-1.281 v 0 H 825.9 c 6.668,-0.273 13.172,2.105 18.091,6.614 v 0 c 4.919,4.509 7.852,10.783 8.16,17.448 v 0 c -0.023,4.73 -1.557,9.329 -4.375,13.125 v 0 c 4.84,1.958 9.07,5.176 12.25,9.318 v 0 c 0.458,0.544 0.775,1.19 0.928,1.884 v 0 c 0.153,0.693 0.134,1.414 -0.054,2.098 v 0 c -0.227,0.669 -0.611,1.274 -1.122,1.76 v 0 c -0.51,0.488 -1.131,0.845 -1.809,1.04 v 0 c -7.024,2.025 -13.062,6.553 -16.972,12.728 v 0 c -3.91,6.176 -5.421,13.571 -4.247,20.784 v 0 c 0.14,0.726 0.097,1.474 -0.129,2.177 v 0 c -0.227,0.703 -0.626,1.337 -1.164,1.844 v 0 c -0.537,0.507 -1.193,0.869 -1.909,1.053 v 0 c -0.358,0.093 -0.726,0.139 -1.093,0.139 v 0 c -0.365,0 -0.73,-0.046 -1.086,-0.137 m 0.962,-44.406 c -3.137,7.043 -8.461,12.888 -15.18,16.668 v 0 c 0.069,3.479 1.052,6.877 2.849,9.856 v 0 c 1.796,2.979 4.343,5.434 7.387,7.118 v 0 c 0.136,-7.012 2.195,-13.855 5.952,-19.78 v 0 c 3.756,-5.925 9.068,-10.704 15.356,-13.818 v 0 c -1.945,-1.398 -4.122,-2.435 -6.434,-3.063 v 0 h 0.22 c -0.499,-0.162 -0.971,-0.398 -1.4,-0.7 v 0 c -2.684,1.726 -5.643,2.983 -8.75,3.719"
               style="fill:url(#linearGradient108);stroke:none"
               id="path110" />
          </g>
        </g>
      </g>
    </g>
    <g
       id="g112">
      <g
         id="g114">
        <g
           id="g120">
          <g
             id="g122">
            <path
               d="m 831.369,806.063 c -5.771,-1.185 -11.037,-4.118 -15.083,-8.399 v 0 c -4.047,-4.281 -6.678,-9.704 -7.536,-15.533 v 0 c 1.633,-0.54 5.6,-2.056 8.401,-3.806 v 0 c 0.069,3.479 1.052,6.877 2.849,9.856 v 0 c 1.796,2.979 4.343,5.434 7.388,7.118 v 0 c 0.135,-7.012 2.194,-13.855 5.951,-19.78 v 0 c 3.756,-5.925 9.068,-10.704 15.356,-13.818 v 0 c -1.944,-1.398 -4.122,-2.435 -6.433,-3.063 v 0 h 0.219 c -0.499,-0.162 -0.971,-0.398 -1.4,-0.7 v 0 c 1.473,-1.109 4.874,-3.973 6.695,-6.563 v 0 c 4.841,1.958 9.07,5.176 12.25,9.318 v 0 c 0.458,0.544 0.775,1.19 0.929,1.884 v 0 c 0.152,0.693 0.133,1.414 -0.055,2.098 v 0 c -0.226,0.669 -0.611,1.274 -1.122,1.76 v 0 c -0.51,0.488 -1.131,0.845 -1.809,1.04 v 0 c -7.024,2.025 -13.062,6.553 -16.972,12.728 v 0 c -3.91,6.176 -5.421,13.571 -4.247,20.784 v 0 c 0.14,0.726 0.097,1.474 -0.129,2.177 v 0 c -0.227,0.703 -0.626,1.337 -1.163,1.844 v 0 c -0.538,0.507 -1.194,0.869 -1.91,1.053 v 0 c -0.358,0.093 -0.726,0.139 -1.093,0.139 v 0 c -0.365,0 -0.73,-0.046 -1.086,-0.137"
               style="fill:url(#linearGradient128);stroke:none"
               id="path130" />
          </g>
        </g>
      </g>
    </g>
    <g
       id="g132">
      <g
         id="g134">
        <g
           id="g140">
          <g
             id="g142">
            <path
               d="m 1091.16,493.131 c -1.09,-0.201 -2.049,-0.826 -2.669,-1.735 v 0 c -0.63,-0.909 -0.871,-2.03 -0.671,-3.115 v 0 l 1.84,-9.826 -3.349,-5.69 -4.102,11.831 c -0.139,0.542 -0.388,1.049 -0.739,1.489 v 0 c -0.35,0.441 -0.781,0.804 -1.281,1.071 v 0 c -0.489,0.264 -1.029,0.425 -1.589,0.471 v 0 c -0.56,0.047 -1.12,-0.022 -1.661,-0.202 v 0 c -0.529,-0.179 -1.019,-0.467 -1.429,-0.843 v 0 c -0.42,-0.377 -0.751,-0.835 -0.98,-1.345 v 0 c -0.231,-0.512 -0.36,-1.065 -0.37,-1.626 v 0 c 0,-0.561 0.1,-1.116 0.32,-1.635 v 0 l 6.3,-18.381 -4.95,-7.653 H 1064 v 0.326 l -5.731,8.474 5.931,17.438 c 0.319,1.048 0.21,2.18 -0.299,3.147 v 0 c -0.511,0.968 -1.392,1.691 -2.441,2.011 v 0 c -1.05,0.322 -2.18,0.212 -3.149,-0.303 v 0 c -0.961,-0.515 -1.691,-1.392 -2.012,-2.439 v 0 l -4.089,-11.585 -3.64,5.362 1.84,9.702 c 0.1,0.539 0.09,1.09 -0.02,1.624 v 0 c -0.121,0.535 -0.34,1.042 -0.65,1.493 v 0 c -0.31,0.45 -0.7,0.835 -1.16,1.133 v 0 c -0.46,0.297 -0.97,0.502 -1.51,0.601 v 0 c -0.54,0.099 -1.09,0.091 -1.62,-0.021 v 0 c -0.54,-0.115 -1.04,-0.332 -1.5,-0.642 v 0 c -0.45,-0.31 -0.83,-0.706 -1.13,-1.164 v 0 c -0.301,-0.46 -0.499,-0.972 -0.6,-1.509 v 0 l -0.94,-7.123 -7.53,1.393 c -0.54,0.101 -1.09,0.096 -1.63,-0.016 v 0 c -0.53,-0.109 -1.04,-0.326 -1.5,-0.634 v 0 c -0.91,-0.622 -1.54,-1.581 -1.74,-2.667 v 0 c -0.21,-1.086 0.021,-2.209 0.64,-3.122 v 0 c 0.631,-0.914 1.59,-1.543 2.669,-1.749 v 0 l 9.741,-1.842 3.65,-5.363 -12.28,0.573 c -1.09,0 -2.13,-0.431 -2.9,-1.199 v 0 c -0.77,-0.767 -1.2,-1.808 -1.2,-2.894 v 0 c 0,-1.085 0.43,-2.127 1.2,-2.895 v 0 c 0.77,-0.768 1.81,-1.2 2.9,-1.2 v 0 l 18.419,-0.858 5.361,-8.147 -3.77,-8.187 h -9.98 l -11.061,14.738 c -0.649,0.868 -1.619,1.442 -2.689,1.596 v 0 c -1.08,0.153 -2.17,-0.126 -3.04,-0.778 v 0 c -0.87,-0.652 -1.44,-1.621 -1.589,-2.695 v 0 c -0.161,-1.076 0.119,-2.169 0.769,-3.035 v 0 l 7.37,-10.071 h -6.51 l -6.96,7 c -0.771,0.769 -1.811,1.203 -2.9,1.203 v 0 c -1.09,0 -2.14,-0.434 -2.91,-1.203 v 0 c -0.77,-0.771 -1.199,-1.817 -1.199,-2.907 v 0 c 0,-1.09 0.429,-2.135 1.199,-2.906 v 0 l 5.32,-5.28 -5.32,-5.282 c -0.38,-0.38 -0.69,-0.833 -0.9,-1.332 v 0 c -0.2,-0.499 -0.31,-1.034 -0.31,-1.574 v 0 c 0,-0.54 0.11,-1.075 0.31,-1.574 v 0 c 0.21,-0.499 0.52,-0.951 0.9,-1.333 v 0 c 0.38,-0.383 0.829,-0.688 1.33,-0.895 v 0 c 0.499,-0.208 1.04,-0.315 1.58,-0.315 v 0 c 0.54,0 1.07,0.107 1.57,0.315 v 0 c 0.5,0.207 0.95,0.512 1.33,0.895 v 0 l 6.96,7 h 6.51 l -7.37,-9.824 c -0.65,-0.869 -0.93,-1.959 -0.769,-3.035 v 0 c 0.149,-1.075 0.719,-2.045 1.589,-2.696 v 0 c 0.71,-0.531 1.57,-0.819 2.46,-0.819 v 0 c 0.63,0 1.26,0.148 1.83,0.432 v 0 c 0.57,0.285 1.06,0.697 1.439,1.207 v 0 l 11.061,14.735 h 10.231 l 4.299,-7.408 -5.41,-7.942 -18.34,-0.779 c -1.08,0 -2.12,-0.43 -2.89,-1.197 v 0 c -0.77,-0.769 -1.201,-1.81 -1.201,-2.896 v 0 c 0,-1.085 0.431,-2.126 1.201,-2.893 v 0 c 0.77,-0.769 1.81,-1.2 2.89,-1.2 v 0 l 12.29,0.573 -3.65,-5.363 -9.7,-1.842 c -1.09,-0.104 -2.09,-0.633 -2.78,-1.474 v 0 c -0.69,-0.84 -1.03,-1.922 -0.92,-3.008 v 0 c 0.101,-1.086 0.631,-2.086 1.47,-2.781 v 0 c 0.84,-0.695 1.92,-1.027 3.01,-0.924 v 0 c 0.24,-0.04 0.49,-0.04 0.741,0 v 0 l 7.359,1.392 1.4,-7.367 c 0.18,-0.947 0.69,-1.799 1.439,-2.405 v 0 c 0.75,-0.607 1.691,-0.93 2.651,-0.912 v 0 h 0.78 c 0.53,0.098 1.031,0.3 1.48,0.595 v 0 c 0.46,0.294 0.84,0.674 1.15,1.119 v 0 c 0.3,0.445 0.519,0.946 0.63,1.474 v 0 c 0.11,0.526 0.11,1.072 0.01,1.601 v 0 l -1.88,9.743 3.971,5.485 4.089,-11.624 c 0.279,-0.814 0.8,-1.521 1.501,-2.02 v 0 c 0.699,-0.5 1.529,-0.767 2.389,-0.765 v 0 c 0.45,0.01 0.889,0.093 1.31,0.247 v 0 c 1.03,0.352 1.87,1.098 2.35,2.073 v 0 c 0.47,0.975 0.54,2.098 0.189,3.123 v 0 l -5.979,17.399 5.241,7.942 h 11.509 l 5.401,-7.942 -5.941,-17.439 c -0.34,-1.015 -0.27,-2.123 0.2,-3.088 v 0 c 0.47,-0.965 1.29,-1.708 2.3,-2.068 v 0 c 0.42,-0.154 0.86,-0.237 1.309,-0.247 v 0 c 0.891,-0.047 1.781,0.201 2.521,0.704 v 0 c 0.729,0.502 1.29,1.232 1.57,2.081 v 0 l 4.1,11.624 3.64,-5.362 -1.84,-9.743 c -0.1,-0.531 -0.1,-1.074 0.01,-1.602 v 0 c 0.111,-0.527 0.331,-1.028 0.631,-1.473 v 0 c 0.31,-0.445 0.69,-0.826 1.149,-1.121 v 0 c 0.451,-0.293 0.951,-0.495 1.48,-0.594 v 0 h 0.78 c 0.961,-0.017 1.901,0.306 2.651,0.913 v 0 c 0.75,0.607 1.26,1.457 1.441,2.403 v 0 l 1.399,7.369 7.32,-1.392 c 0.26,-0.038 0.52,-0.038 0.78,0 v 0 c 1.09,-0.103 2.17,0.229 3.01,0.923 v 0 c 0.841,0.696 1.37,1.696 1.47,2.782 v 0 c 0.11,1.085 -0.22,2.168 -0.92,3.008 v 0 c -0.691,0.842 -1.69,1.371 -2.78,1.474 v 0 l -9.7,1.843 -3.69,5.363 12.28,-0.574 h 0.05 c 1.08,0 2.121,0.431 2.89,1.199 v 0 c 0.77,0.767 1.2,1.809 1.2,2.894 v 0 c 0,1.086 -0.43,2.127 -1.2,2.896 v 0 c -0.769,0.766 -1.81,1.198 -2.89,1.198 v 0 l -18.379,0.859 -5.781,8.432 -0.2,0.247 3.891,6.467 h 10.229 l 11.049,-14.735 c 0.391,-0.51 0.881,-0.922 1.451,-1.207 v 0 c 0.57,-0.284 1.19,-0.432 1.83,-0.432 v 0 c 0.88,0 1.75,0.288 2.46,0.819 v 0 c 0.43,0.323 0.79,0.728 1.06,1.19 v 0 c 0.28,0.462 0.46,0.974 0.53,1.506 v 0 c 0.08,0.532 0.049,1.075 -0.09,1.595 v 0 c -0.13,0.521 -0.36,1.01 -0.69,1.44 v 0 l -7.36,9.824 h 6.5 l 6.96,-7 c 0.38,-0.383 0.84,-0.688 1.34,-0.895 v 0 c 0.49,-0.208 1.03,-0.315 1.571,-0.315 v 0 c 0.539,0 1.079,0.107 1.569,0.315 v 0 c 0.5,0.207 0.959,0.512 1.34,0.895 v 0 c 0.379,0.382 0.681,0.834 0.89,1.333 v 0 c 0.21,0.499 0.32,1.034 0.32,1.574 v 0 c 0,0.54 -0.11,1.075 -0.32,1.574 v 0 c -0.209,0.499 -0.511,0.952 -0.89,1.332 v 0 l -5.33,5.282 5.33,5.28 c 0.77,0.771 1.2,1.816 1.2,2.906 v 0 c 0,1.09 -0.43,2.136 -1.2,2.907 v 0 c -0.77,0.769 -1.82,1.203 -2.909,1.203 v 0 c -1.09,0 -2.142,-0.434 -2.911,-1.203 v 0 l -6.96,-7 h -6.5 l 7.36,9.824 c 0.33,0.43 0.56,0.92 0.69,1.44 v 0 c 0.139,0.521 0.17,1.063 0.09,1.596 v 0 c -0.07,0.531 -0.25,1.044 -0.53,1.506 v 0 c -0.27,0.462 -0.63,0.867 -1.06,1.188 v 0 c -0.44,0.324 -0.92,0.558 -1.45,0.692 v 0 c -0.52,0.133 -1.06,0.163 -1.59,0.087 v 0 c -0.531,-0.076 -1.04,-0.256 -1.51,-0.53 v 0 c -0.46,-0.274 -0.86,-0.637 -1.191,-1.067 v 0 l -11.049,-14.736 h -10.229 c -0.421,-0.015 -0.842,-0.097 -1.231,-0.246 v 0 c -0.87,0.267 -1.81,0.237 -2.66,-0.09 v 0 c -0.859,-0.327 -1.58,-0.929 -2.05,-1.711 v 0 l -5.81,-9.988 h -9.25 l -4.749,8.187 3.809,8.187 h 13.75 c 0.49,0.017 0.97,0.113 1.43,0.286 v 0 h 0.29 c 0.42,0.207 0.8,0.468 1.15,0.778 v 0 c 0.18,0.172 0.35,0.364 0.49,0.573 v 0 l 6.63,10.643 17.48,0.818 c 1.05,0.054 2.04,0.509 2.76,1.27 v 0 c 0.73,0.761 1.13,1.774 1.13,2.825 v 0 c 0,0.555 -0.11,1.104 -0.33,1.615 v 0 c -0.22,0.51 -0.54,0.971 -0.94,1.354 v 0 c -0.41,0.383 -0.88,0.68 -1.4,0.873 v 0 c -0.52,0.195 -1.08,0.279 -1.631,0.251 v 0 l -11.829,-0.532 3.31,5.364 9.62,1.8 c 1.09,0.201 2.05,0.825 2.68,1.734 v 0 c 0.62,0.911 0.861,2.03 0.66,3.117 v 0 c -0.2,1.086 -0.82,2.047 -1.731,2.673 v 0 c -0.909,0.625 -2.028,0.864 -3.119,0.664 v 0 l -7.369,-1.393 -1.391,7.327 c -0.2,1.086 -0.831,2.048 -1.741,2.672 v 0 c -0.69,0.482 -1.517,0.734 -2.353,0.734 v 0 c -0.253,0 -0.506,-0.023 -0.756,-0.069"
               style="fill:url(#linearGradient148);stroke:none"
               id="path150" />
          </g>
        </g>
      </g>
    </g>
    <g
       id="g152">
      <g
         id="g154">
        <g
           id="g160">
          <g
             id="g162">
            <path
               d="m 256.556,820.318 c -0.82,-0.82 -1.281,-1.934 -1.281,-3.093 v 0 -8.75 c 0,-1.16 0.461,-2.273 1.281,-3.093 v 0 c 0.821,-0.821 1.934,-1.282 3.094,-1.282 v 0 c 1.16,0 2.272,0.461 3.093,1.282 v 0 c 0.821,0.82 1.282,1.933 1.282,3.093 v 0 8.75 c 0,1.159 -0.461,2.273 -1.282,3.093 v 0 c -0.821,0.821 -1.933,1.282 -3.093,1.282 v 0 c -1.16,0 -2.273,-0.461 -3.094,-1.282"
               style="fill:url(#linearGradient168);stroke:none"
               id="path170" />
          </g>
        </g>
      </g>
    </g>
    <g
       id="g172">
      <g
         id="g174">
        <g
           id="g180">
          <g
             id="g182">
            <path
               d="m 256.556,715.319 c -0.82,-0.821 -1.281,-1.934 -1.281,-3.094 v 0 -8.75 c 0,-1.16 0.461,-2.272 1.281,-3.093 v 0 c 0.821,-0.821 1.934,-1.282 3.094,-1.282 v 0 c 1.16,0 2.272,0.461 3.093,1.282 v 0 c 0.821,0.821 1.282,1.933 1.282,3.093 v 0 8.75 c 0,1.16 -0.461,2.273 -1.282,3.094 v 0 c -0.821,0.82 -1.933,1.281 -3.093,1.281 v 0 c -1.16,0 -2.273,-0.461 -3.094,-1.281"
               style="fill:url(#linearGradient188);stroke:none"
               id="path190" />
          </g>
        </g>
      </g>
    </g>
    <g
       id="g192">
      <g
         id="g194">
        <g
           id="g200">
          <g
             id="g202">
            <path
               d="m 202.774,764.725 c -1.159,0 -2.272,-0.461 -3.093,-1.281 v 0 C 198.86,762.623 198.4,761.51 198.4,760.35 v 0 c 0,-1.16 0.46,-2.273 1.281,-3.093 v 0 c 0.821,-0.821 1.934,-1.282 3.093,-1.282 v 0 h 8.751 c 1.16,0 2.273,0.461 3.093,1.282 v 0 c 0.821,0.82 1.282,1.933 1.282,3.093 v 0 c 0,1.16 -0.461,2.273 -1.282,3.094 v 0 c -0.82,0.82 -1.933,1.281 -3.093,1.281 v 0 z"
               style="fill:url(#linearGradient208);stroke:none"
               id="path210" />
          </g>
        </g>
      </g>
    </g>
    <g
       id="g212">
      <g
         id="g214">
        <g
           id="g220">
          <g
             id="g222">
            <path
               d="m 307.775,764.725 c -1.159,0 -2.273,-0.461 -3.094,-1.281 v 0 c -0.82,-0.821 -1.281,-1.934 -1.281,-3.094 v 0 c 0,-1.16 0.461,-2.273 1.281,-3.093 v 0 c 0.821,-0.821 1.935,-1.282 3.094,-1.282 v 0 h 8.75 c 1.16,0 2.273,0.461 3.093,1.282 v 0 c 0.821,0.82 1.282,1.933 1.282,3.093 v 0 c 0,1.16 -0.461,2.273 -1.282,3.094 v 0 c -0.82,0.82 -1.933,1.281 -3.093,1.281 v 0 z"
               style="fill:url(#linearGradient228);stroke:none"
               id="path230" />
          </g>
        </g>
      </g>
    </g>
    <g
       id="g232">
      <g
         id="g234">
        <g
           id="g240">
          <g
             id="g242">
            <path
               d="m 245.925,796.974 c -8.763,-3.292 -16.067,-9.597 -20.602,-17.786 v 0 c -4.534,-8.19 -6.003,-17.726 -4.143,-26.901 v 0 c 1.86,-9.174 6.928,-17.385 14.295,-23.161 v 0 c 7.366,-5.775 16.55,-8.738 25.903,-8.355 v 0 c 9.353,0.382 18.264,4.084 25.134,10.442 v 0 c 1.274,1.178 2.472,2.434 3.588,3.762 v 0 c 0.358,0.454 0.624,0.972 0.78,1.528 v 0 c 0.158,0.557 0.202,1.138 0.133,1.711 v 0 c -0.069,0.574 -0.251,1.128 -0.535,1.631 v 0 c -0.285,0.503 -0.666,0.944 -1.122,1.299 v 0 c -0.442,0.368 -0.952,0.646 -1.502,0.817 v 0 c -0.549,0.17 -1.127,0.231 -1.7,0.178 v 0 c -0.573,-0.052 -1.13,-0.218 -1.639,-0.486 v 0 c -0.509,-0.269 -0.96,-0.635 -1.328,-1.078 v 0 c -0.861,-1.029 -1.782,-2.008 -2.756,-2.931 v 0 c -5.338,-4.95 -12.265,-7.836 -19.539,-8.142 v 0 c -7.273,-0.305 -14.418,1.991 -20.152,6.476 v 0 c -5.734,4.485 -9.683,10.865 -11.139,17.999 v 0 c -1.455,7.133 -0.322,14.552 3.196,20.925 v 0 c 3.519,6.373 9.193,11.285 16.004,13.853 v 0 c 6.812,2.569 14.316,2.627 21.167,0.165 v 0 c 6.85,-2.463 12.6,-7.286 16.217,-13.604 v 0 c 3.619,-6.318 4.866,-13.717 3.521,-20.872 v 0 c -0.22,-1.16 0.029,-2.361 0.694,-3.337 v 0 c 0.664,-0.977 1.689,-1.649 2.85,-1.87 v 0 c 1.16,-0.22 2.36,0.03 3.337,0.694 v 0 c 0.976,0.665 1.649,1.69 1.869,2.851 v 0 c 1.743,9.197 0.152,18.714 -4.487,26.844 v 0 c -4.639,8.13 -12.023,14.343 -20.827,17.522 v 0 c -4.322,1.56 -8.849,2.34 -13.373,2.34 v 0 c -4.692,0 -9.383,-0.838 -13.844,-2.514"
               style="fill:url(#linearGradient248);stroke:none"
               id="path250" />
          </g>
        </g>
      </g>
    </g>
    <g
       id="g252">
      <g
         id="g254">
        <g
           id="g260">
          <g
             id="g262">
            <path
               d="m 299.948,805.189 c -0.603,-0.024 -1.194,-0.171 -1.738,-0.434 v 0 c -0.541,-0.262 -1.024,-0.634 -1.416,-1.092 v 0 l -6.213,-6.168 c -0.41,-0.408 -0.735,-0.891 -0.957,-1.425 v 0 c -0.223,-0.533 -0.337,-1.105 -0.337,-1.681 v 0 c 0,-0.579 0.114,-1.152 0.337,-1.684 v 0 c 0.222,-0.533 0.547,-1.017 0.957,-1.424 v 0 c 0.409,-0.405 0.894,-0.726 1.427,-0.944 v 0 c 0.533,-0.217 1.104,-0.328 1.679,-0.324 v 0 c 0.576,-0.004 1.147,0.107 1.68,0.324 v 0 c 0.533,0.218 1.017,0.539 1.427,0.944 v 0 l 6.168,6.214 c 0.458,0.391 0.83,0.874 1.093,1.417 v 0 c 0.263,0.542 0.41,1.134 0.433,1.736 v 0 c 0.024,0.603 -0.078,1.203 -0.298,1.765 v 0 c -0.22,0.562 -0.553,1.071 -0.98,1.498 v 0 c -0.426,0.426 -0.936,0.759 -1.497,0.979 v 0 c -0.509,0.2 -1.051,0.302 -1.596,0.302 v 0 c -0.056,0 -0.112,-10e-4 -0.169,-0.003"
               style="fill:url(#linearGradient268);stroke:none"
               id="path270" />
          </g>
        </g>
      </g>
    </g>
    <g
       id="g272">
      <g
         id="g274">
        <g
           id="g280">
          <g
             id="g282">
            <path
               d="m 222.506,729.419 -6.169,-6.213 c -0.814,-0.818 -1.272,-1.928 -1.272,-3.084 v 0 c 0,-1.156 0.458,-2.265 1.272,-3.084 v 0 c 0.409,-0.406 0.894,-0.727 1.427,-0.944 v 0 c 0.533,-0.218 1.104,-0.328 1.679,-0.325 v 0 c 1.149,0.005 2.249,0.46 3.063,1.269 v 0 l 6.213,6.168 c 0.824,0.824 1.287,1.942 1.287,3.107 v 0 c 0,1.165 -0.463,2.282 -1.287,3.106 v 0 c -0.824,0.824 -1.942,1.287 -3.106,1.287 v 0 c -1.165,0 -2.282,-0.463 -3.107,-1.287"
               style="fill:url(#linearGradient288);stroke:none"
               id="path290" />
          </g>
        </g>
      </g>
    </g>
    <g
       id="g292">
      <g
         id="g294">
        <g
           id="g300">
          <g
             id="g302">
            <path
               d="m 219.492,804.712 c -1.101,-0.042 -2.146,-0.499 -2.925,-1.277 v 0 c -0.779,-0.78 -1.236,-1.825 -1.278,-2.926 v 0 c -0.043,-1.101 0.332,-2.177 1.048,-3.014 v 0 l 6.169,-6.212 c 0.409,-0.406 0.894,-0.727 1.428,-0.945 v 0 c 0.531,-0.218 1.103,-0.328 1.679,-0.325 v 0 c 0.575,-0.003 1.146,0.107 1.679,0.325 v 0 c 0.533,0.218 1.018,0.539 1.427,0.945 v 0 c 0.41,0.406 0.735,0.89 0.957,1.423 v 0 c 0.223,0.533 0.337,1.105 0.337,1.683 v 0 c 0,0.577 -0.114,1.149 -0.337,1.682 v 0 c -0.222,0.533 -0.547,1.017 -0.957,1.424 v 0 l -6.213,6.168 c -0.793,0.679 -1.802,1.052 -2.843,1.052 v 0 c -0.057,0 -0.114,-10e-4 -0.171,-0.003"
               style="fill:url(#linearGradient308);stroke:none"
               id="path310" />
          </g>
        </g>
      </g>
    </g>
    <g
       id="g312">
      <g
         id="g314">
        <g
           id="g320">
          <g
             id="g322">
            <path
               d="m 290.581,729.419 c -0.824,-0.824 -1.287,-1.941 -1.287,-3.106 v 0 c 0,-1.165 0.463,-2.283 1.287,-3.107 v 0 l 6.213,-6.168 c 0.813,-0.809 1.914,-1.264 3.062,-1.269 v 0 c 0.576,-0.003 1.147,0.107 1.68,0.325 v 0 c 0.533,0.217 1.018,0.538 1.426,0.944 v 0 c 0.815,0.819 1.273,1.928 1.273,3.084 v 0 c 0,1.156 -0.458,2.266 -1.273,3.084 v 0 l -6.168,6.213 c -0.824,0.824 -1.942,1.287 -3.107,1.287 v 0 c -1.165,0 -2.282,-0.463 -3.106,-1.287"
               style="fill:url(#linearGradient328);stroke:none"
               id="path330" />
          </g>
        </g>
      </g>
    </g>
    <g
       id="g332">
      <g
         id="g334">
        <g
           id="g340">
          <g
             id="g342">
            <path
               d="m 1078.36,791.331 c -5.86,-2.081 -10.79,-6.177 -13.921,-11.556 v 0 c -19.769,-0.35 -36.05,-13.781 -38.279,-30.932 v 0 c -4.771,-0.623 -9.16,-2.909 -12.41,-6.454 v 0 c -3.25,-3.545 -5.14,-8.123 -5.349,-12.927 v 0 c 0.309,-5.506 2.779,-10.667 6.879,-14.356 v 0 c 4.1,-3.689 9.49,-5.606 14.99,-5.331 v 0 h 43.749 c 1.17,0 2.281,0.461 3.101,1.281 v 0 c 0.819,0.82 1.281,1.933 1.281,3.094 v 0 c 0,1.16 -0.462,2.272 -1.281,3.093 v 0 c -0.82,0.821 -1.931,1.282 -3.101,1.282 v 0 h -43.749 c -3.18,-0.257 -6.34,0.744 -8.79,2.789 v 0 c -2.45,2.045 -4.01,4.97 -4.33,8.148 v 0 c 0.32,3.179 1.88,6.103 4.33,8.148 v 0 c 2.45,2.045 5.61,3.046 8.79,2.79 v 0 c 1.17,0 2.28,0.461 3.1,1.281 v 0 c 0.819,0.82 1.281,1.933 1.281,3.094 v 0 c 0,14.481 13.738,26.25 30.619,26.25 v 0 c 6.27,0.223 12.449,-1.483 17.72,-4.886 v 0 c 5.269,-3.403 9.36,-8.341 11.729,-14.146 v 0 c 0.261,-0.789 0.741,-1.489 1.38,-2.015 v 0 c 0.641,-0.526 1.42,-0.859 2.25,-0.96 v 0 c 1.601,-0.212 3.171,-0.608 4.681,-1.181 v 0 c 2.939,-1.019 5.5,-2.9 7.35,-5.398 v 0 c 1.851,-2.498 2.9,-5.496 3.021,-8.602 v 0 c -0.312,-4.342 -2.33,-8.385 -5.601,-11.251 v 0 c -3.28,-2.867 -7.55,-4.327 -11.9,-4.061 v 0 h -4.381 c -1.159,0 -2.269,-0.461 -3.09,-1.282 v 0 c -0.819,-0.821 -1.278,-1.933 -1.278,-3.093 v 0 c 0,-1.161 0.459,-2.274 1.278,-3.094 v 0 c 0.821,-0.82 1.931,-1.281 3.09,-1.281 v 0 h 4.381 c 6.67,-0.273 13.17,2.105 18.09,6.614 v 0 c 4.92,4.509 7.85,10.782 8.161,17.448 v 0 c -0.071,4.127 -1.212,8.164 -3.321,11.71 v 0 c -2.11,3.545 -5.121,6.478 -8.71,8.503 v 0 c 1.29,2.294 2.22,4.773 2.75,7.35 v 0 c 1.24,6.098 0.26,12.435 -2.75,17.881 v 0 c -3,5.446 -7.85,9.647 -13.66,11.854 v 0 c -3,1.138 -6.157,1.707 -9.316,1.707 v 0 c -2.969,0 -5.94,-0.503 -8.784,-1.511 m 12.461,-19.889 c -4.76,3.692 -10.34,6.189 -16.271,7.283 v 0 c 2.42,2.507 5.53,4.237 8.93,4.967 v 0 c 3.41,0.729 6.95,0.428 10.19,-0.87 v 0 c 3.23,-1.297 5.999,-3.528 7.96,-6.409 v 0 c 1.95,-2.881 3.009,-6.281 3.02,-9.763 v 0 c -0.011,-1.175 -0.12,-2.347 -0.35,-3.5 v 0 c -0.44,-2.01 -1.239,-3.923 -2.361,-5.644 v 0 c -2.539,5.466 -6.349,10.245 -11.118,13.936"
               style="fill:url(#linearGradient348);stroke:none"
               id="path350" />
          </g>
        </g>
      </g>
    </g>
    <g
       id="g352">
      <g
         id="g354">
        <g
           id="g360">
          <g
             id="g362">
            <path
               d="m 1078.36,791.331 c -5.86,-2.081 -10.79,-6.177 -13.921,-11.556 v 0 c 1.741,0.066 6.191,-0.051 10.111,-1.05 v 0 c 2.42,2.507 5.53,4.237 8.93,4.967 v 0 c 3.41,0.729 6.95,0.428 10.19,-0.87 v 0 c 3.23,-1.297 5.999,-3.528 7.96,-6.409 v 0 c 1.95,-2.881 3.009,-6.281 3.02,-9.763 v 0 c -0.011,-1.175 -0.12,-2.347 -0.35,-3.5 v 0 c -0.44,-2.01 -1.239,-3.923 -2.361,-5.644 v 0 c 1.811,-0.569 5.971,-2.056 8.181,-3.456 v 0 c 1.29,2.294 2.22,4.773 2.76,7.35 v 0 c 1.23,6.098 0.25,12.435 -2.76,17.881 v 0 c -3,5.446 -7.85,9.647 -13.66,11.854 v 0 c -3,1.138 -6.157,1.707 -9.316,1.707 v 0 c -2.969,0 -5.94,-0.503 -8.784,-1.511"
               style="fill:url(#linearGradient368);stroke:none"
               id="path370" />
          </g>
        </g>
      </g>
    </g>
    <g
       id="g372">
      <g
         id="g374">
        <g
           id="g380">
          <g
             id="g382">
            <path
               d="m 1122.151,771.025 c -1.161,0 -2.271,-0.461 -3.09,-1.282 v 0 c -0.821,-0.82 -1.292,-1.933 -1.292,-3.093 v 0 c 0,-1.16 0.471,-2.273 1.292,-3.094 v 0 c 0.819,-0.82 1.929,-1.281 3.09,-1.281 v 0 h 4.368 c 1.17,0 2.281,0.461 3.101,1.281 v 0 c 0.82,0.821 1.28,1.934 1.28,3.094 v 0 c 0,1.16 -0.46,2.273 -1.28,3.093 v 0 c -0.82,0.821 -1.931,1.282 -3.101,1.282 v 0 z"
               style="fill:url(#linearGradient388);stroke:none"
               id="path390" />
          </g>
        </g>
      </g>
    </g>
    <g
       id="g392">
      <g
         id="g394">
        <g
           id="g400">
          <g
             id="g402">
            <path
               d="m 1084.061,809.118 c -0.821,-0.82 -1.292,-1.933 -1.292,-3.093 v 0 -4.375 c 0,-1.159 0.471,-2.273 1.292,-3.093 v 0 c 0.819,-0.821 1.929,-1.282 3.09,-1.282 v 0 c 1.16,0 2.269,0.461 3.089,1.282 v 0 c 0.82,0.82 1.279,1.934 1.279,3.093 v 0 4.375 c 0,1.16 -0.459,2.273 -1.279,3.093 v 0 c -0.82,0.821 -1.929,1.282 -3.089,1.282 v 0 c -1.161,0 -2.271,-0.461 -3.09,-1.282"
               style="fill:url(#linearGradient408);stroke:none"
               id="path410" />
          </g>
        </g>
      </g>
    </g>
    <g
       id="g412">
      <g
         id="g414">
        <g
           id="g420">
          <g
             id="g422">
            <path
               d="m 1111.389,797.537 -3.069,-3.15 c -0.589,-0.619 -0.98,-1.397 -1.131,-2.238 v 0 c -0.158,-0.841 -0.059,-1.709 0.281,-2.495 v 0 c 0.33,-0.787 0.89,-1.458 1.6,-1.931 v 0 c 0.71,-0.473 1.55,-0.726 2.399,-0.729 v 0 c 0.581,0.002 1.161,0.119 1.692,0.344 v 0 c 0.529,0.226 1.018,0.555 1.419,0.968 v 0 l 3.06,3.15 c 0.71,0.847 1.07,1.929 1.011,3.031 v 0 c -0.052,1.101 -0.531,2.14 -1.321,2.909 v 0 c -0.79,0.769 -1.839,1.21 -2.94,1.237 v 0 c -0.035,10e-4 -0.069,10e-4 -0.104,10e-4 v 0 c -1.064,0 -2.102,-0.388 -2.897,-1.097"
               style="fill:url(#linearGradient428);stroke:none"
               id="path430" />
          </g>
        </g>
      </g>
    </g>
    <g
       id="g432">
      <g
         id="g434">
        <g
           id="g440">
          <g
             id="g442">
            <path
               d="m 1058.14,797.528 c -0.85,-0.744 -1.381,-1.787 -1.47,-2.911 v 0 c -0.1,-1.123 0.241,-2.24 0.95,-3.118 v 0 l 2.93,-2.975 c 0.401,-0.461 0.9,-0.832 1.46,-1.088 v 0 c 0.561,-0.256 1.16,-0.392 1.78,-0.399 v 0 c 1.08,-0.01 2.121,0.38 2.93,1.094 v 0 c 0.431,0.383 0.79,0.848 1.04,1.369 v 0 c 0.249,0.52 0.401,1.086 0.429,1.664 v 0 c 0.031,0.579 -0.049,1.156 -0.239,1.703 v 0 c -0.19,0.545 -0.49,1.047 -0.879,1.476 v 0 l -2.891,2.931 c -0.78,0.813 -1.84,1.294 -2.97,1.341 v 0 c -0.061,0.002 -0.122,0.004 -0.183,0.004 v 0 c -1.065,0 -2.092,-0.386 -2.887,-1.091"
               style="fill:url(#linearGradient448);stroke:none"
               id="path450" />
          </g>
        </g>
      </g>
    </g>
    <g
       id="g452">
      <g
         id="g454">
        <g
           id="g460">
          <g
             id="g462">
            <path
               d="m 549.068,500.789 c -5.514,-3.85 -10.287,-8.668 -14.086,-14.218 v 0 c -0.375,-0.472 -0.649,-1.016 -0.805,-1.598 v 0 c -0.155,-0.582 -0.188,-1.19 -0.098,-1.786 v 0 c 0.091,-0.596 0.304,-1.167 0.625,-1.676 v 0 c 0.322,-0.509 0.746,-0.946 1.243,-1.286 v 0 c 0.499,-0.338 1.061,-0.57 1.655,-0.68 v 0 c 0.592,-0.111 1.2,-0.098 1.787,0.038 v 0 c 0.588,0.135 1.14,0.391 1.624,0.75 v 0 c 0.484,0.36 0.888,0.814 1.188,1.337 v 0 c 2.627,3.808 5.796,7.213 9.406,10.107 v 0 c 13.561,-10.982 17.85,-25.769 13.869,-33.863 v 0 c -1.334,-2.553 -3.32,-4.707 -5.756,-6.243 v 0 c -2.436,-1.537 -5.235,-2.403 -8.113,-2.507 v 0 c -2.878,0.104 -5.678,0.97 -8.113,2.507 v 0 c -2.436,1.536 -4.422,3.69 -5.757,6.243 v 0 c -1.202,2.611 -1.7,5.493 -1.443,8.356 v 0 c 0.046,0.574 -0.021,1.153 -0.199,1.701 v 0 c -0.177,0.549 -0.461,1.058 -0.835,1.495 v 0 c -0.373,0.439 -0.83,0.799 -1.343,1.062 v 0 c -0.513,0.263 -1.073,0.421 -1.648,0.467 v 0 c -0.574,0.046 -1.152,-0.021 -1.701,-0.199 v 0 c -0.548,-0.177 -1.056,-0.461 -1.495,-0.835 v 0 c -0.438,-0.373 -0.799,-0.83 -1.062,-1.343 v 0 c -0.262,-0.514 -0.421,-1.073 -0.467,-1.649 v 0 c -0.396,-4.422 0.373,-8.873 2.232,-12.905 v 0 c 2.069,-4.045 5.197,-7.454 9.047,-9.865 v 0 c 3.852,-2.411 8.285,-3.735 12.828,-3.829 v 0 c 4.543,0.094 8.975,1.418 12.827,3.829 v 0 c 3.851,2.411 6.978,5.82 9.048,9.865 v 0 c 6.518,13.957 -1.575,34.082 -19.382,46.725 v 0 c -0.741,0.528 -1.628,0.811 -2.537,0.811 v 0 c -0.91,0 -1.797,-0.283 -2.539,-0.811"
               style="fill:url(#linearGradient468);stroke:none"
               id="path470" />
          </g>
        </g>
      </g>
    </g>
    <g
       id="g472">
      <g
         id="g474">
        <g
           id="g480">
          <g
             id="g482">
            <path
               d="m 512.014,452.84 c -22.926,-15.312 -33.995,-40.425 -25.201,-57.224 v 0 c 2.752,-4.93 6.751,-9.045 11.597,-11.942 v 0 c 4.845,-2.894 10.366,-4.465 16.009,-4.553 v 0 c 5.635,0.081 11.149,1.637 15.995,4.516 v 0 c 4.844,2.879 8.848,6.979 11.611,11.89 v 0 c 2.264,4.383 3.306,9.295 3.019,14.22 v 0 c 0,1.16 -0.461,2.271 -1.281,3.092 v 0 c -0.821,0.821 -1.933,1.282 -3.094,1.282 v 0 c -1.16,0 -2.273,-0.461 -3.093,-1.282 v 0 c -0.821,-0.821 -1.282,-1.932 -1.282,-3.092 v 0 c 0.25,-3.443 -0.429,-6.887 -1.968,-9.976 v 0 c -2.007,-3.535 -4.894,-6.492 -8.383,-8.578 v 0 c -3.489,-2.085 -7.46,-3.23 -11.524,-3.322 v 0 c -4.039,0.081 -7.99,1.203 -11.468,3.257 v 0 c -3.48,2.054 -6.371,4.97 -8.394,8.467 v 0 c -5.557,10.631 0.568,30.145 19.862,44.189 v 0 c 6.957,-4.939 12.775,-11.308 17.063,-18.682 v 0 c 0.287,-0.5 0.67,-0.938 1.127,-1.29 v 0 c 0.456,-0.352 0.978,-0.61 1.534,-0.761 v 0 c 0.557,-0.15 1.138,-0.189 1.709,-0.116 v 0 c 0.571,0.075 1.124,0.261 1.623,0.548 v 0 c 0.5,0.287 0.939,0.671 1.291,1.127 v 0 c 0.351,0.457 0.61,0.978 0.76,1.536 v 0 c 0.151,0.556 0.19,1.136 0.116,1.709 v 0 c -0.074,0.571 -0.26,1.122 -0.548,1.621 v 0 c -5.463,9.432 -13.078,17.437 -22.225,23.364 v 0 c -0.719,0.479 -1.564,0.736 -2.428,0.736 v 0 c -0.864,0 -1.709,-0.257 -2.427,-0.736"
               style="fill:url(#linearGradient488);stroke:none"
               id="path490" />
          </g>
        </g>
      </g>
    </g>
    <g
       id="g492">
      <g
         id="g494">
        <g
           id="g500">
          <g
             id="g502">
            <path
               d="m 498.577,417.56 c -0.902,-0.72 -1.482,-1.768 -1.614,-2.915 v 0 c -0.355,-3.025 -0.037,-6.094 0.932,-8.982 v 0 c 0.968,-2.889 2.562,-5.529 4.668,-7.731 v 0 c 3.026,-3.047 6.953,-5.041 11.2,-5.687 v 0 h 0.656 c 1.16,-0.087 2.308,0.291 3.19,1.049 v 0 c 0.882,0.758 1.426,1.838 1.513,2.998 v 0 c 0.087,1.161 -0.29,2.308 -1.049,3.19 v 0 c -0.759,0.882 -1.838,1.427 -2.998,1.513 v 0 c -2.371,0.355 -4.573,1.442 -6.3,3.106 v 0 c -1.164,1.279 -2.042,2.791 -2.578,4.435 v 0 c -0.535,1.644 -0.715,3.384 -0.528,5.103 v 0 c 0.067,0.575 0.019,1.158 -0.141,1.714 v 0 c -0.16,0.556 -0.429,1.076 -0.791,1.527 v 0 c -0.363,0.452 -0.811,0.827 -1.319,1.105 v 0 c -0.509,0.277 -1.067,0.449 -1.643,0.51 v 0 c -0.155,0.017 -0.31,0.025 -0.464,0.025 v 0 c -0.99,0 -1.954,-0.335 -2.734,-0.96"
               style="fill:url(#linearGradient508);stroke:none"
               id="path510" />
          </g>
        </g>
      </g>
    </g>
    <g
       id="g512">
      <g
         id="g514">
        <g
           id="g520">
          <g
             id="g522">
            <path
               d="m 1327.65,482 c -1.09,0 -2.131,-0.461 -2.9,-1.281 v 0 c -0.77,-0.82 -1.2,-1.933 -1.2,-3.094 v 0 c 0,-1.16 0.43,-2.274 1.2,-3.094 v 0 c 0.769,-0.82 1.81,-1.281 2.9,-1.281 v 0 h 6.14 c 1.63,0 3.191,-0.691 4.34,-1.922 v 0 c 1.15,-1.231 1.8,-2.901 1.8,-4.639 v 0 c 0,-1.742 -0.65,-3.41 -1.8,-4.642 v 0 c -1.149,-1.231 -2.71,-1.922 -4.34,-1.922 v 0 h -47.09 c -1.09,0 -2.13,-0.461 -2.9,-1.282 v 0 c -0.77,-0.82 -1.2,-1.933 -1.2,-3.093 v 0 c 0,-1.16 0.43,-2.273 1.2,-3.094 v 0 c 0.77,-0.82 1.81,-1.281 2.9,-1.281 v 0 h 47.09 c 3.8,0 7.44,1.613 10.13,4.486 v 0 c 2.691,2.872 4.2,6.765 4.2,10.828 v 0 c 0,4.06 -1.509,7.954 -4.2,10.826 v 0 c -2.69,2.872 -6.33,4.485 -10.13,4.485 v 0 z"
               style="fill:url(#linearGradient528);stroke:none"
               id="path530" />
          </g>
        </g>
      </g>
    </g>
    <g
       id="g532">
      <g
         id="g534">
        <g
           id="g540">
          <g
             id="g542">
            <path
               d="m 1376.78,464.5 c -1.08,0 -2.12,-0.461 -2.89,-1.281 v 0 c -0.77,-0.821 -1.201,-1.934 -1.201,-3.094 v 0 c 0,-1.16 0.431,-2.273 1.201,-3.093 v 0 c 0.77,-0.821 1.81,-1.282 2.89,-1.282 v 0 h 6.15 c 1.631,0 3.19,-0.691 4.34,-1.921 v 0 c 1.15,-1.233 1.8,-2.901 1.8,-4.641 v 0 c 0,-1.74 -0.65,-3.41 -1.8,-4.641 v 0 c -1.15,-1.23 -2.709,-1.922 -4.34,-1.922 v 0 h -43 c -1.09,0 -2.13,-0.461 -2.9,-1.281 v 0 c -0.76,-0.82 -1.2,-1.933 -1.2,-3.094 v 0 c 0,-1.16 0.44,-2.274 1.2,-3.094 v 0 c 0.77,-0.82 1.81,-1.281 2.9,-1.281 v 0 h 43 c 3.801,0 7.44,1.613 10.13,4.485 v 0 c 2.69,2.872 4.2,6.766 4.2,10.828 v 0 c 0,4.061 -1.51,7.954 -4.2,10.826 v 0 c -2.69,2.873 -6.329,4.486 -10.13,4.486 v 0 z"
               style="fill:url(#linearGradient548);stroke:none"
               id="path550" />
          </g>
        </g>
      </g>
    </g>
    <g
       id="g552">
      <g
         id="g554">
        <g
           id="g560">
          <g
             id="g562">
            <path
               d="m 1307.17,442.625 c -1.09,0 -2.13,-0.461 -2.901,-1.281 v 0 c -0.759,-0.82 -1.189,-1.933 -1.189,-3.094 v 0 c 0,-1.16 0.43,-2.274 1.189,-3.094 v 0 c 0.771,-0.82 1.811,-1.281 2.901,-1.281 v 0 h 16.38 c 1.09,0 2.129,0.461 2.901,1.281 v 0 c 0.759,0.82 1.199,1.934 1.199,3.094 v 0 c 0,1.161 -0.44,2.274 -1.199,3.094 v 0 c -0.772,0.82 -1.811,1.281 -2.901,1.281 v 0 z"
               style="fill:url(#linearGradient568);stroke:none"
               id="path570" />
          </g>
        </g>
      </g>
    </g>
    <g
       id="g572">
      <g
         id="g574">
        <g
           id="g580">
          <g
             id="g582">
            <path
               d="m 1360.41,429.5 c -1.09,0 -2.13,-0.461 -2.9,-1.281 v 0 c -0.77,-0.821 -1.199,-1.934 -1.199,-3.094 v 0 c 0,-1.16 0.429,-2.273 1.199,-3.093 v 0 c 0.77,-0.821 1.81,-1.282 2.9,-1.282 v 0 h 22.52 c 1.631,0 3.19,-0.691 4.34,-1.922 v 0 c 1.15,-1.232 1.8,-2.9 1.8,-4.639 v 0 c 0,-1.741 -0.65,-3.411 -1.8,-4.642 v 0 c -1.15,-1.231 -2.709,-1.922 -4.34,-1.922 v 0 h -6.14 c -1.09,0 -2.13,-0.461 -2.9,-1.281 v 0 c -0.77,-0.82 -1.201,-1.934 -1.201,-3.094 v 0 c 0,-1.16 0.431,-2.273 1.201,-3.094 v 0 c 0.77,-0.82 1.81,-1.281 2.9,-1.281 v 0 h 6.14 c 3.801,0 7.44,1.613 10.13,4.485 v 0 c 2.69,2.872 4.2,6.766 4.2,10.829 v 0 c 0,4.06 -1.51,7.953 -4.2,10.826 v 0 c -2.69,2.872 -6.329,4.485 -10.13,4.485 v 0 z"
               style="fill:url(#linearGradient588);stroke:none"
               id="path590" />
          </g>
        </g>
      </g>
    </g>
    <g
       id="g592">
      <g
         id="g594">
        <g
           id="g600">
          <g
             id="g602">
            <path
               d="m 1286.7,429.5 c -1.09,0 -2.13,-0.461 -2.9,-1.281 v 0 c -0.77,-0.821 -1.2,-1.934 -1.2,-3.094 v 0 c 0,-1.16 0.43,-2.273 1.2,-3.093 v 0 c 0.77,-0.821 1.81,-1.282 2.9,-1.282 v 0 h 57.33 c 1.08,0 2.121,0.461 2.89,1.282 v 0 c 0.77,0.82 1.2,1.933 1.2,3.093 v 0 c 0,1.16 -0.43,2.273 -1.2,3.094 v 0 c -0.769,0.82 -1.81,1.281 -2.89,1.281 v 0 z"
               style="fill:url(#linearGradient608);stroke:none"
               id="path610" />
          </g>
        </g>
      </g>
    </g>
    <g
       id="g612">
      <g
         id="g614">
        <g
           id="g620">
          <g
             id="g622">
            <path
               d="m 1311.26,412 c -1.081,0 -2.12,-0.461 -2.89,-1.281 v 0 c -0.771,-0.82 -1.2,-1.934 -1.2,-3.094 v 0 c 0,-1.16 0.429,-2.273 1.2,-3.094 v 0 c 0.77,-0.82 1.809,-1.281 2.89,-1.281 v 0 h 24.57 c 1.09,0 2.13,0.461 2.9,1.281 v 0 c 0.77,0.821 1.2,1.934 1.2,3.094 v 0 c 0,1.16 -0.43,2.274 -1.2,3.094 v 0 c -0.77,0.82 -1.81,1.281 -2.9,1.281 v 0 z"
               style="fill:url(#linearGradient628);stroke:none"
               id="path630" />
          </g>
        </g>
      </g>
    </g>
    <g
       id="g632">
      <g
         id="g634">
        <g
           id="g640">
          <g
             id="g642">
            <path
               d="m 1286.7,412 c -1.09,0 -2.13,-0.461 -2.9,-1.281 v 0 c -0.77,-0.82 -1.2,-1.934 -1.2,-3.094 v 0 c 0,-1.16 0.43,-2.273 1.2,-3.094 v 0 c 0.77,-0.82 1.81,-1.281 2.9,-1.281 v 0 h 8.189 c 1.08,0 2.121,0.461 2.891,1.281 v 0 c 0.77,0.821 1.201,1.934 1.201,3.094 v 0 c 0,1.16 -0.431,2.274 -1.201,3.094 v 0 c -0.77,0.82 -1.811,1.281 -2.891,1.281 v 0 z"
               style="fill:url(#linearGradient648);stroke:none"
               id="path650" />
          </g>
        </g>
      </g>
    </g>
    <g
       id="g652">
      <g
         id="g654">
        <g
           id="g660">
          <g
             id="g662">
            <path
               d="m 259.93,501.582 c -20.33,0 -37.176,-13.67 -39.425,-31.222 v 0 c -4.799,-0.628 -9.224,-2.926 -12.498,-6.49 v 0 c -3.274,-3.565 -5.189,-8.168 -5.407,-13.002 v 0 c 0.309,-5.551 2.8,-10.754 6.931,-14.472 v 0 c 4.132,-3.719 9.567,-5.651 15.119,-5.373 v 0 h 17.64 c 1.17,0 2.291,0.463 3.118,1.29 v 0 c 0.827,0.827 1.292,1.949 1.292,3.119 v 0 c 0,1.169 -0.465,2.291 -1.292,3.118 v 0 c -0.827,0.827 -1.948,1.292 -3.118,1.292 v 0 h -17.64 c -3.21,-0.259 -6.392,0.751 -8.865,2.812 v 0 c -2.474,2.061 -4.041,5.01 -4.365,8.214 v 0 c 0.324,3.203 1.891,6.15 4.365,8.212 v 0 c 2.473,2.061 5.655,3.072 8.865,2.812 v 0 c 1.17,0 2.291,0.464 3.118,1.29 v 0 c 0.828,0.829 1.292,1.95 1.292,3.12 v 0 c 0,14.598 13.848,26.46 30.87,26.46 v 0 c 6.321,0.221 12.558,-1.504 17.866,-4.942 v 0 c 5.308,-3.44 9.432,-8.426 11.813,-14.286 v 0 c 0.269,-0.787 0.756,-1.483 1.404,-2.006 v 0 c 0.647,-0.523 1.43,-0.852 2.257,-0.948 v 0 c 3.956,-0.272 7.678,-1.975 10.47,-4.792 v 0 c 2.792,-2.816 4.463,-6.552 4.7,-10.51 v 0 c -0.317,-4.377 -2.347,-8.452 -5.649,-11.343 v 0 c -3.302,-2.889 -7.611,-4.36 -11.991,-4.093 v 0 h -30.87 c -1.17,0 -2.291,-0.465 -3.118,-1.292 v 0 c -0.827,-0.827 -1.292,-1.949 -1.292,-3.118 v 0 c 0,-1.17 0.465,-2.292 1.292,-3.119 v 0 c 0.827,-0.827 1.948,-1.29 3.118,-1.29 v 0 h 30.87 c 6.721,-0.276 13.277,2.121 18.236,6.667 v 0 c 4.958,4.545 7.915,10.867 8.224,17.588 v 0 c -0.192,5.646 -2.302,11.059 -5.981,15.347 v 0 c -3.679,4.289 -8.709,7.198 -14.261,8.245 v 0 c -3.301,6.984 -8.568,12.854 -15.156,16.888 v 0 c -6.244,3.824 -13.418,5.842 -20.725,5.842 v 0 c -0.402,0 -0.804,-0.006 -1.207,-0.018"
               style="fill:url(#linearGradient668);stroke:none"
               id="path670" />
          </g>
        </g>
      </g>
    </g>
    <g
       id="g672">
      <g
         id="g674">
        <g
           id="g680">
          <g
             id="g682">
            <path
               d="m 221.784,412.324 c -9.173,-7.762 -12.965,-20.022 -8.6,-27.739 v 0 c 1.305,-2.288 3.295,-4.108 5.689,-5.204 v 0 c 1.81,-0.844 3.781,-1.281 5.777,-1.281 v 0 c 1.997,0 3.968,0.437 5.778,1.281 v 0 c 2.394,1.096 4.384,2.916 5.688,5.204 v 0 c 4.366,7.717 0.574,19.977 -8.599,27.739 v 0 c -0.799,0.683 -1.815,1.058 -2.867,1.058 v 0 c -1.051,0 -2.067,-0.375 -2.866,-1.058 m 0.882,-24.96 c -0.714,0.333 -1.312,0.87 -1.721,1.543 v 0 c -1.542,2.425 -0.705,8.555 3.705,13.803 v 0 c 1.783,-1.768 3.073,-3.974 3.738,-6.396 v 0 c 0.664,-2.423 0.684,-4.976 0.055,-7.407 v 0 c -0.438,-0.665 -1.047,-1.198 -1.764,-1.543 v 0 c -0.631,-0.285 -1.315,-0.432 -2.007,-0.432 v 0 c -0.691,0 -1.375,0.147 -2.006,0.432"
               style="fill:url(#linearGradient688);stroke:none"
               id="path690" />
          </g>
        </g>
      </g>
    </g>
    <g
       id="g692">
      <g
         id="g694">
        <g
           id="g700">
          <g
             id="g702">
            <path
               d="m 292.342,412.324 c -9.171,-7.851 -12.964,-20.022 -8.82,-27.739 v 0 c 1.306,-2.288 3.296,-4.108 5.69,-5.204 v 0 c 1.809,-0.844 3.781,-1.281 5.777,-1.281 v 0 c 1.996,0 3.968,0.437 5.777,1.281 v 0 c 2.395,1.096 4.385,2.916 5.689,5.204 v 0 c 4.587,7.717 0.794,19.977 -8.379,27.739 v 0 c -0.798,0.683 -1.815,1.058 -2.866,1.058 v 0 c -1.05,0 -2.068,-0.375 -2.868,-1.058 m 0.883,-24.96 c -0.712,0.333 -1.312,0.87 -1.72,1.543 v 0 c -1.499,2.601 -0.573,8.555 3.749,13.803 v 0 c 1.775,-1.774 3.055,-3.98 3.712,-6.403 v 0 c 0.658,-2.421 0.671,-4.973 0.036,-7.4 v 0 c -0.438,-0.665 -1.047,-1.198 -1.764,-1.543 v 0 c -0.63,-0.285 -1.314,-0.432 -2.006,-0.432 v 0 c -0.692,0 -1.376,0.147 -2.007,0.432"
               style="fill:url(#linearGradient708);stroke:none"
               id="path710" />
          </g>
        </g>
      </g>
    </g>
    <g
       id="g712">
      <g
         id="g714">
        <g
           id="g720">
          <g
             id="g722">
            <path
               d="m 257.064,421.143 c -9.173,-7.849 -12.966,-20.02 -8.6,-27.738 v 0 c 1.305,-2.288 3.295,-4.108 5.689,-5.203 v 0 c 1.809,-0.844 3.781,-1.281 5.777,-1.281 v 0 c 1.996,0 3.968,0.437 5.777,1.281 v 0 c 2.395,1.095 4.385,2.915 5.689,5.203 v 0 c 4.366,7.718 0.574,19.977 -8.599,27.738 v 0 c -0.799,0.684 -1.816,1.06 -2.867,1.06 v 0 c -1.051,0 -2.067,-0.376 -2.866,-1.06 m 0.881,-24.96 c -0.713,0.333 -1.312,0.87 -1.719,1.543 v 0 c -1.5,2.603 -0.573,8.557 3.748,13.804 v 0 c 1.775,-1.773 3.055,-3.981 3.713,-6.402 v 0 c 0.658,-2.422 0.67,-4.973 0.036,-7.402 v 0 c -0.438,-0.662 -1.048,-1.197 -1.764,-1.543 v 0 c -0.631,-0.283 -1.315,-0.43 -2.007,-0.43 v 0 c -0.692,0 -1.375,0.147 -2.007,0.43"
               style="fill:url(#linearGradient728);stroke:none"
               id="path730" />
          </g>
        </g>
      </g>
    </g>
    <g
       id="g732">
      <g
         id="g734">
        <g
           id="g740">
          <g
             id="g742">
            <path
               d="m 518.612,807.434 c -8.29,-2.209 -15.853,-6.559 -21.93,-12.614 v 0 c -19.043,-19.043 -19.043,-50.039 0,-69.091 v 0 c 4.526,-4.552 9.91,-8.161 15.841,-10.618 v 0 c 5.93,-2.457 12.288,-3.713 18.707,-3.697 v 0 c 6.418,-0.018 12.775,1.237 18.704,3.694 v 0 c 5.928,2.456 11.311,6.064 15.835,10.615 v 0 c 6.059,6.079 10.411,13.646 12.62,21.94 v 0 c 0.218,0.827 0.216,1.698 -0.008,2.525 v 0 c -0.221,0.826 -0.657,1.58 -1.262,2.185 v 0 c -0.606,0.606 -1.359,1.041 -2.186,1.265 v 0 c -0.828,0.222 -1.697,0.224 -2.525,0.004 v 0 c -3.31,-0.878 -6.721,-1.324 -10.147,-1.323 v 0 c -10.43,0 -20.224,4.054 -27.582,11.412 v 0 c -4.831,4.859 -8.304,10.899 -10.074,17.519 v 0 c -1.769,6.62 -1.772,13.588 -0.009,20.209 v 0 c 0.22,0.828 0.219,1.699 -0.004,2.527 v 0 c -0.223,0.827 -0.659,1.581 -1.265,2.186 v 0 c -0.607,0.605 -1.361,1.041 -2.189,1.262 v 0 c -0.414,0.11 -0.839,0.165 -1.263,0.165 v 0 c -0.425,0 -0.85,-0.055 -1.263,-0.165 m -2.344,-83.291 c -4.744,1.966 -9.052,4.852 -12.673,8.493 v 0 c -15.233,15.237 -15.233,40.035 0,55.273 v 0 c 2.943,2.939 6.341,5.385 10.063,7.243 v 0 c -0.546,-7.03 0.435,-14.095 2.871,-20.712 v 0 c 2.437,-6.616 6.273,-12.629 11.248,-17.627 v 0 c 4.986,-4.99 10.997,-8.836 17.617,-11.275 v 0 c 6.62,-2.439 13.69,-3.41 20.722,-2.848 v 0 c -1.869,-3.716 -4.316,-7.111 -7.25,-10.059 v 0 c -3.62,-3.64 -7.927,-6.526 -12.669,-8.491 v 0 c -4.743,-1.964 -9.828,-2.969 -14.962,-2.955 v 0 c -0.034,0 -0.068,0 -0.102,0 v 0 c -5.1,0 -10.151,1.006 -14.865,2.958"
               style="fill:url(#linearGradient748);stroke:none"
               id="path750" />
          </g>
        </g>
      </g>
    </g>
  </g>
</svg>
