<svg width="129" height="129" viewBox="0 0 129 129" fill="none" xmlns="http://www.w3.org/2000/svg">
<path d="M48.4826 0.421291C37.4293 3.36662 27.3453 9.16664 19.2426 17.24C-6.14802 42.6306 -6.14802 83.9586 19.2426 109.361C25.2773 115.431 32.456 120.243 40.364 123.519C48.2707 126.795 56.7479 128.469 65.3066 128.448C73.8639 128.472 82.34 126.799 90.2453 123.523C98.1493 120.248 105.327 115.437 111.359 109.369C119.437 101.264 125.24 91.1746 128.185 80.116C128.476 79.0133 128.473 77.852 128.175 76.7493C127.88 75.648 127.299 74.6427 126.492 73.836C125.684 73.028 124.68 72.448 123.577 72.1493C122.473 71.8533 121.315 71.8506 120.211 72.1439C115.797 73.3146 111.249 73.9094 106.681 73.908C92.7746 73.908 79.716 68.5026 69.9053 58.692C63.464 52.2133 58.8333 44.16 56.4733 35.3333C54.1146 26.5067 54.1106 17.216 56.4613 8.38801C56.7546 7.28401 56.7533 6.12262 56.4559 5.01862C56.1586 3.91596 55.5773 2.91066 54.7693 2.10399C53.96 1.29732 52.9546 0.715958 51.8506 0.421291C51.2986 0.274625 50.732 0.201321 50.1666 0.201321C49.6 0.201321 49.0333 0.274625 48.4826 0.421291ZM45.3573 111.476C39.032 108.855 33.288 105.007 28.46 100.152C8.1493 79.836 8.1493 46.772 28.46 26.4547C32.384 22.536 36.9147 19.2747 41.8773 16.7973C41.1493 26.1707 42.4573 35.5907 45.7053 44.4133C48.9546 53.2347 54.0693 61.252 60.7026 67.916C67.3506 74.5693 75.3653 79.6973 84.1919 82.9493C93.0186 86.2013 102.445 87.496 111.821 86.7467C109.329 91.7013 106.067 96.228 102.155 100.159C97.328 105.012 91.5853 108.86 85.2627 111.48C78.9387 114.099 72.1586 115.439 65.3133 115.42C65.268 115.42 65.2226 115.42 65.1773 115.42C58.3773 115.42 51.6426 114.079 45.3573 111.476Z" fill="url(#paint0_linear_1_185)"/>
<defs>
<linearGradient id="paint0_linear_1_185" x1="64.3003" y1="0.200193" x2="64.3003" y2="128.448" gradientUnits="userSpaceOnUse">
<stop stop-color="#FAFAFC"/>
<stop offset="1" stop-color="#CBD2E7"/>
</linearGradient>
</defs>
</svg>
