<svg width="152" height="164" viewBox="0 0 152 164" fill="none" xmlns="http://www.w3.org/2000/svg">
<path d="M75.9666 0.224015C49.0746 0.224015 26.7906 18.308 23.8173 41.524C17.4693 42.3534 11.616 45.3933 7.28532 50.108C2.95465 54.8227 0.422634 60.9107 0.133301 67.308C0.539967 74.648 3.83735 81.532 9.30135 86.4494C14.7667 91.368 21.9573 93.9227 29.3 93.5573H40.208L35.1333 115.957C34.948 116.819 34.96 117.711 35.1694 118.565C35.3787 119.423 35.7787 120.221 36.34 120.9C36.9013 121.579 37.6093 122.123 38.4106 122.489C39.212 122.853 40.0853 123.036 40.9666 123.016H51.584L46.8 156.907C46.616 158.203 46.872 159.523 47.528 160.655C48.1853 161.787 49.2013 162.665 50.4173 163.149C51.1226 163.428 51.8746 163.565 52.6333 163.557C53.5733 163.556 54.5 163.327 55.3333 162.891C56.1653 162.453 56.8813 161.821 57.4173 161.049L98.2493 102.716C98.8267 101.865 99.1667 100.879 99.2387 99.8534C99.3093 98.8294 99.1094 97.804 98.6587 96.8827C98.1907 95.8973 97.456 95.0653 96.5373 94.4773C95.62 93.8907 94.556 93.5707 93.4653 93.5573H78.184L87.108 66.1987C87.3893 65.3427 87.4653 64.432 87.336 63.54C87.2053 62.648 86.8693 61.7973 86.3546 61.0573C85.84 60.3173 85.1613 59.7067 84.3707 59.272C83.5813 58.8387 82.7013 58.5933 81.7987 58.5573H52.6333C51.2853 58.5227 49.9667 58.96 48.9027 59.7894C47.84 60.6187 47.096 61.792 46.8 63.108L42.7747 81.8907H29.3C25.0546 82.232 20.8453 80.8973 17.5733 78.1707C14.3013 75.4453 12.2293 71.544 11.8 67.308C12.2293 63.0707 14.3013 59.1707 17.5733 56.444C20.8453 53.7174 25.0546 52.3813 29.3 52.724C30.8453 52.724 32.3306 52.1093 33.4253 51.016C34.5186 49.9213 35.1333 48.4373 35.1333 46.8907C35.1333 27.5813 53.4506 11.8907 75.9666 11.8907C84.328 11.5987 92.576 13.88 99.5986 18.4293C106.62 22.9773 112.073 29.5734 115.225 37.324C115.58 38.368 116.224 39.2867 117.08 39.9774C117.939 40.6694 118.973 41.104 120.065 41.232C125.299 41.592 130.224 43.8427 133.916 47.5694C137.609 51.2934 139.82 56.2373 140.132 61.4747C139.715 67.2627 137.029 72.6547 132.661 76.476C128.293 80.2987 122.593 82.2427 116.8 81.8907H110.967C109.421 81.8907 107.936 82.5054 106.841 83.5987C105.748 84.6934 105.133 86.1773 105.133 87.724C105.133 89.2707 105.748 90.7547 106.841 91.8493C107.936 92.9427 109.421 93.5573 110.967 93.5573H116.8C125.691 93.9213 134.361 90.7507 140.921 84.7374C147.48 78.7254 151.391 70.3613 151.8 61.4747C151.545 54.004 148.757 46.8427 143.889 41.172C139.023 35.4987 132.369 31.6534 125.024 30.2654C120.659 21.028 113.691 13.2654 104.979 7.92803C96.7187 2.8707 87.2307 0.200007 77.5693 0.200007C77.0347 0.200007 76.5013 0.208015 75.9666 0.224015ZM57.3 70.224H73.5173L64.5907 97.5814C64.3067 98.456 64.2306 99.388 64.376 100.297C64.5186 101.207 64.8747 102.068 65.416 102.815C65.956 103.56 66.6653 104.168 67.4853 104.587C68.3053 105.005 69.2133 105.224 70.1333 105.224H82.2667L61.8507 134.391L64.3 117.708C64.4173 116.875 64.352 116.027 64.1107 115.221C63.8693 114.415 63.456 113.671 62.8987 113.041C62.3453 112.409 61.6653 111.907 60.9 111.565C60.1346 111.224 59.3053 111.051 58.4666 111.057H48.3747L57.3 70.224Z" fill="url(#paint0_linear_1_20)"/>
<path d="M48.9039 59.7894C47.8399 60.6187 47.0959 61.792 46.7999 63.108L40.2079 93.5574L35.1332 115.957C34.9479 116.819 34.9613 117.712 35.1693 118.567C35.3786 119.424 35.7786 120.221 36.3399 120.9C36.9013 121.579 37.6092 122.123 38.4106 122.489C39.2119 122.855 40.0866 123.036 40.9666 123.016H51.5839L46.7999 156.907C46.6159 158.203 46.8719 159.523 47.5279 160.655C48.1853 161.787 49.2012 162.665 50.4172 163.149C51.1226 163.428 51.8746 163.565 52.6332 163.557C53.5746 163.556 54.4999 163.327 55.3333 162.891C56.1653 162.453 56.8812 161.823 57.4172 161.049L98.2493 102.716C98.8266 101.865 99.1666 100.879 99.2386 99.8547C99.3093 98.8307 99.1093 97.8053 98.6586 96.8827C98.1906 95.8973 97.456 95.0653 96.5373 94.48C95.62 93.8907 94.5559 93.5707 93.4653 93.5574H78.1839L87.1079 66.2C87.3893 65.3427 87.4653 64.432 87.3359 63.54C87.2053 62.648 86.8693 61.7974 86.3546 61.0587C85.8413 60.3174 85.1613 59.7067 84.3719 59.2733C83.5813 58.8387 82.7013 58.5947 81.7986 58.5574H52.6332C52.5866 58.556 52.54 58.556 52.492 58.556C51.1946 58.556 49.9292 58.988 48.9039 59.7894ZM73.5173 70.224L64.5906 97.5814C64.3066 98.4587 64.2306 99.388 64.3759 100.299C64.5186 101.208 64.8746 102.071 65.4159 102.816C65.9559 103.561 66.6653 104.168 67.4853 104.587C68.3053 105.005 69.2132 105.224 70.1332 105.224H82.2666L61.8506 134.391L64.2999 117.708C64.4172 116.875 64.3519 116.027 64.1106 115.221C63.8693 114.415 63.4559 113.671 62.8986 113.041C62.3453 112.411 61.6652 111.907 60.8999 111.567C60.1346 111.224 59.3052 111.051 58.4666 111.057H48.3746L57.2999 70.224H73.5173Z" fill="url(#paint1_linear_1_20)"/>
<defs>
<linearGradient id="paint0_linear_1_20" x1="75.9666" y1="0.199681" x2="75.9666" y2="163.558" gradientUnits="userSpaceOnUse">
<stop stop-color="#9EA8E1"/>
<stop offset="1" stop-color="#D0D7F1"/>
</linearGradient>
<linearGradient id="paint1_linear_1_20" x1="67.1279" y1="58.5556" x2="67.1279" y2="163.558" gradientUnits="userSpaceOnUse">
<stop stop-color="#FFB831"/>
<stop offset="1" stop-color="#FADA69"/>
</linearGradient>
</defs>
</svg>
