<svg width="164" height="164" viewBox="0 0 164 164" fill="none" xmlns="http://www.w3.org/2000/svg">
<path d="M77.5413 1.70929C76.448 2.80262 75.8333 4.28798 75.8333 5.83331V17.5C75.8333 19.0466 76.448 20.5306 77.5413 21.6239C78.636 22.7186 80.12 23.3333 81.6666 23.3333C83.2133 23.3333 84.696 22.7186 85.7907 21.6239C86.8853 20.5306 87.5 19.0466 87.5 17.5V5.83331C87.5 4.28798 86.8853 2.80262 85.7907 1.70929C84.696 0.614624 83.2133 -1.89543e-05 81.6666 -1.89543e-05C80.12 -1.89543e-05 78.636 0.614624 77.5413 1.70929Z" fill="url(#paint0_linear_1_80)"/>
<path d="M77.5413 141.708C76.448 142.803 75.8333 144.287 75.8333 145.833V157.5C75.8333 159.047 76.448 160.529 77.5413 161.624C78.636 162.719 80.12 163.333 81.6666 163.333C83.2133 163.333 84.696 162.719 85.7907 161.624C86.8853 160.529 87.5 159.047 87.5 157.5V145.833C87.5 144.287 86.8853 142.803 85.7907 141.708C84.696 140.615 83.2133 140 81.6666 140C80.12 140 78.636 140.615 77.5413 141.708Z" fill="url(#paint1_linear_1_80)"/>
<path d="M5.83201 75.8333C4.28668 75.8333 2.80267 76.448 1.70801 77.5413C0.613341 78.636 0 80.12 0 81.6667C0 83.2133 0.613341 84.6973 1.70801 85.7906C2.80267 86.8853 4.28668 87.5 5.83201 87.5H17.5C19.0467 87.5 20.5307 86.8853 21.624 85.7906C22.7187 84.6973 23.3333 83.2133 23.3333 81.6667C23.3333 80.12 22.7187 78.636 21.624 77.5413C20.5307 76.448 19.0467 75.8333 17.5 75.8333H5.83201Z" fill="url(#paint2_linear_1_80)"/>
<path d="M145.833 75.8333C144.288 75.8333 142.803 76.448 141.708 77.5413C140.615 78.636 140 80.12 140 81.6667C140 83.2133 140.615 84.6973 141.708 85.7906C142.803 86.8853 144.288 87.5 145.833 87.5H157.5C159.047 87.5 160.531 86.8853 161.624 85.7906C162.719 84.6973 163.333 83.2133 163.333 81.6667C163.333 80.12 162.719 78.636 161.624 77.5413C160.531 76.448 159.047 75.8333 157.5 75.8333H145.833Z" fill="url(#paint3_linear_1_80)"/>
<path d="M63.3667 32.8346C51.6827 37.224 41.944 45.6306 35.8973 56.5493C29.852 67.4693 27.8933 80.184 30.3733 92.4173C32.8533 104.649 39.6107 115.597 49.4333 123.299C59.2547 130.999 71.5 134.949 83.9707 134.439C96.4413 133.929 108.323 128.993 117.483 120.516C119.181 118.945 120.779 117.271 122.267 115.5C122.744 114.895 123.099 114.204 123.307 113.463C123.517 112.72 123.576 111.945 123.484 111.181C123.392 110.416 123.149 109.677 122.771 109.007C122.391 108.336 121.883 107.748 121.275 107.275C120.685 106.784 120.005 106.413 119.272 106.185C118.54 105.959 117.769 105.877 117.005 105.948C116.241 106.017 115.499 106.239 114.82 106.596C114.141 106.955 113.54 107.443 113.049 108.033C111.901 109.405 110.673 110.711 109.375 111.941C102.257 118.541 93.0213 122.389 83.3227 122.797C73.6253 123.204 64.0987 120.143 56.4533 114.163C48.808 108.183 43.5427 99.676 41.6013 90.164C39.6613 80.6533 41.172 70.7613 45.8627 62.264C50.5547 53.7667 58.12 47.2173 67.2013 43.7933C76.284 40.368 86.2893 40.2907 95.424 43.5733C104.557 46.8573 112.224 53.288 117.047 61.712C121.872 70.136 123.535 80.0013 121.741 89.5413C121.448 91.088 121.78 92.6893 122.667 93.9906C123.552 95.2933 124.919 96.1893 126.467 96.484C128.013 96.7773 129.613 96.4439 130.916 95.5586C132.217 94.6719 133.115 93.3053 133.408 91.7573C135.732 79.4947 133.611 66.8053 127.425 55.9653C121.24 45.1253 111.395 36.8413 99.656 32.6026C93.8933 30.5226 87.8573 29.4827 81.8253 29.4827C75.5694 29.4827 69.3147 30.6 63.3667 32.8346Z" fill="url(#paint4_linear_1_80)"/>
<path d="M135.397 21.8813C134.593 21.9133 133.805 22.1093 133.08 22.46C132.359 22.8093 131.715 23.3053 131.192 23.916L122.908 32.14C122.361 32.684 121.928 33.328 121.632 34.04C121.335 34.7507 121.183 35.5134 121.183 36.2814C121.183 37.0534 121.335 37.8173 121.632 38.5267C121.928 39.2373 122.361 39.8827 122.908 40.4253C123.453 40.9653 124.1 41.3934 124.811 41.684C125.521 41.9734 126.283 42.1213 127.049 42.116C127.817 42.1213 128.579 41.9734 129.289 41.684C130 41.3934 130.645 40.9653 131.192 40.4253L139.416 32.14C140.027 31.6187 140.523 30.9747 140.873 30.2507C141.224 29.528 141.42 28.7387 141.451 27.936C141.483 27.132 141.347 26.332 141.053 25.5826C140.76 24.8333 140.316 24.1547 139.747 23.5853C139.179 23.0173 138.499 22.5733 137.751 22.28C137.072 22.0133 136.349 21.8773 135.623 21.8773C135.548 21.8773 135.473 21.8786 135.397 21.8813Z" fill="url(#paint5_linear_1_80)"/>
<path d="M32.1413 122.908L23.916 131.192C22.8307 132.283 22.22 133.763 22.22 135.304C22.22 136.845 22.8307 138.324 23.916 139.416C24.4613 139.957 25.108 140.385 25.8187 140.675C26.5293 140.965 27.2907 141.112 28.0573 141.108C29.5893 141.101 31.056 140.495 32.1413 139.416L40.4253 131.192C41.524 130.093 42.1413 128.603 42.1413 127.049C42.1413 125.496 41.524 124.007 40.4253 122.908C39.3267 121.809 37.836 121.192 36.284 121.192C34.7307 121.192 33.2413 121.809 32.1413 122.908Z" fill="url(#paint6_linear_1_80)"/>
<path d="M122.908 122.908C121.809 124.007 121.192 125.496 121.192 127.049C121.192 128.603 121.809 130.093 122.908 131.192L131.192 139.416C132.276 140.495 133.744 141.101 135.275 141.108C136.043 141.112 136.804 140.965 137.515 140.675C138.225 140.385 138.872 139.957 139.416 139.416C140.503 138.324 141.113 136.845 141.113 135.304C141.113 133.763 140.503 132.283 139.416 131.192L131.192 122.908C130.093 121.809 128.603 121.192 127.049 121.192C125.496 121.192 124.007 121.809 122.908 122.908Z" fill="url(#paint7_linear_1_80)"/>
<path d="M28.1227 22.5173C26.6547 22.5733 25.2613 23.1826 24.2227 24.22C23.184 25.26 22.5747 26.6533 22.5187 28.1213C22.4613 29.5893 22.9613 31.024 23.916 32.14L32.1413 40.4226C32.6867 40.9639 33.3333 41.3919 34.0453 41.6826C34.7533 41.9733 35.516 42.1199 36.284 42.1159C37.0507 42.1199 37.812 41.9733 38.5227 41.6826C39.2333 41.3919 39.88 40.9639 40.4253 40.4226C40.972 39.8813 41.4053 39.236 41.7013 38.5253C41.9987 37.8146 42.1507 37.052 42.1507 36.2813C42.1507 35.512 41.9987 34.7493 41.7013 34.0386C41.4053 33.328 40.972 32.6826 40.4253 32.14L32.1413 23.9159C31.084 23.0106 29.7386 22.5132 28.3506 22.5132C28.2746 22.5132 28.1987 22.5146 28.1227 22.5173Z" fill="url(#paint8_linear_1_80)"/>
<defs>
<linearGradient id="paint0_linear_1_80" x1="81.6666" y1="-0.000152588" x2="81.6666" y2="23.3332" gradientUnits="userSpaceOnUse">
<stop stop-color="#FAC86A"/>
<stop offset="1" stop-color="#F1674C"/>
</linearGradient>
<linearGradient id="paint1_linear_1_80" x1="81.6666" y1="140" x2="81.6666" y2="163.333" gradientUnits="userSpaceOnUse">
<stop stop-color="#FAC86A"/>
<stop offset="1" stop-color="#F1674C"/>
</linearGradient>
<linearGradient id="paint2_linear_1_80" x1="11.6667" y1="75.8332" x2="11.6667" y2="87.4999" gradientUnits="userSpaceOnUse">
<stop stop-color="#FAC86A"/>
<stop offset="1" stop-color="#F1674C"/>
</linearGradient>
<linearGradient id="paint3_linear_1_80" x1="151.667" y1="75.8332" x2="151.667" y2="87.4999" gradientUnits="userSpaceOnUse">
<stop stop-color="#FAC86A"/>
<stop offset="1" stop-color="#F1674C"/>
</linearGradient>
<linearGradient id="paint4_linear_1_80" x1="81.8262" y1="29.4824" x2="81.8262" y2="134.482" gradientUnits="userSpaceOnUse">
<stop stop-color="#FAC86A"/>
<stop offset="1" stop-color="#F1674C"/>
</linearGradient>
<linearGradient id="paint5_linear_1_80" x1="131.319" y1="21.877" x2="131.319" y2="42.116" gradientUnits="userSpaceOnUse">
<stop stop-color="#FAC86A"/>
<stop offset="1" stop-color="#F1674C"/>
</linearGradient>
<linearGradient id="paint6_linear_1_80" x1="32.1807" y1="121.192" x2="32.1807" y2="141.108" gradientUnits="userSpaceOnUse">
<stop stop-color="#FAC86A"/>
<stop offset="1" stop-color="#F1674C"/>
</linearGradient>
<linearGradient id="paint7_linear_1_80" x1="131.153" y1="121.192" x2="131.153" y2="141.108" gradientUnits="userSpaceOnUse">
<stop stop-color="#FAC86A"/>
<stop offset="1" stop-color="#F1674C"/>
</linearGradient>
<linearGradient id="paint8_linear_1_80" x1="32.3324" y1="22.5127" x2="32.3324" y2="42.116" gradientUnits="userSpaceOnUse">
<stop stop-color="#FAC86A"/>
<stop offset="1" stop-color="#F1674C"/>
</linearGradient>
</defs>
</svg>
