<svg width="154" height="112" viewBox="0 0 154 112" fill="none" xmlns="http://www.w3.org/2000/svg">
<path d="M125.707 23.6667C124.267 23.6667 122.88 24.2813 121.853 25.3747C120.827 26.4693 120.252 27.9533 120.252 29.5C120.252 31.0467 120.827 32.5307 121.853 33.624C122.88 34.7187 124.267 35.3333 125.707 35.3333H133.907C136.081 35.3333 138.16 36.2547 139.693 37.8947C141.227 39.5387 142.093 41.7627 142.093 44.0827C142.093 46.4027 141.227 48.6293 139.693 50.2707C138.16 51.9107 136.081 52.8333 133.907 52.8333H76.5734C75.12 52.8333 73.7333 53.448 72.7067 54.5413C71.6933 55.6347 71.1066 57.1187 71.1066 58.6667C71.1066 60.2133 71.6933 61.6987 72.7067 62.792C73.7333 63.8853 75.12 64.5 76.5734 64.5H133.907C138.975 64.5 143.827 62.3494 147.413 58.52C151 54.6907 153.013 49.4987 153.013 44.0827C153.013 38.668 151 33.4773 147.413 29.648C143.827 25.8173 138.975 23.6667 133.907 23.6667H125.707Z" fill="url(#paint0_linear_1_135)"/>
<path d="M60.2 0.333356C58.7467 0.333356 57.3587 0.948031 56.3333 2.04136C55.3067 3.1347 54.7334 4.61869 54.7334 6.16669C54.7334 7.71336 55.3067 9.19868 56.3333 10.292C57.3587 11.3853 58.7467 12 60.2 12H68.3867C70.56 12 72.6413 12.9214 74.1733 14.5627C75.7067 16.204 76.5734 18.4307 76.5734 20.748C76.5734 23.0707 75.7067 25.2947 74.1733 26.9374C72.6413 28.5787 70.56 29.5 68.3867 29.5H5.59993C4.1466 29.5 2.76006 30.1147 1.7334 31.2094C0.706732 32.3027 0.133301 33.7867 0.133301 35.3334C0.133301 36.88 0.706732 38.364 1.7334 39.4587C2.76006 40.552 4.1466 41.1667 5.59993 41.1667H68.3867C73.4534 41.1667 78.3067 39.016 81.8934 35.1854C85.4814 31.356 87.4933 26.1654 87.4933 20.748C87.4933 15.3347 85.4814 10.1427 81.8934 6.31334C78.3067 2.484 73.4534 0.333356 68.3867 0.333356H60.2Z" fill="url(#paint1_linear_1_135)"/>
<path d="M32.8934 52.8333C31.4401 52.8333 30.0534 53.448 29.0254 54.5413C28.0134 55.6347 27.4399 57.1187 27.4399 58.6667C27.4399 60.2133 28.0134 61.6987 29.0254 62.792C30.0534 63.8853 31.4401 64.5 32.8934 64.5H54.7334C56.1867 64.5 57.5721 63.8853 58.6014 62.792C59.6134 61.6987 60.2 60.2133 60.2 58.6667C60.2 57.1187 59.6134 55.6347 58.6014 54.5413C57.5721 53.448 56.1867 52.8333 54.7334 52.8333H32.8934Z" fill="url(#paint2_linear_1_135)"/>
<path d="M103.88 70.3334C102.427 70.3334 101.04 70.948 100.013 72.0414C98.9866 73.136 98.4147 74.62 98.4147 76.1667C98.4147 77.7134 98.9866 79.1973 100.013 80.2907C101.04 81.3853 102.427 82 103.88 82H133.907C136.081 82 138.16 82.9214 139.693 84.5627C141.227 86.2054 142.093 88.4294 142.093 90.748C142.093 93.0694 141.227 95.296 139.693 96.9374C138.16 98.5787 136.081 99.5 133.907 99.5H125.72C124.267 99.5 122.88 100.115 121.853 101.208C120.827 102.301 120.252 103.787 120.252 105.333C120.252 106.88 120.827 108.364 121.853 109.459C122.88 110.552 124.267 111.167 125.72 111.167H133.907C138.975 111.167 143.827 109.016 147.413 105.187C151 101.357 153.013 96.1654 153.013 90.748C153.013 85.3347 151 80.144 147.413 76.3133C143.827 72.484 138.975 70.3334 133.907 70.3334H103.88Z" fill="url(#paint3_linear_1_135)"/>
<path d="M5.59993 70.3333C4.1466 70.3333 2.76006 70.948 1.7334 72.0413C0.706732 73.136 0.133301 74.62 0.133301 76.1667C0.133301 77.7133 0.706732 79.1973 1.7334 80.2906C2.76006 81.3853 4.1466 82 5.59993 82H82.04C83.48 82 84.8681 81.3853 85.8934 80.2906C86.9201 79.1973 87.4933 77.7133 87.4933 76.1667C87.4933 74.62 86.9201 73.136 85.8934 72.0413C84.8681 70.948 83.48 70.3333 82.04 70.3333H5.59993Z" fill="url(#paint4_linear_1_135)"/>
<path d="M38.3466 93.6667C36.9053 93.6667 35.5199 94.2814 34.4932 95.3747C33.4652 96.468 32.8933 97.9534 32.8933 99.5C32.8933 101.047 33.4652 102.531 34.4932 103.625C35.5199 104.719 36.9053 105.333 38.3466 105.333H71.1065C72.5599 105.333 73.9466 104.719 74.9732 103.625C75.9999 102.531 76.5733 101.047 76.5733 99.5C76.5733 97.9534 75.9999 96.468 74.9732 95.3747C73.9466 94.2814 72.5599 93.6667 71.1065 93.6667H38.3466Z" fill="url(#paint5_linear_1_135)"/>
<path d="M5.59994 93.6667C4.1466 93.6667 2.76007 94.2814 1.7334 95.3747C0.706732 96.468 0.133301 97.9534 0.133301 99.5C0.133301 101.047 0.706732 102.531 1.7334 103.625C2.76007 104.719 4.1466 105.333 5.59994 105.333H16.5187C17.9587 105.333 19.3467 104.719 20.3734 103.625C21.4 102.531 21.9746 101.047 21.9746 99.5C21.9746 97.9534 21.4 96.468 20.3734 95.3747C19.3467 94.2814 17.9587 93.6667 16.5187 93.6667H5.59994Z" fill="url(#paint6_linear_1_135)"/>
<defs>
<linearGradient id="paint0_linear_1_135" x1="112.06" y1="23.6665" x2="112.06" y2="64.4999" gradientUnits="userSpaceOnUse">
<stop stop-color="#9EA8E1"/>
<stop offset="1" stop-color="#D0D7F1"/>
</linearGradient>
<linearGradient id="paint1_linear_1_135" x1="43.8133" y1="0.333233" x2="43.8133" y2="41.1666" gradientUnits="userSpaceOnUse">
<stop stop-color="#9EA8E1"/>
<stop offset="1" stop-color="#D0D7F1"/>
</linearGradient>
<linearGradient id="paint2_linear_1_135" x1="43.82" y1="52.8332" x2="43.82" y2="64.4999" gradientUnits="userSpaceOnUse">
<stop stop-color="#9EA8E1"/>
<stop offset="1" stop-color="#D0D7F1"/>
</linearGradient>
<linearGradient id="paint3_linear_1_135" x1="125.713" y1="70.3332" x2="125.713" y2="111.167" gradientUnits="userSpaceOnUse">
<stop stop-color="#9EA8E1"/>
<stop offset="1" stop-color="#D0D7F1"/>
</linearGradient>
<linearGradient id="paint4_linear_1_135" x1="43.8133" y1="70.3332" x2="43.8133" y2="81.9999" gradientUnits="userSpaceOnUse">
<stop stop-color="#9EA8E1"/>
<stop offset="1" stop-color="#D0D7F1"/>
</linearGradient>
<linearGradient id="paint5_linear_1_135" x1="54.7333" y1="93.6666" x2="54.7333" y2="105.333" gradientUnits="userSpaceOnUse">
<stop stop-color="#9EA8E1"/>
<stop offset="1" stop-color="#D0D7F1"/>
</linearGradient>
<linearGradient id="paint6_linear_1_135" x1="11.0533" y1="93.6666" x2="11.0533" y2="105.333" gradientUnits="userSpaceOnUse">
<stop stop-color="#9EA8E1"/>
<stop offset="1" stop-color="#D0D7F1"/>
</linearGradient>
</defs>
</svg>
