<svg width="60" height="50" viewBox="0 0 60 50" fill="none" xmlns="http://www.w3.org/2000/svg">
<path d="M34.2659 9.33999C31.3957 10.3593 28.981 12.3655 27.4474 15.0001C17.7645 15.1715 9.79014 21.75 8.69837 30.1506C6.36154 30.4557 4.21179 31.5754 2.61994 33.3118C1.02809 35.0481 0.102368 37.2904 0 39.6434C0.151348 42.3403 1.36117 44.8681 3.36935 46.675C5.37753 48.4819 8.01754 49.4208 10.7114 49.2861H32.1397C32.7128 49.2861 33.2569 49.0603 33.6586 48.6587C34.0597 48.257 34.286 47.7119 34.286 47.1432C34.286 46.5751 34.0597 46.0304 33.6586 45.6283C33.2569 45.2262 32.7128 45.0004 32.1397 45.0004H10.7114C9.15388 45.1262 7.60609 44.6359 6.40608 43.6343C5.20607 42.6327 4.44201 41.2 4.28527 39.6434C4.44201 38.0864 5.20607 36.6542 6.40608 35.6525C7.60609 34.6509 9.15388 34.1606 10.7114 34.286C11.2845 34.286 11.8282 34.0602 12.2298 33.6585C12.631 33.2569 12.8572 32.7118 12.8572 32.1431C12.8572 25.0503 19.5861 19.2859 27.8544 19.2859C30.9255 19.1766 33.9519 20.0123 36.5337 21.679C39.1144 23.3458 41.1182 25.7645 42.2786 28.6077C42.4064 28.9942 42.6415 29.337 42.9545 29.5947C43.2684 29.8523 43.65 30.0154 44.0565 30.0649C44.8407 30.1687 45.6097 30.3627 46.3493 30.6434C47.7888 31.1425 49.0432 32.0638 49.9493 33.2873C50.8559 34.5108 51.3697 35.9792 51.429 37.5006C51.2762 39.6273 50.2878 41.6075 48.6857 43.0113C47.0791 44.4155 44.9876 45.1306 42.857 45.0004H40.7112C40.1435 45.0004 39.5998 45.2262 39.1977 45.6283C38.7965 46.0304 38.5717 46.5751 38.5717 47.1432C38.5717 47.7119 38.7965 48.257 39.1977 48.6587C39.5998 49.0603 40.1435 49.2861 40.7112 49.2861H42.857C46.124 49.4198 49.3077 48.2551 51.7175 46.0466C54.1273 43.8381 55.5624 40.7656 55.7147 37.5006C55.68 35.4792 55.1211 33.5018 54.0881 31.765C53.0546 30.0286 51.5799 28.5921 49.822 27.6002C50.4538 26.4766 50.9093 25.2624 51.1689 24.0002C51.7763 21.0134 51.2963 17.9095 49.822 15.2421C48.3526 12.5746 45.977 10.517 43.1313 9.43599C41.6619 8.87859 40.1156 8.59991 38.5683 8.59991C37.1141 8.59991 35.6589 8.84627 34.2659 9.33999ZM40.3693 19.0816C38.0379 17.2733 35.3048 16.0503 32.3998 15.5144C33.5851 14.2865 35.1084 13.4391 36.7737 13.0816C38.4439 12.7245 40.1778 12.8719 41.7648 13.5077C43.3468 14.143 44.7031 15.2357 45.6636 16.6468C46.6187 18.0579 47.1374 19.7232 47.1428 21.4287C47.1374 22.0042 47.084 22.5783 46.9714 23.143C46.7558 24.1275 46.3644 25.0645 45.8149 25.9075C44.5713 23.2302 42.7052 20.8895 40.3693 19.0816Z" fill="url(#paint0_linear_1_105)"/>
<path d="M34.2659 9.33995C31.3957 10.3592 28.981 12.3654 27.4474 15.0001C28.3002 14.9677 30.4798 15.0251 32.3998 15.5144C33.5851 14.2864 35.1084 13.4391 36.7737 13.0815C38.4439 12.7245 40.1778 12.8719 41.7648 13.5076C43.3469 14.1429 44.7031 15.2357 45.6636 16.6468C46.6187 18.0579 47.1374 19.7232 47.1428 21.4287C47.1374 22.0042 47.084 22.5783 46.9714 23.143C46.7559 24.1275 46.3645 25.0645 45.8149 25.9074C46.7019 26.1861 48.7395 26.9145 49.822 27.6002C50.4538 26.4766 50.9093 25.2624 51.1738 24.0001C51.7763 21.0133 51.2963 17.9095 49.822 15.242C48.3526 12.5746 45.977 10.5169 43.1313 9.43594C41.6619 8.87855 40.1156 8.59987 38.5684 8.59987C37.1141 8.59987 35.6589 8.84623 34.2659 9.33995Z" fill="url(#paint1_linear_1_105)"/>
<path d="M55.7147 19.2858C55.146 19.2858 54.6024 19.5116 54.2012 19.9138C53.7991 20.3154 53.5684 20.8605 53.5684 21.4287C53.5684 21.9969 53.7991 22.542 54.2012 22.9441C54.6024 23.3458 55.146 23.5716 55.7147 23.5716H57.8542C58.4272 23.5716 58.9714 23.3458 59.373 22.9441C59.7747 22.542 60 21.9969 60 21.4287C60 20.8605 59.7747 20.3154 59.373 19.9138C58.9714 19.5116 58.4272 19.2858 57.8542 19.2858H55.7147Z" fill="url(#paint2_linear_1_105)"/>
<path d="M37.0583 0.627938C36.6562 1.02957 36.4255 1.5747 36.4255 2.14287V4.28574C36.4255 4.85342 36.6562 5.39907 37.0583 5.8007C37.4594 6.20283 38.0031 6.42862 38.5718 6.42862C39.1399 6.42862 39.6831 6.20283 40.0847 5.8007C40.4864 5.39907 40.7112 4.85342 40.7112 4.28574V2.14287C40.7112 1.5747 40.4864 1.02957 40.0847 0.627938C39.6831 0.225812 39.1399 -6.86944e-06 38.5718 -6.86944e-06C38.0031 -6.86944e-06 37.4594 0.225812 37.0583 0.627938Z" fill="url(#paint3_linear_1_105)"/>
<path d="M50.4435 6.30029L48.9403 7.84314C48.6518 8.14633 48.4603 8.52741 48.3863 8.93933C48.3089 9.35125 48.3574 9.7764 48.524 10.1614C48.6856 10.5469 48.9599 10.8755 49.3076 11.1072C49.6554 11.3388 50.0668 11.4628 50.4827 11.4642C50.7672 11.4633 51.0513 11.406 51.3114 11.2957C51.5705 11.1851 51.81 11.0239 52.0064 10.8216L53.5052 9.27876C53.853 8.8639 54.0293 8.33393 54.0004 7.79417C53.975 7.2549 53.7403 6.746 53.3534 6.36934C52.9664 5.99269 52.4527 5.77669 51.9134 5.76346C51.8962 5.76297 51.8796 5.76298 51.8624 5.76298C51.3413 5.76298 50.8329 5.95302 50.4435 6.30029Z" fill="url(#paint4_linear_1_105)"/>
<path d="M24.3622 6.3047C23.9459 6.66911 23.6858 7.17998 23.6422 7.73051C23.5932 8.28056 23.7602 8.82766 24.1075 9.2577L25.5426 10.7149C25.739 10.9407 25.9834 11.1224 26.2577 11.2478C26.5325 11.3732 26.8259 11.4398 27.1296 11.4432C27.6586 11.4481 28.1684 11.2571 28.5647 10.9074C28.7758 10.7198 28.9516 10.492 29.0741 10.2368C29.196 9.98213 29.2705 9.7049 29.2842 9.42179C29.2994 9.1382 29.2602 8.85558 29.1671 8.58766C29.074 8.32072 28.9271 8.07484 28.7366 7.86471L27.3206 6.42912C26.9386 6.03092 26.4193 5.79532 25.8659 5.7723C25.836 5.77132 25.8061 5.77033 25.7762 5.77033C25.2546 5.77033 24.7516 5.95939 24.3622 6.3047Z" fill="url(#paint5_linear_1_105)"/>
<defs>
<linearGradient id="paint0_linear_1_105" x1="27.8569" y1="8.5998" x2="27.8569" y2="49.2988" gradientUnits="userSpaceOnUse">
<stop stop-color="#A1D2FA"/>
<stop offset="1" stop-color="#DCE2F6"/>
</linearGradient>
<linearGradient id="paint1_linear_1_105" x1="39.4376" y1="8.59976" x2="39.4376" y2="27.6002" gradientUnits="userSpaceOnUse">
<stop stop-color="#FAC86A"/>
<stop offset="1" stop-color="#F1674C"/>
</linearGradient>
<linearGradient id="paint2_linear_1_105" x1="56.7845" y1="19.2858" x2="56.7845" y2="23.5715" gradientUnits="userSpaceOnUse">
<stop stop-color="#FAC86A"/>
<stop offset="1" stop-color="#F1674C"/>
</linearGradient>
<linearGradient id="paint3_linear_1_105" x1="38.5688" y1="-5.11241e-05" x2="38.5688" y2="6.42857" gradientUnits="userSpaceOnUse">
<stop stop-color="#FAC86A"/>
<stop offset="1" stop-color="#F1674C"/>
</linearGradient>
<linearGradient id="paint4_linear_1_105" x1="51.1767" y1="5.76285" x2="51.1767" y2="11.4642" gradientUnits="userSpaceOnUse">
<stop stop-color="#FAC86A"/>
<stop offset="1" stop-color="#F1674C"/>
</linearGradient>
<linearGradient id="paint5_linear_1_105" x1="26.4607" y1="5.77038" x2="26.4607" y2="11.4432" gradientUnits="userSpaceOnUse">
<stop stop-color="#FAC86A"/>
<stop offset="1" stop-color="#F1674C"/>
</linearGradient>
</defs>
</svg>
