<svg width="60" height="46" viewBox="0 0 60 46" fill="none" xmlns="http://www.w3.org/2000/svg">
<path d="M45.4778 0.563275C42.6548 1.14294 40.0788 2.57768 38.0996 4.67182C36.1199 6.76597 34.8329 9.41875 34.4132 12.2701C32.2819 11.5917 30.0576 11.2527 27.8216 11.2639C17.9555 11.2639 9.78048 17.8985 8.68865 26.416C6.3597 26.7203 4.21321 27.8356 2.62389 29.5653C1.03506 31.295 0.10615 33.529 0 35.8756C0.149197 38.5685 1.35842 41.0936 3.36353 42.8982C5.36865 44.7027 8.00627 45.64 10.7006 45.5059H19.2611C19.8286 45.5059 20.373 45.2804 20.7741 44.8793C21.1757 44.4777 21.4008 43.9332 21.4008 43.3658C21.4008 42.7984 21.1757 42.2539 20.7741 41.8523C20.373 41.4512 19.8286 41.2257 19.2611 41.2257H10.7006C9.14311 41.3514 7.59926 40.8612 6.39834 39.8604C5.19792 38.861 4.43777 37.4297 4.28025 35.8756C4.43777 34.321 5.19792 32.8902 6.39834 31.8898C7.59926 30.8895 9.14311 30.3998 10.7006 30.525C11.2681 30.525 11.812 30.2995 12.2136 29.8984C12.6152 29.4968 12.8408 28.9524 12.8408 28.3849C12.8408 21.3012 19.561 15.5442 27.8216 15.5442C30.8892 15.4365 33.9162 16.274 36.4917 17.9431C39.0677 19.6116 41.0689 22.0316 42.2248 24.8751C42.3554 25.2576 42.5907 25.5952 42.9057 25.8486C43.2198 26.1024 43.5999 26.2619 44.0005 26.3089C45.921 26.4409 47.727 27.2671 49.082 28.6339C50.437 30.0006 51.2481 31.8135 51.3635 33.7355C51.2089 35.859 50.2247 37.8362 48.6217 39.2391C47.0187 40.6416 44.928 41.3553 42.8025 41.2257H27.8216C27.2542 41.2257 26.7098 41.4512 26.3081 41.8523C25.907 42.2539 25.6815 42.7984 25.6815 43.3658C25.6815 43.9332 25.907 44.4777 26.3081 44.8793C26.7098 45.2804 27.2542 45.5059 27.8216 45.5059H42.8025C46.0643 45.6395 49.2459 44.4762 51.6521 42.2705C54.0584 40.0649 55.4931 36.9958 55.6438 33.7355C55.6325 31.4217 54.8821 29.172 53.5036 27.3151C55.8712 26.3573 57.9404 24.7831 59.496 22.757C59.72 22.4909 59.8751 22.1749 59.9499 21.8354C60.0248 21.4964 60.0155 21.1437 59.9235 20.8091C59.8125 20.4819 59.6247 20.1859 59.3747 19.9482C59.1252 19.7095 58.8214 19.5348 58.4898 19.4394C55.0538 18.4489 52.1002 16.2339 50.1875 13.2132C48.2749 10.1921 47.5357 6.5747 48.11 3.04631C48.1785 2.69117 48.1575 2.32527 48.0469 1.98138C47.9359 1.63749 47.7407 1.32736 47.4775 1.07935C47.2148 0.831338 46.8939 0.654268 46.5437 0.56426C46.3686 0.518767 46.1886 0.496247 46.009 0.496247C45.8305 0.496247 45.652 0.51876 45.4778 0.563275ZM45.9484 22.2854C44.4138 18.8402 41.8095 15.981 38.5228 14.1319C38.5565 12.4301 39.0374 10.7679 39.9164 9.31062C40.795 7.85338 42.0409 6.65247 43.5299 5.82871C43.5965 9.25878 44.6036 12.6062 46.4415 15.5045C48.2788 18.4029 50.8773 20.7406 53.9532 22.2639C53.0018 22.9478 51.9368 23.455 50.8058 23.7622H50.9135C50.6694 23.8415 50.4385 23.9569 50.2286 24.1047C48.9157 23.2604 47.4682 22.6455 45.9484 22.2854Z" fill="url(#paint0_linear_1_25)"/>
<path d="M45.4778 0.563279C42.6548 1.14295 40.0788 2.57768 38.0996 4.67183C36.1199 6.76597 34.8329 9.41876 34.4132 12.2701C35.212 12.5343 37.1526 13.2759 38.5227 14.1319C38.5565 12.4301 39.0373 10.7679 39.9164 9.31063C40.7949 7.85338 42.0409 6.65248 43.5304 5.82871C43.5964 9.25878 44.6036 12.6062 46.4414 15.5045C48.2788 18.4029 50.8773 20.7406 53.9532 22.2639C53.0022 22.9478 51.9368 23.455 50.8063 23.7622H50.9135C50.6694 23.8415 50.4385 23.9569 50.2286 24.1047C50.9492 24.6472 52.6128 26.0481 53.5036 27.3151C55.8717 26.3573 57.9404 24.7831 59.496 22.757C59.72 22.4909 59.8751 22.1749 59.9504 21.8354C60.0248 21.4964 60.0155 21.1437 59.9235 20.8091C59.813 20.4819 59.6246 20.1859 59.3747 19.9482C59.1252 19.7095 58.8214 19.5348 58.4897 19.4394C55.0538 18.4489 52.1002 16.2339 50.1875 13.2133C48.2749 10.1921 47.5357 6.5747 48.11 3.04631C48.1785 2.69117 48.1575 2.32527 48.0469 1.98138C47.9359 1.63749 47.7407 1.32736 47.478 1.07935C47.2148 0.831341 46.8939 0.654272 46.5437 0.564264C46.3686 0.518771 46.1886 0.49625 46.009 0.49625C45.8305 0.49625 45.6519 0.518764 45.4778 0.563279Z" fill="url(#paint1_linear_1_25)"/>
<defs>
<linearGradient id="paint0_linear_1_25" x1="30" y1="0.496214" x2="30" y2="45.5185" gradientUnits="userSpaceOnUse">
<stop stop-color="#A1D2FA"/>
<stop offset="1" stop-color="#DCE2F6"/>
</linearGradient>
<linearGradient id="paint1_linear_1_25" x1="47.2066" y1="0.496215" x2="47.2066" y2="27.3151" gradientUnits="userSpaceOnUse">
<stop stop-color="#FAFAFC"/>
<stop offset="1" stop-color="#CBD2E7"/>
</linearGradient>
</defs>
</svg>
