<svg width="60" height="40" viewBox="0 0 60 40" fill="none" xmlns="http://www.w3.org/2000/svg">
<path d="M13.0024 12.4857C9.98906 15.0157 8.00788 18.5644 7.43932 22.4577C5.41439 22.7494 3.55566 23.7483 2.1955 25.2777C0.830973 26.8071 0.0568555 28.7686 0 30.8159C0.0787229 33.1408 1.07587 35.3398 2.77278 36.9318C4.4697 38.5233 6.7308 39.3783 9.05269 39.3096H16.9866C17.4367 39.3096 17.8697 39.1303 18.1894 38.8115C18.5086 38.4935 18.6879 38.0614 18.6879 37.611C18.6879 37.1605 18.5086 36.7284 18.1894 36.4096C17.8697 36.0916 17.4367 35.9119 16.9866 35.9119H9.05269C7.6313 35.977 6.24096 35.478 5.1782 34.525C4.12026 33.5707 3.48131 32.2381 3.39822 30.8159C3.48131 29.3932 4.12026 28.0606 5.1782 27.1067C6.24096 26.1528 7.6313 25.6543 9.05269 25.7194C9.5036 25.7194 9.93656 25.5401 10.2558 25.2217C10.5751 24.9029 10.7544 24.4708 10.7544 24.0203C10.7544 17.4631 16.5974 12.1288 23.7831 12.1288C26.5078 12.0654 29.1843 12.8613 31.4323 14.4043C33.6803 15.9473 35.3812 18.1585 36.3044 20.7249C36.4006 21.0324 36.5843 21.3057 36.8296 21.513C37.078 21.7203 37.3763 21.8537 37.6951 21.897C39.4358 22.0811 41.0536 22.8898 42.2436 24.1738C43.4332 25.4574 44.1155 27.1294 44.1675 28.8788C44.1023 30.8062 43.2757 32.6287 41.8675 33.9464C40.4592 35.2646 38.5873 35.9718 36.6586 35.9119H23.7831C23.3326 35.9119 22.8996 36.0916 22.5808 36.4096C22.2659 36.7284 22.0862 37.1605 22.0862 37.611C22.0862 38.0614 22.2659 38.4935 22.5808 38.8115C22.8996 39.1303 23.3326 39.3096 23.7831 39.3096H36.6586C39.4878 39.3643 42.2217 38.298 44.2646 36.3435C46.3066 34.3894 47.4962 31.7059 47.5662 28.8788C47.5229 26.4887 46.67 24.1835 45.1515 22.3387C43.63 20.494 41.5307 19.2187 39.1909 18.7201C37.8963 15.7181 35.7446 13.1671 33.0024 11.3892C30.2602 9.6114 27.0501 8.6864 23.7831 8.73101C23.6309 8.72664 23.4782 8.72445 23.3265 8.72445C19.5548 8.72401 15.8946 10.0531 13.0024 12.4857Z" fill="url(#paint0_linear_1_10)"/>
<path d="M39.5495 0.542943C36.7374 0.504457 33.9777 1.29955 31.6204 2.82897C29.2635 4.35794 27.4087 6.55168 26.2979 9.13335C24.2856 9.56195 21.6095 10.857 21.6095 10.857L28.3272 11.5353C28.3272 11.5353 28.6984 11.122 28.782 10.857C29.5731 8.65054 31.0387 6.74894 32.9718 5.42202C34.9049 4.0951 37.2053 3.41019 39.5495 3.46486C45.7293 3.46486 50.7544 8.05224 50.7544 13.6919C50.7544 14.0794 50.9075 14.4507 51.1831 14.7249C51.4542 14.9987 51.8264 15.1526 52.2152 15.1526C53.4398 15.0966 54.6381 15.5252 55.5478 16.3457C56.4575 17.1666 57.0086 18.3116 57.0785 19.5362C57.0086 20.759 56.4575 21.9057 55.5478 22.7253C54.6381 23.5458 53.4398 23.9744 52.2152 23.9184H45.3921C45.0033 23.9184 44.6315 24.0724 44.3604 24.3466C44.0848 24.6204 43.9314 24.9921 43.9314 25.3796C43.9314 25.7671 44.0848 26.1384 44.3604 26.4126C44.6315 26.6864 45.0033 26.8403 45.3921 26.8403H52.2152C54.2139 26.8994 56.1557 26.1642 57.6165 24.7953C59.0772 23.4264 59.9344 21.5353 60 19.5362C59.9563 17.7754 59.2871 16.0881 58.1151 14.773C56.943 13.4574 55.3466 12.5985 53.6016 12.3474C53.1117 8.99908 51.4105 5.94771 48.8214 3.77189C46.3329 1.68005 43.1848 0.537258 39.9414 0.537258C39.8106 0.537258 39.6803 0.539007 39.5495 0.542943Z" fill="url(#paint1_linear_1_10)"/>
<defs>
<linearGradient id="paint0_linear_1_10" x1="23.7831" y1="8.72447" x2="23.7831" y2="39.3134" gradientUnits="userSpaceOnUse">
<stop stop-color="#A1D2FA"/>
<stop offset="1" stop-color="#DCE2F6"/>
</linearGradient>
<linearGradient id="paint1_linear_1_10" x1="40.8048" y1="0.537315" x2="40.8048" y2="26.8436" gradientUnits="userSpaceOnUse">
<stop stop-color="#9EA8E1"/>
<stop offset="1" stop-color="#D0D7F1"/>
</linearGradient>
</defs>
</svg>
