<svg width="47" height="47" viewBox="0 0 47 47" fill="none" xmlns="http://www.w3.org/2000/svg">
<path d="M17.6662 1.15062C13.7996 2.23318 10.2859 4.3134 7.47767 7.18277C-1.32192 16.2065 -1.13947 30.712 7.88435 39.5158C10.0292 41.6194 12.57 43.2766 15.3601 44.3915C18.1496 45.5064 21.1324 46.0568 24.1363 46.0115C27.1398 45.9821 30.1074 45.3574 32.8676 44.1727C35.6273 42.9885 38.1252 41.2683 40.2155 39.1119C43.0152 36.2314 45.0073 32.6646 45.9922 28.7702C46.0894 28.3819 46.0833 27.9743 45.9736 27.5886C45.8653 27.2034 45.6569 26.8531 45.3702 26.5735C45.083 26.2935 44.7281 26.0944 44.3397 25.9944C43.9509 25.8954 43.5443 25.8995 43.1581 26.0074C41.6142 26.4377 40.0206 26.6666 38.4173 26.6863C33.5363 26.7477 28.9291 24.9081 25.4424 21.508C23.153 19.2626 21.4921 16.4565 20.6249 13.3689C19.758 10.2813 19.7156 7.02043 20.5017 3.91158C20.5998 3.5228 20.5942 3.11518 20.4849 2.72901C20.3757 2.3433 20.1673 1.99303 19.8801 1.71347C19.5925 1.43391 19.237 1.2343 18.8483 1.13575C18.6539 1.08671 18.4547 1.06349 18.2562 1.06598C18.0573 1.06848 17.8588 1.09671 17.6662 1.15062ZM17.0595 40.1427C14.8278 39.2506 12.7948 37.9254 11.0788 36.2428C3.86044 29.2019 3.71447 17.597 10.7535 10.3763C12.1134 8.98357 13.6892 7.8189 15.4201 6.92749C15.206 10.2206 15.7066 13.5211 16.8856 16.6033C18.065 19.6851 19.8955 22.4765 22.2531 24.7861C24.6158 27.092 27.4515 28.8564 30.5638 29.9589C33.6762 31.0613 36.9905 31.4741 40.278 31.1697C39.4253 32.9197 38.3001 34.5229 36.9444 35.9198C35.2718 37.6445 33.2732 39.0204 31.0656 39.9679C28.8575 40.9149 26.4838 41.4152 24.0811 41.4389C24.0652 41.4391 24.0493 41.4393 24.0334 41.4395C21.6467 41.4695 19.277 41.0284 17.0595 40.1427Z" fill="url(#paint0_linear_1_185)"/>
<defs>
<linearGradient id="paint0_linear_1_185" x1="23.2169" y1="1.00319" x2="23.7831" y2="46.016" gradientUnits="userSpaceOnUse">
<stop stop-color="#FAFAFC"/>
<stop offset="1" stop-color="#CBD2E7"/>
</linearGradient>
</defs>
</svg>
