<svg width="50" height="54" viewBox="0 0 50 54" fill="none" xmlns="http://www.w3.org/2000/svg">
<path d="M25 0.00784487C16.1347 0.00784487 8.78859 5.96895 7.80787 13.6229C5.71516 13.8967 3.78554 14.8988 2.35784 16.453C0.93014 18.0076 0.0950637 20.0148 0 22.1228C0.134746 24.5434 1.221 26.8123 3.02241 28.4336C4.82426 30.0554 7.19431 30.8979 9.61538 30.7766H17.3077C17.8179 30.7766 18.3067 30.5747 18.6674 30.2141C19.028 29.8535 19.2308 29.3642 19.2308 28.854C19.2308 28.3442 19.028 27.855 18.6674 27.4943C18.3067 27.1337 17.8179 26.9309 17.3077 26.9309H9.61538C8.21559 27.0439 6.82801 26.6034 5.74961 25.7047C4.67076 24.8059 3.98744 23.52 3.84615 22.1228C3.98744 20.726 4.67076 19.441 5.74961 18.5418C6.82801 17.643 8.21559 17.2022 9.61538 17.3155C10.1256 17.3155 10.6144 17.1132 10.9751 16.753C11.3361 16.3915 11.5385 15.9027 11.5385 15.3925C11.5385 9.02668 17.5772 3.854 25 3.854C27.7564 3.75763 30.4762 4.50985 32.7909 6.00906C35.1055 7.50915 36.9039 9.68341 37.9422 12.2388C38.0595 12.582 38.2718 12.8855 38.5544 13.1135C38.8366 13.3416 39.178 13.4851 39.5386 13.527C41.2637 13.6456 42.8868 14.3882 44.1043 15.6166C45.3218 16.8446 46.0505 18.4737 46.1538 20.1997C46.0156 22.1084 45.1304 23.8854 43.6905 25.1461C42.2506 26.4059 40.3715 27.0473 38.4615 26.9309H25C24.4898 26.9309 24.001 27.1337 23.6403 27.4943C23.2797 27.855 23.0769 28.3442 23.0769 28.854C23.0769 29.3642 23.2797 29.8535 23.6403 30.2141C24.001 30.5747 24.4898 30.7766 25 30.7766H38.4615C41.3924 30.897 44.2513 29.8517 46.4137 27.8693C48.5758 25.8874 49.8653 23.1305 50 20.1997C49.9163 17.7376 48.9962 15.3772 47.3918 13.5073C45.7875 11.637 43.5941 10.3685 41.173 9.91191C39.7336 6.86639 37.4368 4.30664 34.5639 2.54753C31.8411 0.879991 28.7127 -6.76808e-06 25.5263 -6.76808e-06C25.351 -6.76808e-06 25.1757 0.002612 25 0.00784487Z" fill="url(#paint0_linear_1_175)"/>
<path d="M8.36559 38.9307C4.3655 42.3155 2.71192 47.6618 4.61538 51.0269C5.18445 52.0247 6.05223 52.8183 7.09619 53.2962C7.88548 53.6643 8.74497 53.8549 9.61537 53.8549C10.4862 53.8549 11.3457 53.6643 12.135 53.2962C13.179 52.8183 14.0467 52.0247 14.6154 51.0269C16.5193 47.6618 14.8657 42.3155 10.8656 38.9307C10.5172 38.6329 10.0741 38.4694 9.61537 38.4694C9.15706 38.4694 8.71401 38.6329 8.36559 38.9307ZM8.75021 49.8151C8.43885 49.6699 8.17808 49.4357 7.99973 49.1422C7.32731 48.0848 7.6923 45.4116 9.61537 43.1231C10.3929 43.8941 10.9554 44.8561 11.2454 45.9123C11.535 46.9689 11.5437 48.0821 11.2694 49.1422C11.0784 49.4322 10.8128 49.6646 10.5002 49.8151C10.225 49.9394 9.92673 50.0035 9.62497 50.0035C9.32364 50.0035 9.02537 49.9394 8.75021 49.8151Z" fill="url(#paint1_linear_1_175)"/>
<path d="M39.134 38.9307C35.1347 42.3543 33.4807 47.6618 35.2878 51.0269C35.8573 52.0247 36.7251 52.8183 37.7691 53.2962C38.5579 53.6643 39.4178 53.8549 40.2882 53.8549C41.1586 53.8549 42.0186 53.6643 42.8074 53.2962C43.8518 52.8183 44.7196 52.0247 45.2882 51.0269C47.2885 47.6618 45.6345 42.3155 41.6344 38.9307C41.2864 38.6329 40.8429 38.4694 40.3846 38.4694C39.9267 38.4694 39.4828 38.6329 39.134 38.9307ZM39.519 49.8151C39.2085 49.6699 38.9469 49.4357 38.769 49.1422C38.1153 48.008 38.5191 45.4116 40.4038 43.1231C41.1778 43.8967 41.736 44.8587 42.0225 45.9153C42.3094 46.971 42.3151 48.0839 42.0382 49.1422C41.8472 49.4322 41.5816 49.6646 41.269 49.8151C40.9942 49.9394 40.696 50.0035 40.3942 50.0035C40.0924 50.0035 39.7942 49.9394 39.519 49.8151Z" fill="url(#paint2_linear_1_175)"/>
<path d="M23.7502 35.085C19.7501 38.5077 18.0961 43.8152 20 47.1808C20.5691 48.1785 21.4369 48.9722 22.4808 49.4497C23.2697 49.8177 24.1296 50.0083 25 50.0083C25.8704 50.0083 26.7303 49.8177 27.5192 49.4497C28.5636 48.9722 29.4314 48.1785 30 47.1808C31.9039 43.8152 30.2503 38.4694 26.2502 35.085C25.9018 34.7867 25.4583 34.6228 25 34.6228C24.5417 34.6228 24.0986 34.7867 23.7502 35.085ZM24.1344 45.9694C23.8235 45.8242 23.5623 45.59 23.3848 45.2965C22.7307 44.1614 23.1349 41.565 25.0192 39.277C25.7932 40.0501 26.3514 41.013 26.6383 42.0687C26.9253 43.1249 26.9305 44.2373 26.654 45.2965C26.463 45.5852 26.197 45.8185 25.8848 45.9694C25.6096 46.0928 25.3113 46.1569 25.0096 46.1569C24.7078 46.1569 24.41 46.0928 24.1344 45.9694Z" fill="url(#paint3_linear_1_175)"/>
<defs>
<linearGradient id="paint0_linear_1_175" x1="25" y1="-0.000128749" x2="25" y2="30.7884" gradientUnits="userSpaceOnUse">
<stop stop-color="#9EA8E1"/>
<stop offset="1" stop-color="#D0D7F1"/>
</linearGradient>
<linearGradient id="paint1_linear_1_175" x1="9.61551" y1="38.4693" x2="9.61551" y2="53.8548" gradientUnits="userSpaceOnUse">
<stop stop-color="#7CB1F8"/>
<stop offset="1" stop-color="#3495E3"/>
</linearGradient>
<linearGradient id="paint2_linear_1_175" x1="40.3488" y1="38.4693" x2="40.3488" y2="53.8548" gradientUnits="userSpaceOnUse">
<stop stop-color="#7CB1F8"/>
<stop offset="1" stop-color="#3495E3"/>
</linearGradient>
<linearGradient id="paint3_linear_1_175" x1="25" y1="34.6227" x2="25" y2="50.0082" gradientUnits="userSpaceOnUse">
<stop stop-color="#7CB1F8"/>
<stop offset="1" stop-color="#3495E3"/>
</linearGradient>
</defs>
</svg>
