<svg width="50" height="47" viewBox="0 0 50 47" fill="none" xmlns="http://www.w3.org/2000/svg">
<path d="M34.2545 0.0300489C33.7793 0.117691 33.3611 0.390217 33.0907 0.786568C32.816 1.18292 32.711 1.6717 32.7982 2.1448L33.6005 6.42924L32.1402 8.91023L30.3516 3.75157C30.291 3.51524 30.1824 3.29418 30.0294 3.10232C29.8768 2.91004 29.6888 2.75175 29.4708 2.63533C29.2576 2.52022 29.0222 2.45001 28.778 2.42996C28.5338 2.40946 28.2896 2.43956 28.0537 2.51805C27.8231 2.5961 27.6094 2.72167 27.4307 2.88561C27.2475 3.05 27.1032 3.2497 27.0034 3.47207C26.9026 3.69532 26.8464 3.93645 26.842 4.18106C26.842 4.42568 26.8856 4.66766 26.9815 4.89396L29.7285 12.9086L27.5702 16.2456H22.412V16.1034L19.9131 12.4085L22.4991 4.80502C22.6382 4.34806 22.5907 3.85447 22.3688 3.43283C22.146 3.01076 21.7618 2.6955 21.3044 2.55597C20.8466 2.41557 20.3539 2.46354 19.9314 2.68809C19.5124 2.91265 19.194 3.29504 19.0541 3.75157L17.2711 8.80298L15.684 6.46499L16.4863 2.23462C16.5299 1.9996 16.5256 1.75935 16.4776 1.52651C16.4248 1.29323 16.3293 1.07217 16.1942 0.875522C16.059 0.679309 15.8889 0.511426 15.6883 0.381489C15.4878 0.251988 15.2654 0.162609 15.0299 0.119442C14.7945 0.0762755 14.5547 0.079762 14.3236 0.128597C14.0881 0.178741 13.8701 0.273359 13.6695 0.408528C13.4733 0.543697 13.3076 0.716366 13.1768 0.916067C13.0456 1.11664 12.9592 1.33989 12.9152 1.57404L12.5054 4.67987L9.22204 4.07249C8.98659 4.02846 8.74677 4.03063 8.51131 4.07947C8.28022 4.12699 8.05784 4.22161 7.85727 4.35591C7.46048 4.62712 7.18579 5.04527 7.09858 5.5188C7.00701 5.99233 7.10774 6.48199 7.37765 6.88009C7.65278 7.27862 8.07091 7.55288 8.54139 7.6427L12.7888 8.44587L14.3803 10.7843L9.02585 10.5344C8.55058 10.5344 8.0971 10.7224 7.76135 11.0572C7.42561 11.3917 7.23809 11.8456 7.23809 12.3191C7.23809 12.7922 7.42561 13.2466 7.76135 13.5814C8.0971 13.9163 8.55058 14.1047 9.02585 14.1047L17.0571 14.4788L19.3946 18.0311L17.7508 21.6009H13.3992L8.5763 15.1747C8.29332 14.7962 7.87033 14.5459 7.40378 14.4788C6.93287 14.4121 6.45763 14.5337 6.07829 14.818C5.69894 15.1023 5.45041 15.5248 5.38544 15.9931C5.31524 16.4623 5.43729 16.9389 5.72071 17.3165L8.93425 21.7077H6.09569L3.06094 18.6555C2.72476 18.3202 2.27128 18.131 1.79644 18.131C1.32117 18.131 0.863349 18.3202 0.527606 18.6555C0.191863 18.9917 0.00481698 19.4478 0.00481698 19.9231C0.00481698 20.3983 0.191863 20.854 0.527606 21.1902L2.84729 23.4924L0.527606 25.7955C0.361914 25.9612 0.226735 26.1587 0.135168 26.3763C0.0479622 26.5939 0 26.8271 0 27.0626C0 27.2981 0.0479622 27.5313 0.135168 27.7489C0.226735 27.9665 0.361914 28.1636 0.527606 28.3301C0.693297 28.4971 0.889082 28.6301 1.10753 28.7204C1.32511 28.8111 1.56099 28.8577 1.79644 28.8577C2.0319 28.8577 2.263 28.8111 2.48101 28.7204C2.69903 28.6301 2.89525 28.4971 3.06094 28.3301L6.09569 25.2779H8.93425L5.72071 29.5615C5.43729 29.9404 5.31524 30.4157 5.38544 30.8848C5.45041 31.3536 5.69894 31.7765 6.07829 32.0604C6.38787 32.2919 6.76284 32.4175 7.1509 32.4175C7.4256 32.4175 7.70028 32.353 7.94882 32.2291C8.19735 32.1049 8.41105 31.9252 8.5763 31.7028L13.3992 25.2779H17.8602L19.7347 28.508L17.3758 31.971L9.37901 32.3107C8.9081 32.3107 8.45462 32.4982 8.11888 32.8326C7.78313 33.1679 7.59524 33.6218 7.59524 34.0953C7.59524 34.5684 7.78313 35.0223 8.11888 35.3568C8.45462 35.6921 8.9081 35.88 9.37901 35.88L14.7378 35.6302L13.1463 37.9686L8.91684 38.7718C8.44157 38.8171 8.00553 39.0478 7.70467 39.4145C7.40381 39.7807 7.25554 40.2525 7.3035 40.726C7.34754 41.1996 7.57862 41.6356 7.94445 41.9386C8.31072 42.2417 8.78164 42.3864 9.25691 42.3415C9.36155 42.359 9.4706 42.359 9.58004 42.3415L12.7888 41.7346L13.3992 44.9468C13.4777 45.3597 13.7001 45.7312 14.0267 45.9955C14.3537 46.2601 14.764 46.401 15.1826 46.3931H15.5227C15.7538 46.3504 15.9722 46.2623 16.168 46.1337C16.3686 46.0055 16.5342 45.8398 16.6694 45.6458C16.8002 45.4517 16.8957 45.2333 16.9441 45.003C16.9921 44.7737 16.9921 44.5356 16.9485 44.305L16.1287 40.0567L17.8602 37.6651L19.6432 42.7335C19.7648 43.0884 19.992 43.3967 20.2976 43.6143C20.6024 43.8323 20.9643 43.9487 21.3393 43.9479C21.5355 43.9435 21.7269 43.9073 21.9105 43.8402C22.3596 43.6867 22.7259 43.3614 22.9352 42.9363C23.1401 42.5111 23.1707 42.0215 23.0176 41.5746L20.4106 33.9881L22.6958 30.5251H27.7141L30.0691 33.9881L27.4786 41.592C27.3304 42.0346 27.3609 42.5177 27.5658 42.9385C27.7707 43.3592 28.1283 43.6832 28.5687 43.8402C28.7518 43.9073 28.9437 43.9435 29.1394 43.9479C29.5279 43.9684 29.916 43.8602 30.2387 43.6409C30.5565 43.422 30.8012 43.1037 30.9233 42.7335L32.711 37.6651L34.2981 40.0031L33.4959 44.2513C33.4522 44.4829 33.4523 44.7196 33.5002 44.9499C33.5486 45.1797 33.6445 45.3981 33.7753 45.5921C33.9105 45.7862 34.0762 45.9523 34.2763 46.0809C34.473 46.2087 34.691 46.2968 34.9216 46.3399H35.2617C35.6808 46.3473 36.0906 46.2065 36.4177 45.9418C36.7447 45.6772 36.9671 45.3065 37.046 44.894L37.656 41.6809L40.8477 42.2879C40.9611 42.3045 41.0745 42.3045 41.1879 42.2879C41.6631 42.3328 42.134 42.188 42.5003 41.8854C42.867 41.582 43.0977 41.1459 43.1413 40.6724C43.1892 40.1993 43.0453 39.7271 42.7401 39.3608C42.4388 38.9937 42.0032 38.763 41.5279 38.7181L37.2984 37.9145L35.6895 35.5761L41.0439 35.8264H41.0658C41.5367 35.8264 41.9906 35.6384 42.3259 35.3036C42.6616 34.9691 42.8491 34.5148 42.8491 34.0417C42.8491 33.5682 42.6616 33.1143 42.3259 32.779C41.9906 32.445 41.5367 32.2566 41.0658 32.2566L33.0519 31.882L30.5313 28.2054L30.4441 28.0977L32.1407 25.2779H36.6008L41.4185 31.7028C41.589 31.9252 41.8026 32.1049 42.0512 32.2291C42.2997 32.353 42.57 32.4175 42.8491 32.4175C43.2328 32.4175 43.6122 32.2919 43.9218 32.0604C44.1093 31.9195 44.2662 31.7429 44.3839 31.5415C44.506 31.3401 44.5845 31.1168 44.615 30.8848C44.6499 30.6529 44.6364 30.4161 44.5758 30.1894C44.5191 29.9622 44.4188 29.749 44.2749 29.5615L41.0658 25.2779H43.8999L46.9347 28.3301C47.1004 28.4971 47.301 28.6301 47.519 28.7204C47.7327 28.8111 47.9681 28.8577 48.204 28.8577C48.439 28.8577 48.6744 28.8111 48.8881 28.7204C49.1061 28.6301 49.3063 28.4971 49.4724 28.3301C49.6377 28.1636 49.7694 27.9665 49.8605 27.7489C49.9521 27.5313 50 27.2981 50 27.0626C50 26.8271 49.9521 26.5939 49.8605 26.3763C49.7694 26.1587 49.6377 25.9612 49.4724 25.7955L47.1483 23.4924L49.4724 21.1902C49.8082 20.854 49.9956 20.3983 49.9956 19.9231C49.9956 19.4478 49.8082 18.9917 49.4724 18.6555C49.1367 18.3202 48.6788 18.131 48.204 18.131C47.7287 18.131 47.27 18.3202 46.9347 18.6555L43.8999 21.7077H41.0658L44.2749 17.4242C44.4188 17.2367 44.5191 17.023 44.5758 16.7963C44.6364 16.5691 44.6499 16.3328 44.615 16.1004C44.5845 15.8688 44.506 15.6452 44.3839 15.4437C44.2662 15.2423 44.1093 15.0657 43.9218 14.9257C43.7299 14.7844 43.5206 14.6824 43.2895 14.624C43.0628 14.566 42.8273 14.5529 42.5962 14.586C42.3647 14.6192 42.1427 14.6977 41.9378 14.8171C41.7372 14.9366 41.5628 15.0949 41.4185 15.2824L36.6008 21.7077H32.1407C31.9571 21.7143 31.7735 21.75 31.6039 21.815C31.2246 21.6986 30.8147 21.7116 30.4441 21.8542C30.0695 21.9968 29.7551 22.2593 29.5502 22.6003L27.0169 26.9553H22.9836L20.9129 23.3856L22.5737 19.8158H28.5691C28.7828 19.8084 28.9921 19.7665 29.1927 19.6911H29.3191C29.5022 19.6008 29.6679 19.487 29.8205 19.3519C29.899 19.2769 29.9731 19.1931 30.0342 19.102L32.9251 14.4613L40.5468 14.1047C41.0047 14.0811 41.4364 13.8827 41.7503 13.5509C42.0686 13.2191 42.243 12.7774 42.243 12.3191C42.243 12.0771 42.1951 11.8377 42.0991 11.6149C42.0032 11.3926 41.8637 11.1916 41.6893 11.0246C41.5105 10.8576 41.3056 10.728 41.0788 10.6439C40.8521 10.5589 40.6079 10.5222 40.3677 10.5344L35.2098 10.7664L36.6531 8.42755L40.8477 7.6427C41.323 7.55506 41.7416 7.28297 42.0163 6.88662C42.2867 6.4894 42.3917 6.00148 42.3041 5.52752C42.2169 5.05399 41.9465 4.63496 41.5493 4.36201C41.153 4.08949 40.665 3.98529 40.1893 4.07249L36.9762 4.67987L36.3697 1.48508C36.2825 1.01155 36.0074 0.592095 35.6106 0.320012C35.3097 0.109846 34.9491 -3.73213e-05 34.5846 -3.73213e-05C34.4743 -3.73213e-05 34.3635 0.00999147 34.2545 0.0300489Z" fill="url(#paint0_linear_1_35)"/>
<defs>
<linearGradient id="paint0_linear_1_35" x1="24.9998" y1="-0.000281491" x2="24.9998" y2="46.3934" gradientUnits="userSpaceOnUse">
<stop stop-color="#D5DBF3"/>
<stop offset="1" stop-color="#A0CFF6"/>
</linearGradient>
</defs>
</svg>
