<svg width="50" height="54" viewBox="0 0 50 54" fill="none" xmlns="http://www.w3.org/2000/svg">
<path d="M25 0.00792176C16.1345 0.00792176 8.78813 5.96968 7.80791 13.6233C5.71517 13.8967 3.7855 14.8989 2.35781 16.4532C0.930116 18.0075 0.0953846 20.0145 0 22.1235C0.134066 24.5433 1.22112 26.8128 3.02243 28.4339C4.82419 30.0554 7.19473 30.8976 9.61538 30.7772H13.2114L11.5385 38.1618C11.4774 38.4457 11.4813 38.7398 11.5503 39.0216C11.6194 39.3042 11.7512 39.5675 11.9363 39.7912C12.1213 40.015 12.3547 40.1943 12.6189 40.3152C12.8831 40.4352 13.171 40.4954 13.4615 40.4888H16.9618L15.3846 51.6615C15.324 52.0888 15.4084 52.524 15.6246 52.8972C15.8413 53.2703 16.1763 53.56 16.5771 53.7196C16.8097 53.8114 17.0576 53.8567 17.3077 53.8541C17.6176 53.8536 17.9231 53.778 18.1978 53.6343C18.4721 53.4901 18.7081 53.2818 18.8848 53.0273L32.346 33.7965C32.5363 33.516 32.6484 33.1908 32.6721 32.8528C32.6954 32.5152 32.6295 32.1771 32.4809 31.8734C32.3266 31.5486 32.0844 31.2743 31.7816 31.0805C31.4791 30.887 31.1284 30.7815 30.7688 30.7772H25.731L28.673 21.7578C28.7657 21.4756 28.7908 21.1754 28.7481 20.8813C28.7051 20.5873 28.5943 20.3068 28.4246 20.0629C28.255 19.8189 28.0312 19.6176 27.7706 19.4743C27.5103 19.3314 27.2202 19.2506 26.9226 19.2387H17.3077C16.8633 19.2273 16.4286 19.3714 16.0778 19.6449C15.7275 19.9183 15.4822 20.3051 15.3846 20.7389L14.0576 26.931H9.61538C8.21582 27.0435 6.82814 26.6035 5.74946 25.7046C4.67078 24.8062 3.98769 23.52 3.84615 22.1235C3.98769 20.7266 4.67078 19.4409 5.74946 18.542C6.82814 17.6431 8.21582 17.2026 9.61538 17.3156C10.1248 17.3156 10.6145 17.113 10.9754 16.7525C11.3358 16.3917 11.5385 15.9024 11.5385 15.3925C11.5385 9.02682 17.5771 3.85408 25 3.85408C27.7565 3.75781 30.4756 4.5099 32.7908 6.00968C35.1055 7.50902 36.9033 9.68353 37.9424 12.2387C38.0594 12.5829 38.2717 12.8857 38.5539 13.1134C38.8369 13.3416 39.178 13.4849 39.538 13.527C41.2633 13.6457 42.887 14.3877 44.1042 15.6163C45.3218 16.844 46.0506 18.4739 46.1534 20.2004C46.0158 22.1086 45.1305 23.8862 43.6905 25.1459C42.2505 26.4062 40.3714 27.047 38.4615 26.931H36.5385C36.029 26.931 35.5393 27.1336 35.1785 27.4941C34.818 27.855 34.6154 28.3442 34.6154 28.8541C34.6154 29.364 34.818 29.8532 35.1785 30.2141C35.5393 30.5745 36.029 30.7772 36.5385 30.7772H38.4615C41.3925 30.8972 44.251 29.8519 46.4136 27.8695C48.5758 25.8875 49.8651 23.1301 50 20.2004C49.916 17.7376 48.9969 15.3767 47.3921 13.5073C45.7877 11.6369 43.5943 10.3692 41.1728 9.91166C39.7336 6.86639 37.4365 4.30727 34.5644 2.54771C31.8413 0.880456 28.7134 7.30947e-06 25.5284 7.30947e-06C25.3521 7.30947e-06 25.1763 0.00264703 25 0.00792176ZM18.8462 23.0848H24.1925L21.2497 32.1037C21.1561 32.3921 21.131 32.6993 21.1789 32.9991C21.2259 33.2989 21.3433 33.5829 21.5218 33.829C21.6998 34.0747 21.9336 34.2752 22.204 34.4132C22.4743 34.5512 22.7736 34.6233 23.0769 34.6233H27.0769L20.3464 44.2387L21.1538 38.7389C21.1925 38.4642 21.171 38.1846 21.0914 37.9191C21.0119 37.6532 20.8756 37.4079 20.6919 37.2005C20.5095 36.9921 20.2853 36.8264 20.033 36.7139C19.7807 36.6013 19.5073 36.5442 19.2308 36.5464H15.9037L18.8462 23.0848Z" fill="url(#paint0_linear_1_20)"/>
<path d="M16.0782 19.6449C15.7274 19.9183 15.4822 20.3051 15.3846 20.7389L13.2114 30.7772L11.5384 38.1618C11.4773 38.4457 11.4817 38.7402 11.5503 39.022C11.6193 39.3046 11.7512 39.5675 11.9363 39.7912C12.1213 40.015 12.3547 40.1943 12.6189 40.3152C12.8831 40.4356 13.1714 40.4954 13.4615 40.4888H16.9617L15.3846 51.6615C15.3239 52.0888 15.4083 52.524 15.6246 52.8972C15.8413 53.2703 16.1762 53.56 16.5771 53.7196C16.8097 53.8114 17.0576 53.8567 17.3077 53.8541C17.618 53.8536 17.9231 53.778 18.1978 53.6343C18.4721 53.4901 18.7081 53.2822 18.8848 53.0273L32.3459 33.7965C32.5363 33.516 32.6483 33.1908 32.6721 32.8532C32.6954 32.5156 32.6294 32.1776 32.4809 31.8734C32.3266 31.5486 32.0844 31.2743 31.7815 31.0813C31.4791 30.887 31.1283 30.7815 30.7688 30.7772H25.731L28.6729 21.7583C28.7657 21.4756 28.7908 21.1754 28.7481 20.8813C28.705 20.5873 28.5943 20.3068 28.4246 20.0633C28.2554 19.8189 28.0312 19.6176 27.771 19.4747C27.5103 19.3314 27.2202 19.251 26.9226 19.2387H17.3077C17.2923 19.2383 17.2769 19.2382 17.2611 19.2382C16.8334 19.2382 16.4162 19.3807 16.0782 19.6449ZM24.1925 23.0848L21.2497 32.1037C21.156 32.393 21.131 32.6994 21.1789 32.9996C21.2259 33.2994 21.3433 33.5837 21.5217 33.8295C21.6998 34.0752 21.9336 34.2752 22.2039 34.4132C22.4743 34.5512 22.7736 34.6233 23.0769 34.6233H27.0769L20.3464 44.2387L21.1538 38.7389C21.1925 38.4642 21.171 38.1846 21.0914 37.9191C21.0119 37.6532 20.8756 37.4079 20.6919 37.2005C20.5094 36.9925 20.2853 36.8264 20.0329 36.7143C19.7806 36.6013 19.5072 36.5442 19.2307 36.5464H15.9037L18.8461 23.0848H24.1925Z" fill="url(#paint1_linear_1_20)"/>
<defs>
<linearGradient id="paint0_linear_1_20" x1="25" y1="-0.000101509" x2="25" y2="53.8542" gradientUnits="userSpaceOnUse">
<stop stop-color="#9EA8E1"/>
<stop offset="1" stop-color="#D0D7F1"/>
</linearGradient>
<linearGradient id="paint1_linear_1_20" x1="22.0861" y1="19.2381" x2="22.0861" y2="53.8542" gradientUnits="userSpaceOnUse">
<stop stop-color="#FFB831"/>
<stop offset="1" stop-color="#FADA69"/>
</linearGradient>
</defs>
</svg>
