<svg width="50" height="51" viewBox="0 0 50 51" fill="none" xmlns="http://www.w3.org/2000/svg">
<path d="M23.7372 0.856506C23.4025 1.1912 23.2143 1.6459 23.2143 2.11896V5.69039C23.2143 6.16386 23.4025 6.61813 23.7372 6.95282C24.0723 7.28792 24.5265 7.4761 25 7.4761C25.4735 7.4761 25.9274 7.28792 26.2625 6.95282C26.5976 6.61813 26.7857 6.16386 26.7857 5.69039V2.11896C26.7857 1.6459 26.5976 1.1912 26.2625 0.856506C25.9274 0.521404 25.4735 0.333248 25 0.333248C24.5265 0.333248 24.0723 0.521404 23.7372 0.856506Z" fill="url(#paint0_linear_1_80)"/>
<path d="M23.7372 43.7133C23.4025 44.0484 23.2143 44.5026 23.2143 44.9761V48.5475C23.2143 49.021 23.4025 49.4749 23.7372 49.81C24.0723 50.1451 24.5265 50.3333 25 50.3333C25.4735 50.3333 25.9274 50.1451 26.2625 49.81C26.5976 49.4749 26.7857 49.021 26.7857 48.5475V44.9761C26.7857 44.5026 26.5976 44.0484 26.2625 43.7133C25.9274 43.3786 25.4735 43.1904 25 43.1904C24.5265 43.1904 24.0723 43.3786 23.7372 43.7133Z" fill="url(#paint1_linear_1_80)"/>
<path d="M1.78531 23.5475C1.31225 23.5475 0.857962 23.7357 0.52286 24.0704C0.187757 24.4055 0 24.8598 0 25.3332C0 25.8067 0.187757 26.261 0.52286 26.5957C0.857962 26.9308 1.31225 27.119 1.78531 27.119H5.35714C5.83061 27.119 6.2849 26.9308 6.61959 26.5957C6.95469 26.261 7.14286 25.8067 7.14286 25.3332C7.14286 24.8598 6.95469 24.4055 6.61959 24.0704C6.2849 23.7357 5.83061 23.5475 5.35714 23.5475H1.78531Z" fill="url(#paint2_linear_1_80)"/>
<path d="M44.6428 23.5475C44.1698 23.5475 43.7151 23.7357 43.38 24.0704C43.0453 24.4055 42.8571 24.8598 42.8571 25.3332C42.8571 25.8067 43.0453 26.261 43.38 26.5957C43.7151 26.9308 44.1698 27.119 44.6428 27.119H48.2143C48.6877 27.119 49.142 26.9308 49.4767 26.5957C49.8118 26.261 50 25.8067 50 25.3332C50 24.8598 49.8118 24.4055 49.4767 24.0704C49.142 23.7357 48.6877 23.5475 48.2143 23.5475H44.6428Z" fill="url(#paint3_linear_1_80)"/>
<path d="M19.3979 10.3847C15.8212 11.7283 12.84 14.3018 10.989 17.6443C9.13835 20.9871 8.53875 24.8794 9.29794 28.6243C10.0571 32.3688 12.1257 35.7202 15.1326 38.0777C18.1392 40.4349 21.8877 41.6443 25.7053 41.4879C29.5228 41.332 33.16 39.821 35.9641 37.2259C36.4841 36.7451 36.973 36.2324 37.4286 35.6904C37.5747 35.5051 37.6832 35.2937 37.7469 35.0667C37.8114 34.8394 37.8294 34.6022 37.8012 34.3684C37.773 34.1341 37.6988 33.908 37.5828 33.7026C37.4665 33.4973 37.311 33.3173 37.1249 33.1724C36.9445 33.0222 36.7363 32.9088 36.5118 32.839C36.2877 32.7696 36.0518 32.7447 35.8179 32.7663C35.5841 32.7875 35.3567 32.8553 35.149 32.9647C34.9412 33.0745 34.7571 33.2239 34.6069 33.4047C34.2555 33.8247 33.8796 34.2243 33.482 34.601C31.3032 36.6214 28.4759 37.7994 25.5069 37.9243C22.5383 38.0488 19.622 37.1116 17.2816 35.281C14.9412 33.4504 13.3294 30.8463 12.7351 27.9345C12.1412 25.023 12.6037 21.9949 14.0396 19.3937C15.4759 16.7924 17.7918 14.7875 20.5718 13.7394C23.3522 12.6908 26.4151 12.6671 29.2114 13.672C32.0073 14.6773 34.3543 16.6459 35.8306 19.2247C37.3077 21.8035 37.8167 24.8235 37.2677 27.7439C37.1779 28.2173 37.2796 28.7075 37.551 29.1059C37.822 29.5047 38.2404 29.779 38.7143 29.8692C39.1877 29.959 39.6775 29.8569 40.0763 29.5859C40.4747 29.3145 40.7494 28.8961 40.8392 28.4222C41.5506 24.6684 40.9012 20.7839 39.0077 17.4655C37.1143 14.1471 34.1004 11.6112 30.5069 10.3137C28.7428 9.67692 26.8951 9.35856 25.0486 9.35856C23.1335 9.35856 21.2188 9.70059 19.3979 10.3847Z" fill="url(#paint4_linear_1_80)"/>
<path d="M41.4482 7.03161C41.2021 7.04141 40.9608 7.10142 40.7388 7.20876C40.518 7.3157 40.3208 7.46753 40.1608 7.65447L37.6249 10.172C37.4576 10.3386 37.3249 10.5357 37.2343 10.7537C37.1433 10.9712 37.0967 11.2047 37.0967 11.4398C37.0967 11.6761 37.1433 11.91 37.2343 12.1271C37.3249 12.3447 37.4576 12.5422 37.6249 12.7084C37.7918 12.8737 37.9898 13.0047 38.2074 13.0937C38.4249 13.1822 38.658 13.2275 38.8927 13.2259C39.1278 13.2275 39.3608 13.1822 39.5784 13.0937C39.7959 13.0047 39.9935 12.8737 40.1608 12.7084L42.6784 10.172C42.8653 10.0124 43.0172 9.8153 43.1245 9.59367C43.2318 9.37245 43.2919 9.1308 43.3012 8.88509C43.311 8.63897 43.2694 8.39406 43.1796 8.16468C43.0898 7.93529 42.9539 7.72754 42.7796 7.55325C42.6057 7.37937 42.3976 7.24345 42.1686 7.15366C41.9608 7.07203 41.7396 7.03039 41.5172 7.03039C41.4943 7.03039 41.4714 7.0308 41.4482 7.03161Z" fill="url(#paint5_linear_1_80)"/>
<path d="M9.83914 37.9581L7.32119 40.4941C6.98894 40.8279 6.802 41.281 6.802 41.7528C6.802 42.2247 6.98894 42.6773 7.32119 43.0116C7.48813 43.1773 7.68609 43.3083 7.90364 43.3969C8.12119 43.4859 8.35424 43.5308 8.58894 43.5296C9.05792 43.5275 9.5069 43.3418 9.83914 43.0116L12.3751 40.4941C12.7114 40.1577 12.9004 39.7014 12.9004 39.2259C12.9004 38.7504 12.7114 38.2945 12.3751 37.9581C12.0387 37.6218 11.5824 37.4328 11.1073 37.4328C10.6318 37.4328 10.1759 37.6218 9.83914 37.9581Z" fill="url(#paint6_linear_1_80)"/>
<path d="M37.6249 37.9581C37.2886 38.2945 37.0996 38.7504 37.0996 39.2259C37.0996 39.7014 37.2886 40.1577 37.6249 40.4941L40.1608 43.0116C40.4927 43.3418 40.9421 43.5275 41.4106 43.5296C41.6457 43.5308 41.8788 43.4859 42.0963 43.3969C42.3139 43.3083 42.5119 43.1773 42.6784 43.0116C43.011 42.6773 43.198 42.2247 43.198 41.7528C43.198 41.281 43.011 40.8279 42.6784 40.4941L40.1608 37.9581C39.8245 37.6218 39.3682 37.4328 38.8927 37.4328C38.4172 37.4328 37.9612 37.6218 37.6249 37.9581Z" fill="url(#paint7_linear_1_80)"/>
<path d="M8.60896 7.22632C8.15957 7.24346 7.73304 7.42998 7.41508 7.74753C7.09712 8.0659 6.91059 8.49244 6.89345 8.94183C6.8759 9.39121 7.02896 9.83039 7.32121 10.172L9.83916 12.7075C10.0061 12.8732 10.2041 13.0043 10.422 13.0932C10.6388 13.1822 10.8722 13.2271 11.1073 13.2259C11.342 13.2271 11.5751 13.1822 11.7926 13.0932C12.0102 13.0043 12.2081 12.8732 12.3751 12.7075C12.5424 12.5418 12.6751 12.3443 12.7657 12.1267C12.8567 11.9092 12.9032 11.6757 12.9032 11.4398C12.9032 11.2043 12.8567 10.9708 12.7657 10.7533C12.6751 10.5357 12.5424 10.3381 12.3751 10.172L9.83916 7.65446C9.51549 7.37732 9.10365 7.22507 8.67875 7.22507C8.65549 7.22507 8.63223 7.2255 8.60896 7.22632Z" fill="url(#paint8_linear_1_80)"/>
<defs>
<linearGradient id="paint0_linear_1_80" x1="25" y1="0.333207" x2="25" y2="7.47606" gradientUnits="userSpaceOnUse">
<stop stop-color="#FAC86A"/>
<stop offset="1" stop-color="#F1674C"/>
</linearGradient>
<linearGradient id="paint1_linear_1_80" x1="25" y1="43.1904" x2="25" y2="50.3332" gradientUnits="userSpaceOnUse">
<stop stop-color="#FAC86A"/>
<stop offset="1" stop-color="#F1674C"/>
</linearGradient>
<linearGradient id="paint2_linear_1_80" x1="3.57142" y1="23.5475" x2="3.57142" y2="27.1189" gradientUnits="userSpaceOnUse">
<stop stop-color="#FAC86A"/>
<stop offset="1" stop-color="#F1674C"/>
</linearGradient>
<linearGradient id="paint3_linear_1_80" x1="46.4285" y1="23.5475" x2="46.4285" y2="27.1189" gradientUnits="userSpaceOnUse">
<stop stop-color="#FAC86A"/>
<stop offset="1" stop-color="#F1674C"/>
</linearGradient>
<linearGradient id="paint4_linear_1_80" x1="25.0488" y1="9.3585" x2="25.0488" y2="41.5014" gradientUnits="userSpaceOnUse">
<stop stop-color="#FAC86A"/>
<stop offset="1" stop-color="#F1674C"/>
</linearGradient>
<linearGradient id="paint5_linear_1_80" x1="40.1997" y1="7.03029" x2="40.1997" y2="13.2259" gradientUnits="userSpaceOnUse">
<stop stop-color="#FAC86A"/>
<stop offset="1" stop-color="#F1674C"/>
</linearGradient>
<linearGradient id="paint6_linear_1_80" x1="9.85118" y1="37.4328" x2="9.85118" y2="43.5296" gradientUnits="userSpaceOnUse">
<stop stop-color="#FAC86A"/>
<stop offset="1" stop-color="#F1674C"/>
</linearGradient>
<linearGradient id="paint7_linear_1_80" x1="40.1488" y1="37.4328" x2="40.1488" y2="43.5296" gradientUnits="userSpaceOnUse">
<stop stop-color="#FAC86A"/>
<stop offset="1" stop-color="#F1674C"/>
</linearGradient>
<linearGradient id="paint8_linear_1_80" x1="9.89767" y1="7.22491" x2="9.89767" y2="13.2259" gradientUnits="userSpaceOnUse">
<stop stop-color="#FAC86A"/>
<stop offset="1" stop-color="#F1674C"/>
</linearGradient>
</defs>
</svg>
