<svg width="123" height="164" viewBox="0 0 123 164" fill="none" xmlns="http://www.w3.org/2000/svg">
<path d="M37.6853 65.2133C7.11731 85.6293 -7.64134 119.113 4.08399 141.512C7.75333 148.085 13.0853 153.572 19.5467 157.435C26.0067 161.293 33.368 163.388 40.892 163.505C48.4053 163.397 55.7573 161.323 62.2187 157.484C68.6773 153.645 74.016 148.179 77.7 141.631C80.7187 135.787 82.108 129.237 81.7253 122.671C81.7253 121.124 81.1107 119.643 80.0173 118.548C78.9227 117.453 77.44 116.839 75.892 116.839C74.3453 116.839 72.8613 117.453 71.768 118.548C70.6733 119.643 70.0587 121.124 70.0587 122.671C70.392 127.261 69.4867 131.853 67.4347 135.972C64.7587 140.685 60.9093 144.628 56.2573 147.409C51.6053 150.189 46.3107 151.716 40.892 151.839C35.5067 151.731 30.2387 150.235 25.6013 147.496C20.9613 144.757 17.1067 140.869 14.4094 136.207C7.00002 122.032 15.1667 96.0133 40.892 77.288C50.168 83.8733 57.9253 92.3654 63.6427 102.197C64.0253 102.864 64.536 103.448 65.1454 103.917C65.7534 104.387 66.4493 104.731 67.1907 104.932C67.9333 105.132 68.708 105.184 69.4693 105.087C70.2307 104.987 70.968 104.739 71.6333 104.356C72.3 103.973 72.8853 103.461 73.3547 102.853C73.8227 102.244 74.168 101.549 74.368 100.805C74.5693 100.064 74.6214 99.2907 74.5227 98.5267C74.424 97.7653 74.176 97.0307 73.792 96.3653C66.508 83.7893 56.3547 73.116 44.1587 65.2133C43.2 64.5747 42.0733 64.232 40.9213 64.232C39.7693 64.232 38.6426 64.5747 37.6853 65.2133Z" fill="url(#paint0_linear_1_120)"/>
<path d="M87.0906 1.28135C79.7386 6.41468 73.3746 12.8387 68.3093 20.2387C67.8093 20.868 67.444 21.5934 67.236 22.3694C67.0293 23.1454 66.9853 23.956 67.1053 24.7507C67.2266 25.5453 67.5106 26.3067 67.9386 26.9854C68.368 27.664 68.9334 28.2467 69.596 28.7C70.2614 29.1507 71.0106 29.46 71.8026 29.6067C72.592 29.7547 73.4026 29.7373 74.1853 29.556C74.9693 29.376 75.7053 29.0347 76.3507 28.556C76.996 28.076 77.5346 27.4707 77.9346 26.7733C81.4373 21.696 85.6627 17.156 90.476 13.2973C108.557 27.94 114.276 47.656 108.968 58.448C107.189 61.852 104.541 64.724 101.293 66.772C98.0453 68.8214 94.3133 69.976 90.476 70.1147C86.6387 69.976 82.9053 68.8214 79.6587 66.772C76.4107 64.724 73.7627 61.852 71.9827 58.448C70.38 54.9667 69.716 51.124 70.0587 47.3067C70.12 46.5414 70.0306 45.7693 69.7933 45.0387C69.5573 44.3067 69.1787 43.628 68.68 43.0453C68.1827 42.46 67.5733 41.98 66.8893 41.6293C66.2053 41.2787 65.4586 41.068 64.692 41.0067C63.9266 40.9454 63.156 41.0347 62.424 41.272C61.6933 41.508 61.016 41.8867 60.4307 42.3854C59.8467 42.8827 59.3653 43.492 59.0146 44.176C58.6653 44.8613 58.4533 45.6067 58.392 46.3747C57.864 52.2707 58.8893 58.2054 61.368 63.5814C64.1267 68.9747 68.2973 73.52 73.4307 76.7347C78.5667 79.9493 84.4773 81.7147 90.5347 81.84C96.592 81.7147 102.501 79.9493 107.637 76.7347C112.772 73.52 116.941 68.9747 119.701 63.5814C128.392 44.972 117.601 18.1387 93.8586 1.28135C92.8706 0.577349 91.688 0.20001 90.476 0.20001C89.2627 0.20001 88.08 0.577349 87.0906 1.28135Z" fill="url(#paint1_linear_1_120)"/>
<path d="M19.7693 112.253C18.5666 113.213 17.7933 114.611 17.6173 116.14C17.144 120.173 17.5679 124.265 18.8599 128.116C20.1506 131.968 22.2759 135.488 25.0839 138.424C29.1186 142.487 34.3546 145.145 40.0173 146.007H40.892C42.4386 146.123 43.9693 145.619 45.1453 144.608C46.3213 143.597 47.0466 142.157 47.1626 140.611C47.2786 139.063 46.776 137.533 45.764 136.357C44.752 135.181 43.3133 134.455 41.7666 134.34C38.6053 133.867 35.6693 132.417 33.3666 130.199C31.8146 128.493 30.6439 126.477 29.9293 124.285C29.2159 122.093 28.976 119.773 29.2253 117.481C29.3146 116.715 29.2506 115.937 29.0373 115.196C28.824 114.455 28.4653 113.761 27.9826 113.16C27.4986 112.557 26.9013 112.057 26.224 111.687C25.5453 111.317 24.8013 111.088 24.0333 111.007C23.8266 110.984 23.62 110.973 23.4146 110.973C22.0946 110.973 20.8093 111.42 19.7693 112.253Z" fill="url(#paint2_linear_1_120)"/>
<defs>
<linearGradient id="paint0_linear_1_120" x1="40.9268" y1="64.2332" x2="40.9268" y2="163.505" gradientUnits="userSpaceOnUse">
<stop stop-color="#7CB1F8"/>
<stop offset="1" stop-color="#3495E3"/>
</linearGradient>
<linearGradient id="paint1_linear_1_120" x1="90.4714" y1="0.199925" x2="90.4714" y2="81.8399" gradientUnits="userSpaceOnUse">
<stop stop-color="#7CB1F8"/>
<stop offset="1" stop-color="#3495E3"/>
</linearGradient>
<linearGradient id="paint2_linear_1_120" x1="32.3043" y1="110.973" x2="32.3043" y2="146.023" gradientUnits="userSpaceOnUse">
<stop stop-color="#7CB1F8"/>
<stop offset="1" stop-color="#3495E3"/>
</linearGradient>
</defs>
</svg>
