<svg width="154" height="165" viewBox="0 0 154 165" fill="none" xmlns="http://www.w3.org/2000/svg">
<path d="M76.5733 0.224005C49.4666 0.224005 27.0053 18.4507 24.0067 41.8534C17.608 42.6907 11.708 45.7547 7.34266 50.5067C2.97733 55.26 0.423998 61.3973 0.133331 67.8427C0.545331 75.244 3.86666 82.1813 9.37466 87.1387C14.884 92.0973 22.1306 94.6733 29.5333 94.3027H53.0533C54.6133 94.3027 56.108 93.6854 57.2107 92.5827C58.3133 91.48 58.9333 89.984 58.9333 88.424C58.9333 86.8653 58.3133 85.3694 57.2107 84.2667C56.108 83.164 54.6133 82.544 53.0533 82.544H29.5333C25.2533 82.8893 21.0107 81.5427 17.7133 78.7947C14.4147 76.0467 12.3253 72.1147 11.8933 67.8427C12.3253 63.572 14.4147 59.6427 17.7133 56.8934C21.0107 54.1454 25.2533 52.7973 29.5333 53.144C31.0933 53.144 32.588 52.5253 33.6907 51.424C34.7947 50.3187 35.4133 48.824 35.4133 47.264C35.4133 27.8 53.8773 11.984 76.5733 11.984C85.0013 11.6894 93.3173 13.9893 100.395 18.5733C107.472 23.16 112.971 29.808 116.145 37.6213C116.504 38.6707 117.153 39.5987 118.017 40.296C118.88 40.9933 119.924 41.432 121.027 41.56C126.301 41.9227 131.264 44.1933 134.987 47.9493C138.709 51.704 140.937 56.6853 141.253 61.9627C140.831 67.7987 138.124 73.232 133.721 77.0867C129.319 80.9387 123.573 82.9 117.733 82.544H76.5733C75.0133 82.544 73.5187 83.164 72.416 84.2667C71.3133 85.3694 70.6933 86.8653 70.6933 88.424C70.6933 89.984 71.3133 91.48 72.416 92.5827C73.5187 93.6854 75.0133 94.3027 76.5733 94.3027H117.733C126.695 94.6707 135.436 91.4747 142.048 85.4133C148.659 79.3533 152.601 70.924 153.013 61.9627C152.757 54.4347 149.944 47.2173 145.039 41.5C140.133 35.7813 133.427 31.9027 126.024 30.5067C121.623 21.1947 114.6 13.368 105.816 7.98934C97.4907 2.89068 87.9253 0.199997 78.1827 0.199997C77.6467 0.199997 77.1106 0.208005 76.5733 0.224005Z" fill="url(#paint0_linear_1_175)"/>
<path d="M25.712 119.235C13.4813 129.584 8.42533 145.931 14.2453 156.22C15.9853 159.271 18.6387 161.697 21.8307 163.159C24.244 164.284 26.872 164.867 29.5333 164.867C32.196 164.867 34.824 164.284 37.2373 163.159C40.4293 161.697 43.0827 159.271 44.8213 156.22C50.6427 145.931 45.5867 129.584 33.356 119.235C32.2907 118.324 30.936 117.824 29.5333 117.824C28.132 117.824 26.7773 118.324 25.712 119.235ZM26.888 152.515C25.936 152.071 25.1387 151.355 24.5933 150.457C22.5373 147.224 23.6533 139.051 29.5333 132.053C31.9106 134.411 33.6307 137.352 34.5173 140.581C35.4027 143.812 35.4293 147.216 34.5906 150.457C34.0066 151.344 33.1947 152.055 32.2387 152.515C31.3973 152.895 30.4853 153.091 29.5627 153.091C28.6413 153.091 27.7293 152.895 26.888 152.515Z" fill="url(#paint1_linear_1_175)"/>
<path d="M119.789 119.235C107.561 129.703 102.504 145.931 108.029 156.22C109.771 159.271 112.424 161.697 115.616 163.159C118.028 164.284 120.657 164.867 123.319 164.867C125.98 164.867 128.609 164.284 131.021 163.159C134.215 161.697 136.868 159.271 138.607 156.22C144.723 145.931 139.665 129.584 127.435 119.235C126.371 118.324 125.015 117.824 123.613 117.824C122.213 117.824 120.856 118.324 119.789 119.235ZM120.967 152.515C120.017 152.071 119.217 151.355 118.673 150.457C116.675 146.989 117.909 139.051 123.672 132.053C126.039 134.419 127.745 137.36 128.621 140.591C129.499 143.819 129.516 147.221 128.669 150.457C128.085 151.344 127.273 152.055 126.317 152.515C125.477 152.895 124.565 153.091 123.643 153.091C122.72 153.091 121.808 152.895 120.967 152.515Z" fill="url(#paint2_linear_1_175)"/>
<path d="M72.752 107.476C60.5213 117.941 55.464 134.169 61.2853 144.46C63.0253 147.511 65.6786 149.937 68.8706 151.397C71.2826 152.523 73.912 153.105 76.5733 153.105C79.2346 153.105 81.864 152.523 84.276 151.397C87.4693 149.937 90.1226 147.511 91.8613 144.46C97.6826 134.169 92.6266 117.824 80.396 107.476C79.3306 106.564 77.9746 106.063 76.5733 106.063C75.172 106.063 73.8173 106.564 72.752 107.476ZM73.9266 140.756C72.976 140.312 72.1773 139.596 71.6347 138.699C69.6347 135.228 70.8706 127.289 76.632 120.293C78.9986 122.657 80.7053 125.601 81.5827 128.829C82.46 132.059 82.476 135.46 81.6306 138.699C81.0466 139.581 80.2333 140.295 79.2787 140.756C78.4373 141.133 77.5253 141.329 76.6026 141.329C75.68 141.329 74.7693 141.133 73.9266 140.756Z" fill="url(#paint3_linear_1_175)"/>
<defs>
<linearGradient id="paint0_linear_1_175" x1="76.5733" y1="0.199627" x2="76.5733" y2="94.3388" gradientUnits="userSpaceOnUse">
<stop stop-color="#9EA8E1"/>
<stop offset="1" stop-color="#D0D7F1"/>
</linearGradient>
<linearGradient id="paint1_linear_1_175" x1="29.5337" y1="117.824" x2="29.5337" y2="164.867" gradientUnits="userSpaceOnUse">
<stop stop-color="#7CB1F8"/>
<stop offset="1" stop-color="#3495E3"/>
</linearGradient>
<linearGradient id="paint2_linear_1_175" x1="123.504" y1="117.824" x2="123.504" y2="164.867" gradientUnits="userSpaceOnUse">
<stop stop-color="#7CB1F8"/>
<stop offset="1" stop-color="#3495E3"/>
</linearGradient>
<linearGradient id="paint3_linear_1_175" x1="76.5734" y1="106.063" x2="76.5734" y2="153.105" gradientUnits="userSpaceOnUse">
<stop stop-color="#7CB1F8"/>
<stop offset="1" stop-color="#3495E3"/>
</linearGradient>
</defs>
</svg>
