<svg width="154" height="143" viewBox="0 0 154 143" fill="none" xmlns="http://www.w3.org/2000/svg">
<path d="M104.88 0.491992C103.427 0.759992 102.148 1.59335 101.321 2.80535C100.481 4.01735 100.16 5.512 100.427 6.95867L102.88 20.06L98.4147 27.6467L92.9453 11.872C92.76 11.1493 92.428 10.4734 91.96 9.88669C91.4933 9.29869 90.9186 8.81467 90.2519 8.45867C89.5999 8.10667 88.88 7.89199 88.1333 7.83066C87.3866 7.76799 86.6399 7.86002 85.9186 8.10002C85.2133 8.33869 84.56 8.72267 84.0133 9.22401C83.4533 9.72667 83.012 10.3373 82.7067 11.0173C82.3987 11.7 82.2267 12.4374 82.2134 13.1854C82.2134 13.9334 82.3466 14.6733 82.64 15.3653L91.04 39.8733L84.4399 50.0774H68.6667V49.6427L61.0254 38.344L68.9333 15.0934C69.3586 13.696 69.2133 12.1867 68.5347 10.8973C67.8533 9.60668 66.6786 8.64266 65.2799 8.21599C63.8799 7.78666 62.3734 7.93334 61.0814 8.62C59.8 9.30667 58.8266 10.476 58.3986 11.872L52.9466 27.3187L48.0933 20.1694L50.5467 7.23333C50.68 6.51466 50.6667 5.78 50.52 5.068C50.3587 4.35467 50.0667 3.67869 49.6533 3.07736C49.24 2.47736 48.7199 1.96399 48.1066 1.56666C47.4933 1.17066 46.8133 0.897349 46.0933 0.765349C45.3733 0.633349 44.6399 0.64401 43.9333 0.793343C43.2133 0.946677 42.5466 1.23601 41.9333 1.64934C41.3333 2.06267 40.8266 2.59068 40.4266 3.20134C40.0253 3.81468 39.7613 4.49735 39.6266 5.21335L38.3734 14.7107L28.3333 12.8534C27.6133 12.7187 26.88 12.7253 26.16 12.8747C25.4533 13.02 24.7733 13.3094 24.16 13.72C22.9467 14.5494 22.1067 15.828 21.84 17.276C21.56 18.724 21.868 20.2214 22.6934 21.4387C23.5347 22.6574 24.8133 23.496 26.252 23.7707L39.2401 26.2267L44.1066 33.3773L27.7334 32.6133C26.2801 32.6133 24.8934 33.188 23.8667 34.212C22.84 35.2347 22.2666 36.6227 22.2666 38.0707C22.2666 39.5174 22.84 40.9067 23.8667 41.9307C24.8934 42.9547 26.2801 43.5307 27.7334 43.5307L52.292 44.6747L59.4399 55.5374L54.4134 66.4533H41.1066L26.3587 46.8027C25.4934 45.6453 24.1999 44.88 22.7733 44.6747C21.3333 44.4707 19.8801 44.8427 18.7201 45.712C17.5601 46.5813 16.8001 47.8733 16.6014 49.3053C16.3867 50.74 16.76 52.1973 17.6266 53.352L27.4533 66.78H18.7733L9.49333 57.4467C8.46533 56.4213 7.07863 55.8427 5.62663 55.8427C4.17329 55.8427 2.77333 56.4213 1.74666 57.4467C0.719997 58.4747 0.148031 59.8693 0.148031 61.3227C0.148031 62.776 0.719997 64.1694 1.74666 65.1974L8.84001 72.2374L1.74666 79.28C1.24 79.7867 0.826631 80.3907 0.546631 81.056C0.279964 81.7213 0.133301 82.4347 0.133301 83.1547C0.133301 83.8747 0.279964 84.588 0.546631 85.2533C0.826631 85.9187 1.24 86.5214 1.74666 87.0307C2.25333 87.5414 2.85202 87.948 3.52002 88.224C4.18535 88.5013 4.90663 88.644 5.62663 88.644C6.34663 88.644 7.0533 88.5013 7.71997 88.224C8.38664 87.948 8.98666 87.5414 9.49333 87.0307L18.7733 77.6974H27.4533L17.6266 90.796C16.76 91.9547 16.3867 93.408 16.6014 94.8427C16.8001 96.276 17.5601 97.5693 18.7201 98.4373C19.6667 99.1453 20.8133 99.5293 22 99.5293C22.84 99.5293 23.6799 99.332 24.4399 98.9533C25.1999 98.5733 25.8534 98.024 26.3587 97.344L41.1066 77.6974H54.748L60.48 87.5747L53.2666 98.164L28.8133 99.2027C27.3733 99.2027 25.9866 99.776 24.96 100.799C23.9333 101.824 23.3587 103.212 23.3587 104.66C23.3587 106.107 23.9333 107.495 24.96 108.517C25.9866 109.543 27.3733 110.117 28.8133 110.117L45.2 109.353L40.3333 116.504L27.4001 118.96C25.9467 119.099 24.6134 119.804 23.6934 120.925C22.7734 122.045 22.32 123.488 22.4666 124.936C22.6013 126.384 23.3079 127.717 24.4266 128.644C25.5466 129.571 26.9866 130.013 28.4399 129.876C28.7599 129.929 29.0934 129.929 29.4281 129.876L39.2401 128.02L41.1066 137.843C41.3466 139.105 42.0267 140.241 43.0254 141.049C44.0254 141.859 45.2801 142.289 46.5601 142.265H47.5999C48.3066 142.135 48.9747 141.865 49.5734 141.472C50.1867 141.08 50.6933 140.573 51.1066 139.98C51.5066 139.387 51.7986 138.719 51.9466 138.015C52.0933 137.313 52.0933 136.585 51.96 135.88L49.4533 122.889L54.748 115.576L60.2 131.075C60.572 132.16 61.2667 133.103 62.2013 133.768C63.1333 134.435 64.24 134.791 65.3867 134.788C65.9867 134.775 66.572 134.664 67.1333 134.459C68.5066 133.989 69.6266 132.995 70.2666 131.695C70.8933 130.395 70.9867 128.897 70.5187 127.531L62.5467 104.332L69.5347 93.7427H84.88L92.0814 104.332L84.16 127.584C83.7067 128.937 83.7999 130.415 84.4266 131.701C85.0533 132.988 86.1467 133.979 87.4933 134.459C88.0533 134.664 88.6399 134.775 89.2386 134.788C90.4266 134.851 91.6133 134.52 92.5999 133.849C93.5719 133.18 94.32 132.207 94.6934 131.075L100.16 115.576L105.013 122.725L102.56 135.716C102.427 136.424 102.427 137.148 102.573 137.852C102.721 138.555 103.015 139.223 103.415 139.816C103.828 140.409 104.335 140.917 104.947 141.311C105.548 141.701 106.215 141.971 106.92 142.103H107.96C109.241 142.125 110.495 141.695 111.495 140.885C112.495 140.076 113.175 138.943 113.416 137.681L115.281 127.856L125.041 129.712C125.388 129.763 125.735 129.763 126.081 129.712C127.535 129.849 128.975 129.407 130.095 128.481C131.216 127.553 131.921 126.22 132.055 124.772C132.201 123.325 131.761 121.881 130.828 120.761C129.907 119.639 128.575 118.933 127.121 118.796L114.188 116.339L109.268 109.188L125.641 109.953H125.708C127.148 109.953 128.536 109.379 129.561 108.355C130.588 107.332 131.161 105.943 131.161 104.496C131.161 103.048 130.588 101.66 129.561 100.635C128.536 99.6134 127.148 99.0374 125.708 99.0374L101.203 97.892L93.4946 86.6493L93.228 86.32L98.416 77.6974H112.055L126.787 97.344C127.308 98.024 127.961 98.5733 128.721 98.9533C129.481 99.332 130.308 99.5293 131.161 99.5293C132.335 99.5293 133.495 99.1453 134.441 98.4373C135.015 98.0067 135.495 97.4667 135.855 96.8507C136.228 96.2347 136.468 95.552 136.561 94.8427C136.668 94.1333 136.627 93.4093 136.441 92.716C136.268 92.0213 135.961 91.3693 135.521 90.796L125.708 77.6974H134.375L143.655 87.0307C144.161 87.5414 144.775 87.948 145.441 88.224C146.095 88.5013 146.815 88.644 147.536 88.644C148.255 88.644 148.975 88.5013 149.628 88.224C150.295 87.948 150.907 87.5414 151.415 87.0307C151.92 86.5214 152.323 85.9187 152.601 85.2533C152.881 84.588 153.028 83.8747 153.028 83.1547C153.028 82.4347 152.881 81.7213 152.601 81.056C152.323 80.3907 151.92 79.7867 151.415 79.28L144.308 72.2374L151.415 65.1974C152.441 64.1694 153.015 62.776 153.015 61.3227C153.015 59.8693 152.441 58.4747 151.415 57.4467C150.388 56.4213 148.988 55.8427 147.536 55.8427C146.083 55.8427 144.68 56.4213 143.655 57.4467L134.375 66.78H125.708L135.521 53.6813C135.961 53.108 136.268 52.4547 136.441 51.7614C136.627 51.0667 136.668 50.344 136.561 49.6333C136.468 48.9253 136.228 48.2413 135.855 47.6253C135.495 47.0093 135.015 46.4693 134.441 46.0413C133.855 45.6093 133.215 45.2973 132.508 45.1187C131.815 44.9413 131.095 44.9014 130.388 45.0027C129.68 45.104 129.001 45.344 128.375 45.7094C127.761 46.0747 127.228 46.5587 126.787 47.132L112.055 66.78H98.416C97.8547 66.8 97.2934 66.9093 96.7747 67.108C95.6147 66.752 94.3614 66.792 93.228 67.228C92.0827 67.664 91.1213 68.4667 90.4946 69.5093L82.748 82.8267H70.4147L64.0827 71.9107L69.1613 60.9947H87.4946C88.148 60.972 88.788 60.844 89.4014 60.6133H89.7879C90.3479 60.3373 90.8546 59.9894 91.3213 59.576C91.5613 59.3467 91.7879 59.0907 91.9746 58.812L100.815 44.6213L124.121 43.5307C125.521 43.4587 126.841 42.852 127.801 41.8373C128.775 40.8227 129.308 39.472 129.308 38.0707C129.308 37.3307 129.161 36.5987 128.868 35.9173C128.575 35.2373 128.148 34.6227 127.615 34.112C127.068 33.6014 126.441 33.2053 125.748 32.948C125.055 32.688 124.308 32.576 123.573 32.6133L107.801 33.3227L112.215 26.1707L125.041 23.7707C126.495 23.5027 127.775 22.6707 128.615 21.4587C129.441 20.244 129.763 18.752 129.495 17.3027C129.228 15.8547 128.401 14.5733 127.187 13.7387C125.975 12.9053 124.483 12.5867 123.028 12.8534L113.203 14.7107L111.348 4.94133C111.081 3.49333 110.24 2.21067 109.027 1.37867C108.107 0.736004 107.004 0.399992 105.889 0.399992C105.552 0.399992 105.213 0.430659 104.88 0.491992Z" fill="url(#paint0_linear_1_35)"/>
<defs>
<linearGradient id="paint0_linear_1_35" x1="76.5801" y1="0.39925" x2="76.5801" y2="142.266" gradientUnits="userSpaceOnUse">
<stop stop-color="#D5DBF3"/>
<stop offset="1" stop-color="#A0CFF6"/>
</linearGradient>
</defs>
</svg>
